<svg width="150" height="44" viewBox="0 0 150 44" fill="none" xmlns="http://www.w3.org/2000/svg">
<rect width="150" height="44" rx="8.57143" fill="#3E3838"/>
<path d="M32.3939 22.9647C32.4089 21.8017 32.7178 20.6613 33.2919 19.6497C33.8661 18.6381 34.6868 17.7882 35.6776 17.1791C35.0482 16.2801 34.2177 15.5402 33.2523 15.0183C32.2869 14.4964 31.2131 14.2068 30.1162 14.1725C27.7762 13.9268 25.5078 15.5726 24.3154 15.5726C23.1 15.5726 21.2641 14.1968 19.2872 14.2375C18.0084 14.2788 16.7622 14.6507 15.6699 15.3168C14.5776 15.983 13.6765 16.9207 13.0544 18.0386C10.3595 22.7045 12.3697 29.5617 14.9512 33.3332C16.2428 35.18 17.7522 37.2429 19.7274 37.1697C21.6602 37.0896 22.382 35.9373 24.7151 35.9373C27.0265 35.9373 27.7037 37.1697 29.7189 37.1232C31.7929 37.0896 33.0996 35.2682 34.3459 33.4039C35.2739 32.088 35.9879 30.6337 36.4617 29.0947C35.2568 28.5851 34.2285 27.732 33.5051 26.642C32.7818 25.5519 32.3953 24.273 32.3939 22.9647Z" fill="white"/>
<path d="M28.5876 11.6921C29.7185 10.3346 30.2756 8.58976 30.1407 6.82812C28.413 7.00958 26.8172 7.83528 25.6711 9.1407C25.1107 9.77843 24.6815 10.5203 24.4081 11.324C24.1346 12.1277 24.0223 12.9774 24.0774 13.8246C24.9415 13.8335 25.7964 13.6462 26.5777 13.2768C27.3589 12.9074 28.0462 12.3656 28.5876 11.6921Z" fill="white"/>
<path d="M46.2667 14.7237H45.1602V12.3601H45.6452C46.1255 12.0541 46.2808 11.4985 46.3326 10.585L46.5775 6.58758H51.1729V12.3601H52.0204V14.7237H50.9186V13.3818H46.2667V14.7237ZM47.458 10.6604C47.4062 11.4278 47.312 11.9505 46.9965 12.3224V12.3601H49.9628V7.60931H47.651L47.458 10.6604ZM55.8766 13.4995C53.8944 13.4995 52.6513 12.1482 52.6513 9.98706V9.97764C52.6513 7.82118 53.8991 6.46987 55.8766 6.46987C57.8589 6.46987 59.1019 7.82118 59.1019 9.97764V9.98706C59.1019 12.1482 57.8636 13.4995 55.8766 13.4995ZM55.8766 12.4449C57.1055 12.4449 57.8636 11.4843 57.8636 9.98706V9.97764C57.8636 8.47095 57.0914 7.52455 55.8766 7.52455C54.6666 7.52455 53.8897 8.46624 53.8897 9.97764V9.98706C53.8897 11.4985 54.6618 12.4449 55.8766 12.4449ZM63.0993 13.4995C61.1501 13.4995 59.9117 12.1529 59.9117 9.98235V9.97764C59.9117 7.80706 61.1501 6.46987 63.0993 6.46987C64.6625 6.46987 65.8161 7.44451 65.9903 8.82879L65.9997 8.87587H64.8038L64.7803 8.78641C64.5825 8.00952 63.9892 7.52455 63.0993 7.52455C61.9128 7.52455 61.1548 8.47095 61.1548 9.97764V9.98235C61.1548 11.4938 61.9175 12.4449 63.0993 12.4449C63.9704 12.4449 64.5731 11.9787 64.7991 11.1406L64.8085 11.0935H65.9997L65.995 11.1406C65.8161 12.5343 64.6625 13.4995 63.0993 13.4995ZM68.3022 13.3818V7.60931H66.2728V6.58758H71.5463V7.60931H69.5169V13.3818H68.3022ZM73.2978 13.4383C73.053 13.4383 72.8364 13.396 72.7846 13.3724V12.3601C72.8787 12.3836 73.0294 12.4025 73.1848 12.4025C73.6368 12.4025 73.9523 12.2424 74.2018 11.8233L71.9229 6.58758H73.2083L74.8186 10.5897H74.8798L76.4242 6.58758H77.7002L75.619 11.4373C75.007 12.8639 74.4278 13.4383 73.2978 13.4383ZM84.1695 13.3818H82.9548V7.60931H79.7013V13.3818H78.4865V6.58758H84.1695V13.3818ZM85.4597 13.3818V6.58758H86.6697V9.41263H89.975V6.58758H91.1898V13.3818H89.975V10.4344H86.6697V13.3818H85.4597ZM95.4556 13.4995C93.4734 13.4995 92.2304 12.1482 92.2304 9.98706V9.97764C92.2304 7.82118 93.4781 6.46987 95.4556 6.46987C97.4379 6.46987 98.6809 7.82118 98.6809 9.97764V9.98706C98.6809 12.1482 97.4426 13.4995 95.4556 13.4995ZM95.4556 12.4449C96.6845 12.4449 97.4426 11.4843 97.4426 9.98706V9.97764C97.4426 8.47095 96.6704 7.52455 95.4556 7.52455C94.2456 7.52455 93.4687 8.46624 93.4687 9.97764V9.98706C93.4687 11.4985 94.2409 12.4449 95.4556 12.4449ZM101.657 13.3818V6.58758H104.472C105.711 6.58758 106.511 7.25617 106.511 8.28732V8.29674C106.511 9.02654 105.955 9.68101 105.226 9.77989V9.80343C106.186 9.88818 106.836 10.5568 106.836 11.4514V11.4608C106.836 12.6473 105.951 13.3818 104.501 13.3818H101.657ZM104.171 7.53397H102.867V9.45972H103.964C104.835 9.45972 105.31 9.10188 105.31 8.46153V8.45211C105.31 7.86356 104.891 7.53397 104.171 7.53397ZM104.157 10.3402H102.867V12.4354H104.223C105.113 12.4354 105.593 12.0729 105.593 11.3902V11.3808C105.593 10.698 105.103 10.3402 104.157 10.3402Z" fill="white"/>
<path d="M54.8105 30.9121H48.9338L47.5224 34.9841H45.0333L50.5997 19.9189H53.1858L58.7523 34.9841H56.2206L54.8105 30.9121ZM49.5424 29.0331H54.2007L51.9043 22.4247H51.8401L49.5424 29.0331Z" fill="white"/>
<path d="M70.7736 29.4927C70.7736 32.9059 68.904 35.0989 66.0826 35.0989C65.3679 35.1354 64.6571 34.9745 64.0316 34.6347C63.4061 34.2948 62.8912 33.7897 62.5459 33.1772H62.4925V38.6175H60.1852V24.0002H62.4186V25.8271H62.461C62.8222 25.2175 63.3458 24.7151 63.9761 24.3731C64.6064 24.0312 65.3197 23.8626 66.0402 23.8853C68.8931 23.8853 70.7736 26.0889 70.7736 29.4927ZM68.4021 29.4927C68.4021 27.269 67.226 25.807 65.4315 25.807C63.6686 25.807 62.4828 27.2997 62.4828 29.4927C62.4828 31.7058 63.6686 33.1879 65.4315 33.1879C67.226 33.1879 68.4021 31.7366 68.4021 29.4927Z" fill="white"/>
<path d="M83.1457 29.4927C83.1457 32.9059 81.2761 35.0988 78.4547 35.0988C77.74 35.1354 77.0292 34.9745 76.4037 34.6346C75.7782 34.2948 75.2633 33.7897 74.9179 33.1772H74.8645V38.6175H72.5572V24.0002H74.7906V25.8271H74.833C75.1942 25.2175 75.7178 24.715 76.3481 24.3731C76.9784 24.0312 77.6917 23.8626 78.4122 23.8853C81.2652 23.8853 83.1457 26.0889 83.1457 29.4927ZM80.7741 29.4927C80.7741 27.2689 79.598 25.807 77.8036 25.807C76.0407 25.807 74.8549 27.2997 74.8549 29.4927C74.8549 31.7058 76.0407 33.1879 77.8036 33.1879C79.598 33.1879 80.7741 31.7366 80.7741 29.4927H80.7741Z" fill="white"/>
<path d="M91.3226 30.7863C91.4935 32.2802 92.9788 33.2611 95.0085 33.2611C96.9532 33.2611 98.3524 32.2802 98.3524 30.9331C98.3524 29.7638 97.5085 29.0636 95.5104 28.5838L93.5123 28.1135C90.6812 27.4453 89.3669 26.1515 89.3669 24.0522C89.3669 21.4529 91.6851 19.6675 94.9769 19.6675C98.2348 19.6675 100.468 21.4529 100.543 24.0522H98.2142C98.0747 22.5488 96.8029 21.6413 94.9442 21.6413C93.0855 21.6413 91.8136 22.5594 91.8136 23.8958C91.8136 24.9609 92.6259 25.5876 94.6132 26.0674L96.3118 26.4749C99.4751 27.2059 100.789 28.4475 100.789 30.6511C100.789 33.4696 98.4918 35.2349 94.8375 35.2349C91.4183 35.2349 89.1098 33.5111 88.9607 30.7862L91.3226 30.7863Z" fill="white"/>
<path d="M105.769 21.4009V24.0002H107.907V25.7856H105.769V31.8408C105.769 32.7814 106.197 33.2198 107.137 33.2198C107.39 33.2155 107.644 33.1981 107.896 33.1676V34.9424C107.473 35.0195 107.044 35.0544 106.614 35.0466C104.338 35.0466 103.451 34.2114 103.451 32.0812V25.7856H101.816V24.0002H103.451V21.4009H105.769Z" fill="white"/>
<path d="M109.145 29.4927C109.145 26.0369 111.227 23.8652 114.476 23.8652C117.735 23.8652 119.808 26.0368 119.808 29.4927C119.808 32.9581 117.746 35.1202 114.476 35.1202C111.207 35.1202 109.145 32.9581 109.145 29.4927ZM117.457 29.4927C117.457 27.1221 116.345 25.7229 114.476 25.7229C112.606 25.7229 111.495 27.1327 111.495 29.4927C111.495 31.8729 112.606 33.2614 114.476 33.2614C116.345 33.2614 117.457 31.8729 117.457 29.4927H117.457Z" fill="white"/>
<path d="M121.71 24.0006H123.911V25.8701H123.964C124.113 25.2862 124.463 24.7702 124.956 24.4089C125.448 24.0475 126.053 23.8627 126.668 23.8857C126.934 23.8848 127.199 23.913 127.459 23.9698V26.0786C127.123 25.9784 126.773 25.9324 126.422 25.9424C126.087 25.9291 125.753 25.9869 125.443 26.1117C125.132 26.2365 124.853 26.4254 124.625 26.6655C124.397 26.9056 124.224 27.1911 124.119 27.5025C124.014 27.8139 123.98 28.1437 124.018 28.4694V34.9843H121.71L121.71 24.0006Z" fill="white"/>
<path d="M138.097 31.7579C137.787 33.7518 135.799 35.1202 133.257 35.1202C129.987 35.1202 127.957 32.9794 127.957 29.5449C127.957 26.0996 129.998 23.8652 133.16 23.8652C136.27 23.8652 138.226 25.9527 138.226 29.283V30.0555H130.286V30.1917C130.25 30.5959 130.301 31.0032 130.438 31.3863C130.575 31.7695 130.794 32.1198 131.08 32.4141C131.366 32.7083 131.713 32.9398 132.097 33.093C132.482 33.2462 132.895 33.3178 133.31 33.3028C133.855 33.3527 134.403 33.2294 134.87 32.951C135.338 32.6727 135.701 32.2542 135.906 31.7579L138.097 31.7579ZM130.297 28.4798H135.917C135.938 28.1163 135.881 27.7526 135.751 27.4114C135.621 27.0703 135.421 26.7591 135.162 26.4973C134.903 26.2355 134.591 26.0289 134.247 25.8903C133.902 25.7518 133.532 25.6843 133.16 25.6921C132.784 25.6899 132.412 25.7604 132.064 25.8996C131.716 26.0388 131.4 26.244 131.134 26.5031C130.868 26.7623 130.657 27.0704 130.513 27.4097C130.37 27.7489 130.296 28.1126 130.297 28.4798V28.4798Z" fill="white"/>
</svg>
