<svg width="85" height="86" viewBox="0 0 85 86" fill="none" xmlns="http://www.w3.org/2000/svg">
<rect y="0.741211" width="85" height="85" rx="42.5" fill="#E7F4FF"/>
<path d="M36.424 53.6252C34.9733 53.6252 33.6613 53.3265 32.488 52.7292C31.336 52.1105 30.344 51.2785 29.512 50.2332C28.7013 49.1665 28.072 47.9399 27.624 46.5532C27.1973 45.1665 26.984 43.6839 26.984 42.1052V42.0412C26.984 40.4839 27.208 39.0012 27.656 37.5932C28.104 36.1852 28.744 34.9585 29.576 33.9132C30.408 32.8465 31.4 32.0039 32.552 31.3852C33.7253 30.7665 35.0373 30.4572 36.488 30.4572C37.9173 30.4572 39.208 30.7665 40.36 31.3852C41.5333 31.9825 42.5253 32.8145 43.336 33.8812C44.168 34.9265 44.7973 36.1532 45.224 37.5612C45.672 38.9479 45.896 40.4199 45.896 41.9772V42.0412C45.896 43.6199 45.672 45.1132 45.224 46.5212C44.776 47.9079 44.136 49.1345 43.304 50.2012C42.4933 51.2465 41.5013 52.0785 40.328 52.6972C39.1547 53.3159 37.8533 53.6252 36.424 53.6252ZM36.488 51.3212C37.5333 51.3212 38.472 51.0759 39.304 50.5852C40.1573 50.0732 40.872 49.4012 41.448 48.5692C42.0453 47.7159 42.4933 46.7345 42.792 45.6252C43.112 44.4945 43.272 43.3212 43.272 42.1052V42.0412C43.272 40.8252 43.112 39.6625 42.792 38.5532C42.472 37.4225 42.0133 36.4305 41.416 35.5772C40.8187 34.7239 40.0933 34.0412 39.24 33.5292C38.408 33.0172 37.4693 32.7612 36.424 32.7612C35.3787 32.7612 34.4293 33.0172 33.576 33.5292C32.744 34.0199 32.0293 34.6919 31.432 35.5452C30.856 36.3772 30.408 37.3479 30.088 38.4572C29.768 39.5665 29.608 40.7399 29.608 41.9772V42.0412C29.608 43.2572 29.768 44.4305 30.088 45.5612C30.408 46.6705 30.8667 47.6519 31.464 48.5052C32.0613 49.3585 32.7867 50.0412 33.64 50.5532C34.4933 51.0652 35.4427 51.3212 36.488 51.3212ZM53.4468 33.3052L49.2228 34.6172L48.6148 32.5692L54.0868 30.6812H55.9427V53.2412H53.4468V33.3052Z" fill="#48A7F8"/>
</svg>
