<svg width="85" height="86" viewBox="0 0 85 86" fill="none" xmlns="http://www.w3.org/2000/svg">
<rect y="0.241211" width="85" height="85" rx="42.5" fill="#E7F4FF"/>
<path d="M32.924 53.1252C31.4733 53.1252 30.1613 52.8265 28.988 52.2292C27.836 51.6105 26.844 50.7785 26.012 49.7332C25.2013 48.6665 24.572 47.4399 24.124 46.0532C23.6973 44.6665 23.484 43.1839 23.484 41.6052V41.5412C23.484 39.9839 23.708 38.5012 24.156 37.0932C24.604 35.6852 25.244 34.4585 26.076 33.4132C26.908 32.3465 27.9 31.5039 29.052 30.8852C30.2253 30.2665 31.5373 29.9572 32.988 29.9572C34.4173 29.9572 35.708 30.2665 36.86 30.8852C38.0333 31.4825 39.0253 32.3145 39.836 33.3812C40.668 34.4265 41.2973 35.6532 41.724 37.0612C42.172 38.4479 42.396 39.9199 42.396 41.4772V41.5412C42.396 43.1199 42.172 44.6132 41.724 46.0212C41.276 47.4079 40.636 48.6345 39.804 49.7012C38.9933 50.7465 38.0013 51.5785 36.828 52.1972C35.6547 52.8159 34.3533 53.1252 32.924 53.1252ZM32.988 50.8212C34.0333 50.8212 34.972 50.5759 35.804 50.0852C36.6573 49.5732 37.372 48.9012 37.948 48.0692C38.5453 47.2159 38.9933 46.2345 39.292 45.1252C39.612 43.9945 39.772 42.8212 39.772 41.6052V41.5412C39.772 40.3252 39.612 39.1625 39.292 38.0532C38.972 36.9225 38.5133 35.9305 37.916 35.0772C37.3187 34.2239 36.5933 33.5412 35.74 33.0292C34.908 32.5172 33.9693 32.2612 32.924 32.2612C31.8787 32.2612 30.9293 32.5172 30.076 33.0292C29.244 33.5199 28.5293 34.1919 27.932 35.0452C27.356 35.8772 26.908 36.8479 26.588 37.9572C26.268 39.0665 26.108 40.2399 26.108 41.4772V41.5412C26.108 42.7572 26.268 43.9305 26.588 45.0612C26.908 46.1705 27.3667 47.1519 27.964 48.0052C28.5613 48.8585 29.2867 49.5412 30.14 50.0532C30.9933 50.5652 31.9427 50.8212 32.988 50.8212ZM45.5985 50.7892L53.7265 43.6212C54.5798 42.8532 55.3052 42.1599 55.9025 41.5412C56.4998 40.9225 56.9798 40.3465 57.3425 39.8132C57.7052 39.2585 57.9718 38.7252 58.1425 38.2132C58.3132 37.6799 58.3985 37.1359 58.3985 36.5812C58.3985 35.9199 58.2705 35.3332 58.0145 34.8212C57.7798 34.2879 57.4598 33.8399 57.0545 33.4772C56.6492 33.0932 56.1692 32.8052 55.6145 32.6132C55.0598 32.3999 54.4838 32.2932 53.8865 32.2932C52.6065 32.2932 51.5078 32.6239 50.5905 33.2852C49.6732 33.9252 48.7665 34.8745 47.8705 36.1332L46.0145 34.7892C46.5265 34.0425 47.0492 33.3705 47.5825 32.7732C48.1158 32.1759 48.6918 31.6745 49.3105 31.2692C49.9505 30.8639 50.6545 30.5545 51.4225 30.3412C52.2118 30.1279 53.0972 30.0212 54.0785 30.0212C55.0812 30.0212 56.0092 30.1812 56.8625 30.5012C57.7158 30.8212 58.4518 31.2692 59.0705 31.8452C59.6892 32.3999 60.1692 33.0612 60.5105 33.8292C60.8518 34.5972 61.0225 35.4399 61.0225 36.3572V36.4212C61.0225 37.2319 60.9052 37.9892 60.6705 38.6932C60.4572 39.3759 60.1158 40.0585 59.6465 40.7412C59.1985 41.4025 58.6118 42.0852 57.8865 42.7892C57.1825 43.4932 56.3398 44.2719 55.3585 45.1252L49.3745 50.4372H61.2465V52.7412H45.5985V50.7892Z" fill="#48A7F8"/>
</svg>
