<svg width="85" height="86" viewBox="0 0 85 86" fill="none" xmlns="http://www.w3.org/2000/svg">
<rect y="0.241211" width="85" height="85" rx="42.5" fill="#E7F4FF"/>
<path d="M32.424 53.1252C30.9733 53.1252 29.6613 52.8265 28.488 52.2292C27.336 51.6105 26.344 50.7785 25.512 49.7332C24.7013 48.6665 24.072 47.4399 23.624 46.0532C23.1973 44.6665 22.984 43.1839 22.984 41.6052V41.5412C22.984 39.9839 23.208 38.5012 23.656 37.0932C24.104 35.6852 24.744 34.4585 25.576 33.4132C26.408 32.3465 27.4 31.5039 28.552 30.8852C29.7253 30.2665 31.0373 29.9572 32.488 29.9572C33.9173 29.9572 35.208 30.2665 36.36 30.8852C37.5333 31.4825 38.5253 32.3145 39.336 33.3812C40.168 34.4265 40.7973 35.6532 41.224 37.0612C41.672 38.4479 41.896 39.9199 41.896 41.4772V41.5412C41.896 43.1199 41.672 44.6132 41.224 46.0212C40.776 47.4079 40.136 48.6345 39.304 49.7012C38.4933 50.7465 37.5013 51.5785 36.328 52.1972C35.1547 52.8159 33.8533 53.1252 32.424 53.1252ZM32.488 50.8212C33.5333 50.8212 34.472 50.5759 35.304 50.0852C36.1573 49.5732 36.872 48.9012 37.448 48.0692C38.0453 47.2159 38.4933 46.2345 38.792 45.1252C39.112 43.9945 39.272 42.8212 39.272 41.6052V41.5412C39.272 40.3252 39.112 39.1625 38.792 38.0532C38.472 36.9225 38.0133 35.9305 37.416 35.0772C36.8187 34.2239 36.0933 33.5412 35.24 33.0292C34.408 32.5172 33.4693 32.2612 32.424 32.2612C31.3787 32.2612 30.4293 32.5172 29.576 33.0292C28.744 33.5199 28.0293 34.1919 27.432 35.0452C26.856 35.8772 26.408 36.8479 26.088 37.9572C25.768 39.0665 25.608 40.2399 25.608 41.4772V41.5412C25.608 42.7572 25.768 43.9305 26.088 45.0612C26.408 46.1705 26.8667 47.1519 27.464 48.0052C28.0613 48.8585 28.7867 49.5412 29.64 50.0532C30.4933 50.5652 31.4427 50.8212 32.488 50.8212ZM53.5145 53.1252C51.6372 53.1252 50.0052 52.7625 48.6185 52.0372C47.2318 51.2905 46.0798 50.3199 45.1625 49.1252L46.9865 47.4932C47.8612 48.5599 48.8212 49.3812 49.8665 49.9572C50.9332 50.5332 52.1598 50.8212 53.5465 50.8212C54.2292 50.8212 54.8692 50.7252 55.4665 50.5332C56.0638 50.3199 56.5758 50.0212 57.0025 49.6372C57.4505 49.2532 57.8025 48.7945 58.0585 48.2612C58.3145 47.7279 58.4425 47.1305 58.4425 46.4692V46.4052C58.4425 45.7012 58.2825 45.0825 57.9625 44.5492C57.6638 44.0159 57.2372 43.5679 56.6825 43.2052C56.1278 42.8425 55.4665 42.5652 54.6985 42.3732C53.9305 42.1812 53.0878 42.0852 52.1705 42.0852H50.7305L50.2185 40.5812L57.2905 32.6132H46.3465V30.3412H60.6505V32.1972L53.6105 40.0052C54.5918 40.0905 55.5198 40.2719 56.3945 40.5492C57.2905 40.8265 58.0798 41.2212 58.7625 41.7332C59.4452 42.2452 59.9892 42.8852 60.3945 43.6532C60.7998 44.3999 61.0025 45.2852 61.0025 46.3092V46.3732C61.0025 47.3759 60.7998 48.2932 60.3945 49.1252C60.0105 49.9572 59.4772 50.6719 58.7945 51.2692C58.1332 51.8452 57.3438 52.3039 56.4265 52.6452C55.5305 52.9652 54.5598 53.1252 53.5145 53.1252Z" fill="#48A7F8"/>
</svg>
