<svg width="85" height="86" viewBox="0 0 85 86" fill="none" xmlns="http://www.w3.org/2000/svg">
<rect y="0.741211" width="85" height="85" rx="42.5" fill="#E7F4FF"/>
<path d="M31.424 53.6252C29.9733 53.6252 28.6613 53.3265 27.488 52.7292C26.336 52.1105 25.344 51.2785 24.512 50.2332C23.7013 49.1665 23.072 47.9399 22.624 46.5532C22.1973 45.1665 21.984 43.6839 21.984 42.1052V42.0412C21.984 40.4839 22.208 39.0012 22.656 37.5932C23.104 36.1852 23.744 34.9585 24.576 33.9132C25.408 32.8465 26.4 32.0039 27.552 31.3852C28.7253 30.7665 30.0373 30.4572 31.488 30.4572C32.9173 30.4572 34.208 30.7665 35.36 31.3852C36.5333 31.9825 37.5253 32.8145 38.336 33.8812C39.168 34.9265 39.7973 36.1532 40.224 37.5612C40.672 38.9479 40.896 40.4199 40.896 41.9772V42.0412C40.896 43.6199 40.672 45.1132 40.224 46.5212C39.776 47.9079 39.136 49.1345 38.304 50.2012C37.4933 51.2465 36.5013 52.0785 35.328 52.6972C34.1547 53.3159 32.8533 53.6252 31.424 53.6252ZM31.488 51.3212C32.5333 51.3212 33.472 51.0759 34.304 50.5852C35.1573 50.0732 35.872 49.4012 36.448 48.5692C37.0453 47.7159 37.4933 46.7345 37.792 45.6252C38.112 44.4945 38.272 43.3212 38.272 42.1052V42.0412C38.272 40.8252 38.112 39.6625 37.792 38.5532C37.472 37.4225 37.0133 36.4305 36.416 35.5772C35.8187 34.7239 35.0933 34.0412 34.24 33.5292C33.408 33.0172 32.4693 32.7612 31.424 32.7612C30.3787 32.7612 29.4293 33.0172 28.576 33.5292C27.744 34.0199 27.0293 34.6919 26.432 35.5452C25.856 36.3772 25.408 37.3479 25.088 38.4572C24.768 39.5665 24.608 40.7399 24.608 41.9772V42.0412C24.608 43.2572 24.768 44.4305 25.088 45.5612C25.408 46.6705 25.8667 47.6519 26.464 48.5052C27.0613 49.3585 27.7867 50.0412 28.64 50.5532C29.4933 51.0652 30.4427 51.3212 31.488 51.3212ZM56.699 47.9292H44.891L44.251 46.1052L56.923 30.6812H59.131V45.8172H62.619V47.9292H59.131V53.2412H56.699V47.9292ZM56.699 45.8172V34.2652L47.291 45.8172H56.699Z" fill="#48A7F8"/>
</svg>
