<svg width="85" height="86" viewBox="0 0 85 86" fill="none" xmlns="http://www.w3.org/2000/svg">
<rect y="0.741211" width="85" height="85" rx="42.5" fill="#E7F4FF"/>
<path d="M32.424 53.6252C30.9733 53.6252 29.6613 53.3265 28.488 52.7292C27.336 52.1105 26.344 51.2785 25.512 50.2332C24.7013 49.1665 24.072 47.9399 23.624 46.5532C23.1973 45.1665 22.984 43.6839 22.984 42.1052V42.0412C22.984 40.4839 23.208 39.0012 23.656 37.5932C24.104 36.1852 24.744 34.9585 25.576 33.9132C26.408 32.8465 27.4 32.0039 28.552 31.3852C29.7253 30.7665 31.0373 30.4572 32.488 30.4572C33.9173 30.4572 35.208 30.7665 36.36 31.3852C37.5333 31.9825 38.5253 32.8145 39.336 33.8812C40.168 34.9265 40.7973 36.1532 41.224 37.5612C41.672 38.9479 41.896 40.4199 41.896 41.9772V42.0412C41.896 43.6199 41.672 45.1132 41.224 46.5212C40.776 47.9079 40.136 49.1345 39.304 50.2012C38.4933 51.2465 37.5013 52.0785 36.328 52.6972C35.1547 53.3159 33.8533 53.6252 32.424 53.6252ZM32.488 51.3212C33.5333 51.3212 34.472 51.0759 35.304 50.5852C36.1573 50.0732 36.872 49.4012 37.448 48.5692C38.0453 47.7159 38.4933 46.7345 38.792 45.6252C39.112 44.4945 39.272 43.3212 39.272 42.1052V42.0412C39.272 40.8252 39.112 39.6625 38.792 38.5532C38.472 37.4225 38.0133 36.4305 37.416 35.5772C36.8187 34.7239 36.0933 34.0412 35.24 33.5292C34.408 33.0172 33.4693 32.7612 32.424 32.7612C31.3787 32.7612 30.4293 33.0172 29.576 33.5292C28.744 34.0199 28.0293 34.6919 27.432 35.5452C26.856 36.3772 26.408 37.3479 26.088 38.4572C25.768 39.5665 25.608 40.7399 25.608 41.9772V42.0412C25.608 43.2572 25.768 44.4305 26.088 45.5612C26.408 46.6705 26.8667 47.6519 27.464 48.5052C28.0613 49.3585 28.7867 50.0412 29.64 50.5532C30.4933 51.0652 31.4427 51.3212 32.488 51.3212ZM53.571 53.6252C51.971 53.6252 50.4883 53.2945 49.123 52.6332C47.779 51.9505 46.595 51.0972 45.571 50.0732L47.235 48.2492C48.2163 49.2092 49.2297 49.9665 50.275 50.5212C51.3417 51.0545 52.451 51.3212 53.603 51.3212C54.3923 51.3212 55.1177 51.2039 55.779 50.9692C56.4617 50.7132 57.0377 50.3612 57.507 49.9132C57.9763 49.4652 58.339 48.9425 58.595 48.3452C58.8723 47.7265 59.011 47.0652 59.011 46.3612V46.2972C59.011 45.5932 58.8723 44.9532 58.595 44.3772C58.3177 43.8012 57.9337 43.3105 57.443 42.9052C56.9523 42.4785 56.3657 42.1585 55.683 41.9452C55.0003 41.7105 54.2537 41.5932 53.443 41.5932C52.483 41.5932 51.619 41.7212 50.851 41.9772C50.1043 42.2119 49.4003 42.5105 48.739 42.8732L47.043 41.7532L47.683 30.8412H60.579V33.1772H49.891L49.411 40.3452C50.0723 40.0465 50.7337 39.8119 51.395 39.6412C52.0777 39.4492 52.8883 39.3532 53.827 39.3532C54.915 39.3532 55.9283 39.5132 56.867 39.8332C57.8057 40.1319 58.627 40.5799 59.331 41.1772C60.035 41.7745 60.579 42.4999 60.963 43.3532C61.3683 44.1852 61.571 45.1345 61.571 46.2012V46.2652C61.571 47.3532 61.3683 48.3559 60.963 49.2732C60.579 50.1692 60.035 50.9479 59.331 51.6092C58.627 52.2492 57.7843 52.7505 56.803 53.1132C55.8217 53.4545 54.7443 53.6252 53.571 53.6252Z" fill="#48A7F8"/>
</svg>
