<svg width="384" height="229" viewBox="0 0 384 229" fill="none" xmlns="http://www.w3.org/2000/svg">
<path d="M0 16.4824C0 7.64586 7.16344 0.482422 16 0.482422H368C376.837 0.482422 384 7.64587 384 16.4824V212.482C384 221.319 376.837 228.482 368 228.482H16C7.16345 228.482 0 221.319 0 212.482V16.4824Z" fill="#F4EFE4"/>
<path d="M51.0811 43.4348H56.5" stroke="#48A7F8" stroke-width="2" stroke-linecap="round" stroke-linejoin="round"/>
<path d="M56.5 51.5632H61.9189" stroke="#48A7F8" stroke-width="2" stroke-linecap="round" stroke-linejoin="round"/>
<path fill-rule="evenodd" clip-rule="evenodd" d="M77.381 36.0999L82.8008 41.5181C83.859 42.5761 83.8593 44.2916 82.8013 45.3499L77.3831 50.7696C76.8751 51.2778 76.1859 51.5634 75.4673 51.5634C74.7487 51.5634 74.0595 51.2782 73.5513 50.7701L68.1317 45.352C67.0735 44.294 67.0732 42.5785 68.1312 41.5202L73.5493 36.1005C74.6072 35.0423 76.3227 35.042 77.381 36.0999Z" stroke="#48A7F8" stroke-width="2" stroke-linecap="round" stroke-linejoin="round"/>
<path d="M56.5 35.2175H61.9189" stroke="#48A7F8" stroke-width="2" stroke-linecap="round" stroke-linejoin="round"/>
<path d="M45.6622 73.239H56.5" stroke="#48A7F8" stroke-width="2" stroke-linecap="round" stroke-linejoin="round"/>
<path d="M67.3378 59.6918V74.5938C67.3378 78.3348 64.3052 81.3675 60.5642 81.3675H41.5979C37.8569 81.3675 34.8243 78.3348 34.8243 74.5938V39.3708C34.8243 35.6298 37.8569 32.5972 41.5979 32.5972H45.6621" stroke="#3E3838" stroke-width="2" stroke-linecap="round" stroke-linejoin="round"/>
<path d="M25.98 134.482V120.482H27.56V126.702H35.64V120.482H37.22V134.482H35.64V128.182H27.56V134.482H25.98ZM43.9953 134.702C42.0753 134.702 40.1353 133.622 40.1353 131.482V131.442C40.1353 129.282 41.9353 128.102 44.5553 128.102C45.8953 128.102 46.7953 128.282 47.7353 128.542V128.182C47.7353 126.322 46.5953 125.362 44.6553 125.362C43.4353 125.362 42.4753 125.662 41.5153 126.122L41.0553 124.862C42.1953 124.322 43.2953 124.002 44.8153 124.002C46.2753 124.002 47.3953 124.382 48.1553 125.142C48.8553 125.842 49.2153 126.862 49.2153 128.162V134.482H47.7353V132.922C47.0153 133.862 45.8353 134.702 43.9953 134.702ZM44.2953 133.482C46.2153 133.482 47.7553 132.322 47.7553 130.682V129.682C46.9753 129.462 45.9953 129.242 44.7153 129.242C42.7753 129.242 41.6953 130.082 41.6953 131.382V131.422C41.6953 132.722 42.9153 133.482 44.2953 133.482ZM52.4973 134.482V124.142H54.0373V133.082H59.2573V124.142H60.7773V133.082H65.9973V124.142H67.5373V134.482H52.4973ZM75.4939 134.722C72.6739 134.722 70.3339 132.542 70.3339 129.342V129.302C70.3339 126.322 72.4139 123.922 75.2939 123.922C78.3539 123.922 80.1139 126.362 80.1139 129.382C80.1139 129.602 80.1139 129.702 80.0939 129.882H71.8939C72.1139 132.122 73.6939 133.382 75.5339 133.382C76.9739 133.382 77.9339 132.802 78.7939 131.922L79.7539 132.782C78.7139 133.962 77.4739 134.722 75.4939 134.722ZM71.8939 128.742H78.5539C78.3939 126.882 77.3339 125.222 75.2539 125.222C73.4339 125.222 72.1139 126.742 71.8939 128.742ZM88.8059 134.482V124.142H98.0259V134.482H96.4859V125.542H90.3459V134.482H88.8059ZM101.462 137.682V124.142H103.002V126.222C103.862 125.002 105.042 123.922 106.962 123.922C109.442 123.922 111.902 125.882 111.902 129.282V129.322C111.902 132.682 109.462 134.702 106.962 134.702C105.042 134.702 103.802 133.682 103.002 132.502V137.682H101.462ZM106.682 133.322C108.682 133.322 110.322 131.842 110.322 129.342V129.302C110.322 126.842 108.662 125.302 106.682 125.302C104.762 125.302 102.942 126.942 102.942 129.282V129.322C102.942 131.722 104.762 133.322 106.682 133.322ZM114.743 134.482V124.142H116.283V132.162L122.563 124.142H124.043V134.482H122.523V126.442L116.183 134.482H114.743ZM132.577 124.062L137.277 134.482H135.557L131.857 125.962L128.137 134.482H126.477L131.157 124.062H132.577ZM143.897 134.722C140.797 134.722 138.537 132.282 138.537 129.362V129.322C138.537 126.382 140.797 123.922 143.937 123.922C147.057 123.922 149.317 126.362 149.317 129.282V129.322C149.317 132.262 147.017 134.722 143.897 134.722ZM143.937 133.342C146.177 133.342 147.737 131.522 147.737 129.362V129.322C147.737 127.102 146.077 125.282 143.897 125.282C141.657 125.282 140.117 127.102 140.117 129.282V129.322C140.117 131.542 141.757 133.342 143.937 133.342ZM159.319 124.142L159.299 128.582H161.059L164.799 124.142H166.659L162.259 129.242L166.799 134.482H164.939L161.059 129.942H159.299L159.319 134.482H157.799L157.819 129.942H156.019L152.179 134.482H150.319L154.859 129.262L150.459 124.142H152.339L156.079 128.582H157.819L157.799 124.142H159.319ZM172.974 134.722C170.154 134.722 167.814 132.542 167.814 129.342V129.302C167.814 126.322 169.894 123.922 172.774 123.922C175.834 123.922 177.594 126.362 177.594 129.382C177.594 129.602 177.594 129.702 177.574 129.882H169.374C169.594 132.122 171.174 133.382 173.014 133.382C174.454 133.382 175.414 132.802 176.274 131.922L177.234 132.782C176.194 133.962 174.954 134.722 172.974 134.722ZM169.374 128.742H176.034C175.874 126.882 174.814 125.222 172.734 125.222C170.914 125.222 169.594 126.742 169.374 128.742ZM180.29 134.482V124.142H181.83V128.562H188.01V124.142H189.53V134.482H188.01V129.962H181.83V134.482H180.29ZM192.986 134.482V124.142H194.526V132.162L200.806 124.142H202.286V134.482H200.766V126.442L194.426 134.482H192.986ZM210.26 134.722C207.44 134.722 205.1 132.542 205.1 129.342V129.302C205.1 126.322 207.18 123.922 210.06 123.922C213.12 123.922 214.88 126.362 214.88 129.382C214.88 129.602 214.88 129.702 214.86 129.882H206.66C206.88 132.122 208.46 133.382 210.3 133.382C211.74 133.382 212.7 132.802 213.56 131.922L214.52 132.782C213.48 133.962 212.24 134.722 210.26 134.722ZM206.66 128.742H213.32C213.16 126.882 212.1 125.222 210.02 125.222C208.2 125.222 206.88 126.742 206.66 128.742ZM223.572 134.482V124.142H232.792V134.482H231.252V125.542H225.112V134.482H223.572ZM236.228 137.682V124.142H237.768V126.222C238.628 125.002 239.808 123.922 241.728 123.922C244.208 123.922 246.668 125.882 246.668 129.282V129.322C246.668 132.682 244.228 134.702 241.728 134.702C239.808 134.702 238.568 133.682 237.768 132.502V137.682H236.228ZM241.448 133.322C243.448 133.322 245.088 131.842 245.088 129.342V129.302C245.088 126.842 243.428 125.302 241.448 125.302C239.528 125.302 237.708 126.942 237.708 129.282V129.322C237.708 131.722 239.528 133.322 241.448 133.322ZM254.029 134.722C251.209 134.722 248.869 132.542 248.869 129.342V129.302C248.869 126.322 250.949 123.922 253.829 123.922C256.889 123.922 258.649 126.362 258.649 129.382C258.649 129.602 258.649 129.702 258.629 129.882H250.429C250.649 132.122 252.229 133.382 254.069 133.382C255.509 133.382 256.469 132.802 257.329 131.922L258.289 132.782C257.249 133.962 256.009 134.722 254.029 134.722ZM250.429 128.742H257.089C256.929 126.882 255.869 125.222 253.789 125.222C251.969 125.222 250.649 126.742 250.429 128.742ZM266.672 124.062L270.712 133.082H271.892V137.222H270.492V134.482H261.252V137.222H259.852V133.082H261.032L265.072 124.062H266.672ZM265.872 125.602L262.612 133.122H269.072L265.872 125.602ZM279.14 124.062L283.84 134.482H282.12L278.42 125.962L274.7 134.482H273.04L277.72 124.062H279.14ZM289.327 134.702C287.407 134.702 285.467 133.622 285.467 131.482V131.442C285.467 129.282 287.267 128.102 289.887 128.102C291.227 128.102 292.127 128.282 293.067 128.542V128.182C293.067 126.322 291.927 125.362 289.987 125.362C288.767 125.362 287.807 125.662 286.847 126.122L286.387 124.862C287.527 124.322 288.627 124.002 290.147 124.002C291.607 124.002 292.727 124.382 293.487 125.142C294.187 125.842 294.547 126.862 294.547 128.162V134.482H293.067V132.922C292.347 133.862 291.167 134.702 289.327 134.702ZM289.627 133.482C291.547 133.482 293.087 132.322 293.087 130.682V129.682C292.307 129.462 291.327 129.242 290.047 129.242C288.107 129.242 287.027 130.082 287.027 131.382V131.422C287.027 132.722 288.247 133.482 289.627 133.482ZM297.829 134.482V124.142H305.349V125.542H299.369V134.482H297.829ZM309.855 134.702C307.935 134.702 305.995 133.622 305.995 131.482V131.442C305.995 129.282 307.795 128.102 310.415 128.102C311.755 128.102 312.655 128.282 313.595 128.542V128.182C313.595 126.322 312.455 125.362 310.515 125.362C309.295 125.362 308.335 125.662 307.375 126.122L306.915 124.862C308.055 124.322 309.155 124.002 310.675 124.002C312.135 124.002 313.255 124.382 314.015 125.142C314.715 125.842 315.075 126.862 315.075 128.162V134.482H313.595V132.922C312.875 133.862 311.695 134.702 309.855 134.702ZM310.155 133.482C312.075 133.482 313.615 132.322 313.615 130.682V129.682C312.835 129.462 311.855 129.242 310.575 129.242C308.635 129.242 307.555 130.082 307.555 131.382V131.422C307.555 132.722 308.775 133.482 310.155 133.482ZM322.877 134.722C320.057 134.722 317.717 132.542 317.717 129.342V129.302C317.717 126.322 319.797 123.922 322.677 123.922C325.737 123.922 327.497 126.362 327.497 129.382C327.497 129.602 327.497 129.702 327.477 129.882H319.277C319.497 132.122 321.077 133.382 322.917 133.382C324.357 133.382 325.317 132.802 326.177 131.922L327.137 132.782C326.097 133.962 324.857 134.722 322.877 134.722ZM319.277 128.742H325.937C325.777 126.882 324.717 125.222 322.637 125.222C320.817 125.222 319.497 126.742 319.277 128.742ZM332.743 134.482V125.522H328.603V124.142H338.443V125.522H334.283V134.482H332.743ZM30.14 160.762L33.46 152.142H35.1L30.76 162.822C29.88 164.962 28.86 165.742 27.32 165.742C26.46 165.742 25.82 165.562 25.12 165.222L25.64 164.002C26.14 164.262 26.6 164.382 27.26 164.382C28.2 164.382 28.76 163.902 29.38 162.442L24.68 152.142H26.38L30.14 160.762ZM37.5364 162.482V152.142H39.0764V156.562H45.2564V152.142H46.7764V162.482H45.2564V157.962H39.0764V162.482H37.5364ZM50.2317 162.482V152.142H51.7717V160.162L58.0517 152.142H59.5317V162.482H58.0117V154.442L51.6717 162.482H50.2317ZM64.5256 152.142V156.582H66.4056L70.2656 152.142H72.1856L67.6456 157.202L72.3056 162.482H70.3856L66.4456 157.942H64.5256V162.482H62.9856V152.142H64.5256ZM77.3156 162.702C75.3956 162.702 73.4556 161.622 73.4556 159.482V159.442C73.4556 157.282 75.2556 156.102 77.8756 156.102C79.2156 156.102 80.1156 156.282 81.0556 156.542V156.182C81.0556 154.322 79.9156 153.362 77.9756 153.362C76.7556 153.362 75.7956 153.662 74.8356 154.122L74.3756 152.862C75.5156 152.322 76.6156 152.002 78.1356 152.002C79.5956 152.002 80.7156 152.382 81.4756 153.142C82.1756 153.842 82.5356 154.862 82.5356 156.162V162.482H81.0556V160.922C80.3356 161.862 79.1556 162.702 77.3156 162.702ZM77.6156 161.482C79.5356 161.482 81.0756 160.322 81.0756 158.682V157.682C80.2956 157.462 79.3156 157.242 78.0356 157.242C76.0956 157.242 75.0156 158.082 75.0156 159.382V159.422C75.0156 160.722 76.2356 161.482 77.6156 161.482ZM90.8977 152.062L95.5977 162.482H93.8777L90.1777 153.962L86.4577 162.482H84.7977L89.4777 152.062H90.8977ZM98.0247 162.482V152.142H99.5647V155.702H102.725C105.265 155.702 106.785 156.982 106.785 159.062V159.102C106.785 161.122 105.305 162.482 102.665 162.482H98.0247ZM99.5647 161.162H102.645C104.405 161.162 105.225 160.382 105.225 159.082V159.062C105.225 157.842 104.405 156.982 102.665 157.002H99.5647V161.162ZM109.314 162.482V152.142H110.854V156.562H117.034V152.142H118.554V162.482H117.034V157.962H110.854V162.482H109.314ZM123.549 152.142V155.702H126.709C129.249 155.702 130.769 156.982 130.769 159.062V159.102C130.769 161.122 129.289 162.482 126.649 162.482H122.009V152.142H123.549ZM123.549 157.002V161.162H126.629C128.389 161.162 129.209 160.382 129.209 159.082V159.062C129.209 157.842 128.389 156.982 126.649 157.002H123.549ZM132.669 162.482V152.142H134.209V162.482H132.669ZM142.174 162.722C139.354 162.722 137.014 160.542 137.014 157.342V157.302C137.014 154.322 139.094 151.922 141.974 151.922C145.034 151.922 146.794 154.362 146.794 157.382C146.794 157.602 146.794 157.702 146.774 157.882H138.574C138.794 160.122 140.374 161.382 142.214 161.382C143.654 161.382 144.614 160.802 145.474 159.922L146.434 160.782C145.394 161.962 144.154 162.722 142.174 162.722ZM138.574 156.742H145.234C145.074 154.882 144.014 153.222 141.934 153.222C140.114 153.222 138.794 154.742 138.574 156.742ZM155.486 162.482V152.142H157.026V160.162L163.306 152.142H164.786V162.482H163.266V154.442L156.926 162.482H155.486ZM168.24 162.482V152.142H169.78V156.562H175.96V152.142H177.48V162.482H175.96V157.962H169.78V162.482H168.24ZM185.595 162.722C182.555 162.722 180.295 160.262 180.295 157.362V157.322C180.295 154.382 182.555 151.922 185.595 151.922C187.555 151.922 188.755 152.722 189.735 153.762L188.715 154.842C187.895 153.982 186.995 153.282 185.575 153.282C183.475 153.282 181.875 155.042 181.875 157.282V157.322C181.875 159.562 183.515 161.342 185.675 161.342C187.015 161.342 188.015 160.682 188.835 159.802L189.815 160.722C188.775 161.902 187.535 162.722 185.595 162.722ZM195.068 162.482V153.522H190.928V152.142H200.768V153.522H196.608V162.482H195.068ZM203.044 165.682V152.142H204.584V154.222C205.444 153.002 206.624 151.922 208.544 151.922C211.024 151.922 213.484 153.882 213.484 157.282V157.322C213.484 160.682 211.044 162.702 208.544 162.702C206.624 162.702 205.384 161.682 204.584 160.502V165.682H203.044ZM208.264 161.322C210.264 161.322 211.904 159.842 211.904 157.342V157.302C211.904 154.842 210.244 153.302 208.264 153.302C206.344 153.302 204.524 154.942 204.524 157.282V157.322C204.524 159.722 206.344 161.322 208.264 161.322ZM220.238 160.762L223.558 152.142H225.198L220.858 162.822C219.978 164.962 218.958 165.742 217.418 165.742C216.558 165.742 215.918 165.562 215.218 165.222L215.738 164.002C216.238 164.262 216.698 164.382 217.358 164.382C218.298 164.382 218.858 163.902 219.478 162.442L214.778 152.142H216.478L220.238 160.762ZM227.634 162.482V152.142H229.254L233.174 157.942L237.074 152.142H238.674V162.482H237.134V154.542L233.174 160.282H233.114L229.154 154.562V162.482H227.634ZM246.646 162.722C243.826 162.722 241.486 160.542 241.486 157.342V157.302C241.486 154.322 243.566 151.922 246.446 151.922C249.506 151.922 251.266 154.362 251.266 157.382C251.266 157.602 251.266 157.702 251.246 157.882H243.046C243.266 160.122 244.846 161.382 246.686 161.382C248.126 161.382 249.086 160.802 249.946 159.922L250.906 160.782C249.866 161.962 248.626 162.722 246.646 162.722ZM243.046 156.742H249.706C249.546 154.882 248.486 153.222 246.406 153.222C244.586 153.222 243.266 154.742 243.046 156.742ZM253.962 162.482V152.142H255.502V156.562H261.682V152.142H263.202V162.482H261.682V157.962H255.502V162.482H253.962ZM269.658 162.482V153.522H265.518V152.142H275.358V153.522H271.198V162.482H269.658ZM279.174 152.142V155.702H282.334C284.874 155.702 286.394 156.982 286.394 159.062V159.102C286.394 161.122 284.914 162.482 282.274 162.482H277.634V152.142H279.174ZM279.174 157.002V161.162H282.254C284.014 161.162 284.834 160.382 284.834 159.082V159.062C284.834 157.842 284.014 156.982 282.274 157.002H279.174ZM288.294 162.482V152.142H289.834V162.482H288.294ZM299.275 162.482V152.142H300.815V160.162L307.095 152.142H308.575V162.482H307.055V154.442L300.715 162.482H299.275ZM25.72 193.682V180.142H27.26V182.222C28.12 181.002 29.3 179.922 31.22 179.922C33.7 179.922 36.16 181.882 36.16 185.282V185.322C36.16 188.682 33.72 190.702 31.22 190.702C29.3 190.702 28.06 189.682 27.26 188.502V193.682H25.72ZM30.94 189.322C32.94 189.322 34.58 187.842 34.58 185.342V185.302C34.58 182.842 32.92 181.302 30.94 181.302C29.02 181.302 27.2 182.942 27.2 185.282V185.322C27.2 187.722 29.02 189.322 30.94 189.322ZM43.5213 190.722C40.7013 190.722 38.3613 188.542 38.3613 185.342V185.302C38.3613 182.322 40.4413 179.922 43.3213 179.922C46.3813 179.922 48.1413 182.362 48.1413 185.382C48.1413 185.602 48.1413 185.702 48.1213 185.882H39.9212C40.1413 188.122 41.7213 189.382 43.5613 189.382C45.0013 189.382 45.9613 188.802 46.8213 187.922L47.7813 188.782C46.7413 189.962 45.5013 190.722 43.5213 190.722ZM39.9212 184.742H46.5813C46.4213 182.882 45.3613 181.222 43.2813 181.222C41.4613 181.222 40.1413 182.742 39.9212 184.742ZM55.4972 190.722C52.4572 190.722 50.1972 188.262 50.1972 185.362V185.322C50.1972 182.382 52.4572 179.922 55.4972 179.922C57.4572 179.922 58.6572 180.722 59.6372 181.762L58.6172 182.842C57.7972 181.982 56.8972 181.282 55.4772 181.282C53.3772 181.282 51.7772 183.042 51.7772 185.282V185.322C51.7772 187.562 53.4172 189.342 55.5772 189.342C56.9172 189.342 57.9172 188.682 58.7372 187.802L59.7172 188.722C58.6772 189.902 57.4372 190.722 55.4972 190.722ZM66.5853 188.762L69.9053 180.142H71.5453L67.2053 190.822C66.3253 192.962 65.3053 193.742 63.7653 193.742C62.9053 193.742 62.2653 193.562 61.5653 193.222L62.0853 192.002C62.5853 192.262 63.0453 192.382 63.7053 192.382C64.6453 192.382 65.2053 191.902 65.8253 190.442L61.1253 180.142H62.8253L66.5853 188.762ZM73.9817 193.682V180.142H75.5217V182.222C76.3817 181.002 77.5617 179.922 79.4817 179.922C81.9617 179.922 84.4217 181.882 84.4217 185.282V185.322C84.4217 188.682 81.9817 190.702 79.4817 190.702C77.5617 190.702 76.3217 189.682 75.5217 188.502V193.682H73.9817ZM79.2017 189.322C81.2017 189.322 82.8417 187.842 82.8417 185.342V185.302C82.8417 182.842 81.1817 181.302 79.2017 181.302C77.2817 181.302 75.4617 182.942 75.4617 185.282V185.322C75.4617 187.722 77.2817 189.322 79.2017 189.322ZM91.923 190.722C88.883 190.722 86.623 188.262 86.623 185.362V185.322C86.623 182.382 88.883 179.922 91.923 179.922C93.883 179.922 95.083 180.722 96.063 181.762L95.043 182.842C94.223 181.982 93.323 181.282 91.903 181.282C89.803 181.282 88.203 183.042 88.203 185.282V185.322C88.203 187.562 89.843 189.342 92.003 189.342C93.343 189.342 94.343 188.682 95.163 187.802L96.143 188.722C95.103 189.902 93.863 190.722 91.923 190.722ZM100.229 180.142V183.702H103.389C105.929 183.702 107.449 184.982 107.449 187.062V187.102C107.449 189.122 105.969 190.482 103.329 190.482H98.6888V180.142H100.229ZM100.229 185.002V189.162H103.309C105.069 189.162 105.889 188.382 105.889 187.082V187.062C105.889 185.842 105.069 184.982 103.329 185.002H100.229ZM109.349 190.482V180.142H110.889V190.482H109.349ZM125.949 180.062L129.989 189.082H131.169V193.222H129.769V190.482H120.529V193.222H119.129V189.082H120.309L124.349 180.062H125.949ZM125.149 181.602L121.889 189.122H128.349L125.149 181.602ZM138.417 180.062L143.117 190.482H141.397L137.697 181.962L133.977 190.482H132.317L136.997 180.062H138.417ZM146.449 190.482H144.609L147.629 186.502C145.969 186.122 144.989 185.022 144.989 183.422V183.402C144.989 181.422 146.569 180.142 149.029 180.142H154.029V190.482H152.509V186.642H149.309L146.449 190.482ZM152.509 181.422H149.049C147.509 181.422 146.529 182.222 146.529 183.402V183.422C146.529 184.622 147.449 185.422 149.049 185.402H152.509V181.422ZM163.493 190.482V180.142H168.713C170.873 180.142 172.213 181.122 172.213 182.802V182.822C172.213 184.082 171.473 184.802 170.353 185.182C171.713 185.562 172.613 186.262 172.613 187.682V187.702C172.613 189.482 171.113 190.502 168.713 190.482H163.493ZM165.013 184.662H168.393C169.893 184.662 170.653 183.982 170.653 182.942V182.922C170.653 181.982 169.913 181.362 168.533 181.382H165.013V184.662ZM165.013 185.862V189.242H168.673C170.213 189.242 171.073 188.602 171.073 187.622V187.602C171.073 186.542 170.193 185.842 168.513 185.862H165.013ZM178.507 190.702C176.587 190.702 174.647 189.622 174.647 187.482V187.442C174.647 185.282 176.447 184.102 179.067 184.102C180.407 184.102 181.307 184.282 182.247 184.542V184.182C182.247 182.322 181.107 181.362 179.167 181.362C177.947 181.362 176.987 181.662 176.027 182.122L175.567 180.862C176.707 180.322 177.807 180.002 179.327 180.002C180.787 180.002 181.907 180.382 182.667 181.142C183.367 181.842 183.727 182.862 183.727 184.162V190.482H182.247V188.922C181.527 189.862 180.347 190.702 178.507 190.702ZM178.807 189.482C180.727 189.482 182.267 188.322 182.267 186.682V185.682C181.487 185.462 180.507 185.242 179.227 185.242C177.287 185.242 176.207 186.082 176.207 187.382V187.422C176.207 188.722 177.427 189.482 178.807 189.482ZM187.009 190.482V180.142H188.549V189.082H193.769V180.142H195.289V189.082H200.509V180.142H202.049V190.482H187.009ZM210.006 190.722C207.186 190.722 204.846 188.542 204.846 185.342V185.302C204.846 182.322 206.926 179.922 209.806 179.922C212.866 179.922 214.626 182.362 214.626 185.382C214.626 185.602 214.626 185.702 214.606 185.882H206.406C206.626 188.122 208.206 189.382 210.046 189.382C211.486 189.382 212.446 188.802 213.306 187.922L214.266 188.782C213.226 189.962 211.986 190.722 210.006 190.722ZM206.406 184.742H213.066C212.906 182.882 211.846 181.222 209.766 181.222C207.946 181.222 206.626 182.742 206.406 184.742ZM217.322 190.482V180.142H224.842V181.542H218.862V190.482H217.322ZM231.163 190.722C228.063 190.722 225.803 188.282 225.803 185.362V185.322C225.803 182.382 228.063 179.922 231.203 179.922C234.323 179.922 236.583 182.362 236.583 185.282V185.322C236.583 188.262 234.283 190.722 231.163 190.722ZM231.203 189.342C233.443 189.342 235.003 187.522 235.003 185.362V185.322C235.003 183.102 233.343 181.282 231.163 181.282C228.923 181.282 227.383 183.102 227.383 185.282V185.322C227.383 187.542 229.023 189.342 231.203 189.342ZM245.368 193.682V180.142H246.908V182.222C247.768 181.002 248.948 179.922 250.868 179.922C253.348 179.922 255.808 181.882 255.808 185.282V185.322C255.808 188.682 253.368 190.702 250.868 190.702C248.948 190.702 247.708 189.682 246.908 188.502V193.682H245.368ZM250.588 189.322C252.588 189.322 254.228 187.842 254.228 185.342V185.302C254.228 182.842 252.568 181.302 250.588 181.302C248.668 181.302 246.848 182.942 246.848 185.282V185.322C246.848 187.722 248.668 189.322 250.588 189.322ZM263.37 190.722C260.27 190.722 258.01 188.282 258.01 185.362V185.322C258.01 182.382 260.27 179.922 263.41 179.922C266.53 179.922 268.79 182.362 268.79 185.282V185.322C268.79 188.262 266.49 190.722 263.37 190.722ZM263.41 189.342C265.65 189.342 267.21 187.522 267.21 185.362V185.322C267.21 183.102 265.55 181.282 263.37 181.282C261.13 181.282 259.59 183.102 259.59 185.282V185.322C259.59 187.542 261.23 189.342 263.41 189.342ZM276.239 190.722C273.199 190.722 270.939 188.262 270.939 185.362V185.322C270.939 182.382 273.199 179.922 276.239 179.922C278.199 179.922 279.399 180.722 280.379 181.762L279.359 182.842C278.539 181.982 277.639 181.282 276.219 181.282C274.119 181.282 272.519 183.042 272.519 185.282V185.322C272.519 187.562 274.159 189.342 276.319 189.342C277.659 189.342 278.659 188.682 279.479 187.802L280.459 188.722C279.419 189.902 278.179 190.722 276.239 190.722ZM285.712 190.482V181.522H281.572V180.142H291.412V181.522H287.252V190.482H285.712ZM296.163 190.702C294.243 190.702 292.303 189.622 292.303 187.482V187.442C292.303 185.282 294.103 184.102 296.723 184.102C298.063 184.102 298.963 184.282 299.903 184.542V184.182C299.903 182.322 298.763 181.362 296.823 181.362C295.603 181.362 294.643 181.662 293.683 182.122L293.223 180.862C294.363 180.322 295.463 180.002 296.983 180.002C298.443 180.002 299.563 180.382 300.323 181.142C301.023 181.842 301.383 182.862 301.383 184.162V190.482H299.903V188.922C299.183 189.862 298.003 190.702 296.163 190.702ZM296.463 189.482C298.383 189.482 299.923 188.322 299.923 186.682V185.682C299.143 185.462 298.163 185.242 296.883 185.242C294.943 185.242 293.863 186.082 293.863 187.382V187.422C293.863 188.722 295.083 189.482 296.463 189.482ZM304.465 190.482V188.382H306.305V190.482H304.465Z" fill="black"/>
</svg>
