<svg width="1184" height="229" viewBox="0 0 1184 229" fill="none" xmlns="http://www.w3.org/2000/svg">
<g clip-path="url(#clip0_250_2588)">
<path d="M0 16.4824C0 7.64586 7.16344 0.482422 16 0.482422H368C376.837 0.482422 384 7.64587 384 16.4824V212.482C384 221.319 376.837 228.482 368 228.482H16C7.16345 228.482 0 221.319 0 212.482V16.4824Z" fill="#F4EFE4"/>
<path d="M51.0811 43.4348H56.5" stroke="#48A7F8" stroke-width="2" stroke-linecap="round" stroke-linejoin="round"/>
<path d="M56.5 51.5632H61.9189" stroke="#48A7F8" stroke-width="2" stroke-linecap="round" stroke-linejoin="round"/>
<path fill-rule="evenodd" clip-rule="evenodd" d="M77.381 36.0999L82.8008 41.5181C83.859 42.5761 83.8593 44.2916 82.8013 45.3499L77.3831 50.7696C76.8751 51.2778 76.1859 51.5634 75.4673 51.5634C74.7487 51.5634 74.0595 51.2782 73.5513 50.7701L68.1317 45.352C67.0735 44.294 67.0732 42.5785 68.1312 41.5202L73.5493 36.1005C74.6072 35.0423 76.3227 35.042 77.381 36.0999Z" stroke="#48A7F8" stroke-width="2" stroke-linecap="round" stroke-linejoin="round"/>
<path d="M56.5 35.2175H61.9189" stroke="#48A7F8" stroke-width="2" stroke-linecap="round" stroke-linejoin="round"/>
<path d="M45.6622 73.239H56.5" stroke="#48A7F8" stroke-width="2" stroke-linecap="round" stroke-linejoin="round"/>
<path d="M67.3378 59.6918V74.5938C67.3378 78.3348 64.3052 81.3675 60.5642 81.3675H41.5979C37.8569 81.3675 34.8243 78.3348 34.8243 74.5938V39.3708C34.8243 35.6298 37.8569 32.5972 41.5979 32.5972H45.6621" stroke="#3E3838" stroke-width="2" stroke-linecap="round" stroke-linejoin="round"/>
<path d="M25.98 134.482V120.482H27.56V126.702H35.64V120.482H37.22V134.482H35.64V128.182H27.56V134.482H25.98ZM43.9953 134.702C42.0753 134.702 40.1353 133.622 40.1353 131.482V131.442C40.1353 129.282 41.9353 128.102 44.5553 128.102C45.8953 128.102 46.7953 128.282 47.7353 128.542V128.182C47.7353 126.322 46.5953 125.362 44.6553 125.362C43.4353 125.362 42.4753 125.662 41.5153 126.122L41.0553 124.862C42.1953 124.322 43.2953 124.002 44.8153 124.002C46.2753 124.002 47.3953 124.382 48.1553 125.142C48.8553 125.842 49.2153 126.862 49.2153 128.162V134.482H47.7353V132.922C47.0153 133.862 45.8353 134.702 43.9953 134.702ZM44.2953 133.482C46.2153 133.482 47.7553 132.322 47.7553 130.682V129.682C46.9753 129.462 45.9953 129.242 44.7153 129.242C42.7753 129.242 41.6953 130.082 41.6953 131.382V131.422C41.6953 132.722 42.9153 133.482 44.2953 133.482ZM52.4973 134.482V124.142H54.0373V133.082H59.2573V124.142H60.7773V133.082H65.9973V124.142H67.5373V134.482H52.4973ZM75.4939 134.722C72.6739 134.722 70.3339 132.542 70.3339 129.342V129.302C70.3339 126.322 72.4139 123.922 75.2939 123.922C78.3539 123.922 80.1139 126.362 80.1139 129.382C80.1139 129.602 80.1139 129.702 80.0939 129.882H71.8939C72.1139 132.122 73.6939 133.382 75.5339 133.382C76.9739 133.382 77.9339 132.802 78.7939 131.922L79.7539 132.782C78.7139 133.962 77.4739 134.722 75.4939 134.722ZM71.8939 128.742H78.5539C78.3939 126.882 77.3339 125.222 75.2539 125.222C73.4339 125.222 72.1139 126.742 71.8939 128.742ZM88.8059 134.482V124.142H98.0259V134.482H96.4859V125.542H90.3459V134.482H88.8059ZM101.462 137.682V124.142H103.002V126.222C103.862 125.002 105.042 123.922 106.962 123.922C109.442 123.922 111.902 125.882 111.902 129.282V129.322C111.902 132.682 109.462 134.702 106.962 134.702C105.042 134.702 103.802 133.682 103.002 132.502V137.682H101.462ZM106.682 133.322C108.682 133.322 110.322 131.842 110.322 129.342V129.302C110.322 126.842 108.662 125.302 106.682 125.302C104.762 125.302 102.942 126.942 102.942 129.282V129.322C102.942 131.722 104.762 133.322 106.682 133.322ZM114.743 134.482V124.142H116.283V132.162L122.563 124.142H124.043V134.482H122.523V126.442L116.183 134.482H114.743ZM132.577 124.062L137.277 134.482H135.557L131.857 125.962L128.137 134.482H126.477L131.157 124.062H132.577ZM143.897 134.722C140.797 134.722 138.537 132.282 138.537 129.362V129.322C138.537 126.382 140.797 123.922 143.937 123.922C147.057 123.922 149.317 126.362 149.317 129.282V129.322C149.317 132.262 147.017 134.722 143.897 134.722ZM143.937 133.342C146.177 133.342 147.737 131.522 147.737 129.362V129.322C147.737 127.102 146.077 125.282 143.897 125.282C141.657 125.282 140.117 127.102 140.117 129.282V129.322C140.117 131.542 141.757 133.342 143.937 133.342ZM159.319 124.142L159.299 128.582H161.059L164.799 124.142H166.659L162.259 129.242L166.799 134.482H164.939L161.059 129.942H159.299L159.319 134.482H157.799L157.819 129.942H156.019L152.179 134.482H150.319L154.859 129.262L150.459 124.142H152.339L156.079 128.582H157.819L157.799 124.142H159.319ZM172.974 134.722C170.154 134.722 167.814 132.542 167.814 129.342V129.302C167.814 126.322 169.894 123.922 172.774 123.922C175.834 123.922 177.594 126.362 177.594 129.382C177.594 129.602 177.594 129.702 177.574 129.882H169.374C169.594 132.122 171.174 133.382 173.014 133.382C174.454 133.382 175.414 132.802 176.274 131.922L177.234 132.782C176.194 133.962 174.954 134.722 172.974 134.722ZM169.374 128.742H176.034C175.874 126.882 174.814 125.222 172.734 125.222C170.914 125.222 169.594 126.742 169.374 128.742ZM180.29 134.482V124.142H181.83V128.562H188.01V124.142H189.53V134.482H188.01V129.962H181.83V134.482H180.29ZM192.986 134.482V124.142H194.526V132.162L200.806 124.142H202.286V134.482H200.766V126.442L194.426 134.482H192.986ZM210.26 134.722C207.44 134.722 205.1 132.542 205.1 129.342V129.302C205.1 126.322 207.18 123.922 210.06 123.922C213.12 123.922 214.88 126.362 214.88 129.382C214.88 129.602 214.88 129.702 214.86 129.882H206.66C206.88 132.122 208.46 133.382 210.3 133.382C211.74 133.382 212.7 132.802 213.56 131.922L214.52 132.782C213.48 133.962 212.24 134.722 210.26 134.722ZM206.66 128.742H213.32C213.16 126.882 212.1 125.222 210.02 125.222C208.2 125.222 206.88 126.742 206.66 128.742ZM223.572 134.482V124.142H232.792V134.482H231.252V125.542H225.112V134.482H223.572ZM236.228 137.682V124.142H237.768V126.222C238.628 125.002 239.808 123.922 241.728 123.922C244.208 123.922 246.668 125.882 246.668 129.282V129.322C246.668 132.682 244.228 134.702 241.728 134.702C239.808 134.702 238.568 133.682 237.768 132.502V137.682H236.228ZM241.448 133.322C243.448 133.322 245.088 131.842 245.088 129.342V129.302C245.088 126.842 243.428 125.302 241.448 125.302C239.528 125.302 237.708 126.942 237.708 129.282V129.322C237.708 131.722 239.528 133.322 241.448 133.322ZM254.029 134.722C251.209 134.722 248.869 132.542 248.869 129.342V129.302C248.869 126.322 250.949 123.922 253.829 123.922C256.889 123.922 258.649 126.362 258.649 129.382C258.649 129.602 258.649 129.702 258.629 129.882H250.429C250.649 132.122 252.229 133.382 254.069 133.382C255.509 133.382 256.469 132.802 257.329 131.922L258.289 132.782C257.249 133.962 256.009 134.722 254.029 134.722ZM250.429 128.742H257.089C256.929 126.882 255.869 125.222 253.789 125.222C251.969 125.222 250.649 126.742 250.429 128.742ZM266.672 124.062L270.712 133.082H271.892V137.222H270.492V134.482H261.252V137.222H259.852V133.082H261.032L265.072 124.062H266.672ZM265.872 125.602L262.612 133.122H269.072L265.872 125.602ZM279.14 124.062L283.84 134.482H282.12L278.42 125.962L274.7 134.482H273.04L277.72 124.062H279.14ZM289.327 134.702C287.407 134.702 285.467 133.622 285.467 131.482V131.442C285.467 129.282 287.267 128.102 289.887 128.102C291.227 128.102 292.127 128.282 293.067 128.542V128.182C293.067 126.322 291.927 125.362 289.987 125.362C288.767 125.362 287.807 125.662 286.847 126.122L286.387 124.862C287.527 124.322 288.627 124.002 290.147 124.002C291.607 124.002 292.727 124.382 293.487 125.142C294.187 125.842 294.547 126.862 294.547 128.162V134.482H293.067V132.922C292.347 133.862 291.167 134.702 289.327 134.702ZM289.627 133.482C291.547 133.482 293.087 132.322 293.087 130.682V129.682C292.307 129.462 291.327 129.242 290.047 129.242C288.107 129.242 287.027 130.082 287.027 131.382V131.422C287.027 132.722 288.247 133.482 289.627 133.482ZM297.829 134.482V124.142H305.349V125.542H299.369V134.482H297.829ZM309.855 134.702C307.935 134.702 305.995 133.622 305.995 131.482V131.442C305.995 129.282 307.795 128.102 310.415 128.102C311.755 128.102 312.655 128.282 313.595 128.542V128.182C313.595 126.322 312.455 125.362 310.515 125.362C309.295 125.362 308.335 125.662 307.375 126.122L306.915 124.862C308.055 124.322 309.155 124.002 310.675 124.002C312.135 124.002 313.255 124.382 314.015 125.142C314.715 125.842 315.075 126.862 315.075 128.162V134.482H313.595V132.922C312.875 133.862 311.695 134.702 309.855 134.702ZM310.155 133.482C312.075 133.482 313.615 132.322 313.615 130.682V129.682C312.835 129.462 311.855 129.242 310.575 129.242C308.635 129.242 307.555 130.082 307.555 131.382V131.422C307.555 132.722 308.775 133.482 310.155 133.482ZM322.877 134.722C320.057 134.722 317.717 132.542 317.717 129.342V129.302C317.717 126.322 319.797 123.922 322.677 123.922C325.737 123.922 327.497 126.362 327.497 129.382C327.497 129.602 327.497 129.702 327.477 129.882H319.277C319.497 132.122 321.077 133.382 322.917 133.382C324.357 133.382 325.317 132.802 326.177 131.922L327.137 132.782C326.097 133.962 324.857 134.722 322.877 134.722ZM319.277 128.742H325.937C325.777 126.882 324.717 125.222 322.637 125.222C320.817 125.222 319.497 126.742 319.277 128.742ZM332.743 134.482V125.522H328.603V124.142H338.443V125.522H334.283V134.482H332.743ZM30.14 160.762L33.46 152.142H35.1L30.76 162.822C29.88 164.962 28.86 165.742 27.32 165.742C26.46 165.742 25.82 165.562 25.12 165.222L25.64 164.002C26.14 164.262 26.6 164.382 27.26 164.382C28.2 164.382 28.76 163.902 29.38 162.442L24.68 152.142H26.38L30.14 160.762ZM37.5364 162.482V152.142H39.0764V156.562H45.2564V152.142H46.7764V162.482H45.2564V157.962H39.0764V162.482H37.5364ZM50.2317 162.482V152.142H51.7717V160.162L58.0517 152.142H59.5317V162.482H58.0117V154.442L51.6717 162.482H50.2317ZM64.5256 152.142V156.582H66.4056L70.2656 152.142H72.1856L67.6456 157.202L72.3056 162.482H70.3856L66.4456 157.942H64.5256V162.482H62.9856V152.142H64.5256ZM77.3156 162.702C75.3956 162.702 73.4556 161.622 73.4556 159.482V159.442C73.4556 157.282 75.2556 156.102 77.8756 156.102C79.2156 156.102 80.1156 156.282 81.0556 156.542V156.182C81.0556 154.322 79.9156 153.362 77.9756 153.362C76.7556 153.362 75.7956 153.662 74.8356 154.122L74.3756 152.862C75.5156 152.322 76.6156 152.002 78.1356 152.002C79.5956 152.002 80.7156 152.382 81.4756 153.142C82.1756 153.842 82.5356 154.862 82.5356 156.162V162.482H81.0556V160.922C80.3356 161.862 79.1556 162.702 77.3156 162.702ZM77.6156 161.482C79.5356 161.482 81.0756 160.322 81.0756 158.682V157.682C80.2956 157.462 79.3156 157.242 78.0356 157.242C76.0956 157.242 75.0156 158.082 75.0156 159.382V159.422C75.0156 160.722 76.2356 161.482 77.6156 161.482ZM90.8977 152.062L95.5977 162.482H93.8777L90.1777 153.962L86.4577 162.482H84.7977L89.4777 152.062H90.8977ZM98.0247 162.482V152.142H99.5647V155.702H102.725C105.265 155.702 106.785 156.982 106.785 159.062V159.102C106.785 161.122 105.305 162.482 102.665 162.482H98.0247ZM99.5647 161.162H102.645C104.405 161.162 105.225 160.382 105.225 159.082V159.062C105.225 157.842 104.405 156.982 102.665 157.002H99.5647V161.162ZM109.314 162.482V152.142H110.854V156.562H117.034V152.142H118.554V162.482H117.034V157.962H110.854V162.482H109.314ZM123.549 152.142V155.702H126.709C129.249 155.702 130.769 156.982 130.769 159.062V159.102C130.769 161.122 129.289 162.482 126.649 162.482H122.009V152.142H123.549ZM123.549 157.002V161.162H126.629C128.389 161.162 129.209 160.382 129.209 159.082V159.062C129.209 157.842 128.389 156.982 126.649 157.002H123.549ZM132.669 162.482V152.142H134.209V162.482H132.669ZM142.174 162.722C139.354 162.722 137.014 160.542 137.014 157.342V157.302C137.014 154.322 139.094 151.922 141.974 151.922C145.034 151.922 146.794 154.362 146.794 157.382C146.794 157.602 146.794 157.702 146.774 157.882H138.574C138.794 160.122 140.374 161.382 142.214 161.382C143.654 161.382 144.614 160.802 145.474 159.922L146.434 160.782C145.394 161.962 144.154 162.722 142.174 162.722ZM138.574 156.742H145.234C145.074 154.882 144.014 153.222 141.934 153.222C140.114 153.222 138.794 154.742 138.574 156.742ZM155.486 162.482V152.142H157.026V160.162L163.306 152.142H164.786V162.482H163.266V154.442L156.926 162.482H155.486ZM168.24 162.482V152.142H169.78V156.562H175.96V152.142H177.48V162.482H175.96V157.962H169.78V162.482H168.24ZM185.595 162.722C182.555 162.722 180.295 160.262 180.295 157.362V157.322C180.295 154.382 182.555 151.922 185.595 151.922C187.555 151.922 188.755 152.722 189.735 153.762L188.715 154.842C187.895 153.982 186.995 153.282 185.575 153.282C183.475 153.282 181.875 155.042 181.875 157.282V157.322C181.875 159.562 183.515 161.342 185.675 161.342C187.015 161.342 188.015 160.682 188.835 159.802L189.815 160.722C188.775 161.902 187.535 162.722 185.595 162.722ZM195.068 162.482V153.522H190.928V152.142H200.768V153.522H196.608V162.482H195.068ZM203.044 165.682V152.142H204.584V154.222C205.444 153.002 206.624 151.922 208.544 151.922C211.024 151.922 213.484 153.882 213.484 157.282V157.322C213.484 160.682 211.044 162.702 208.544 162.702C206.624 162.702 205.384 161.682 204.584 160.502V165.682H203.044ZM208.264 161.322C210.264 161.322 211.904 159.842 211.904 157.342V157.302C211.904 154.842 210.244 153.302 208.264 153.302C206.344 153.302 204.524 154.942 204.524 157.282V157.322C204.524 159.722 206.344 161.322 208.264 161.322ZM220.238 160.762L223.558 152.142H225.198L220.858 162.822C219.978 164.962 218.958 165.742 217.418 165.742C216.558 165.742 215.918 165.562 215.218 165.222L215.738 164.002C216.238 164.262 216.698 164.382 217.358 164.382C218.298 164.382 218.858 163.902 219.478 162.442L214.778 152.142H216.478L220.238 160.762ZM227.634 162.482V152.142H229.254L233.174 157.942L237.074 152.142H238.674V162.482H237.134V154.542L233.174 160.282H233.114L229.154 154.562V162.482H227.634ZM246.646 162.722C243.826 162.722 241.486 160.542 241.486 157.342V157.302C241.486 154.322 243.566 151.922 246.446 151.922C249.506 151.922 251.266 154.362 251.266 157.382C251.266 157.602 251.266 157.702 251.246 157.882H243.046C243.266 160.122 244.846 161.382 246.686 161.382C248.126 161.382 249.086 160.802 249.946 159.922L250.906 160.782C249.866 161.962 248.626 162.722 246.646 162.722ZM243.046 156.742H249.706C249.546 154.882 248.486 153.222 246.406 153.222C244.586 153.222 243.266 154.742 243.046 156.742ZM253.962 162.482V152.142H255.502V156.562H261.682V152.142H263.202V162.482H261.682V157.962H255.502V162.482H253.962ZM269.658 162.482V153.522H265.518V152.142H275.358V153.522H271.198V162.482H269.658ZM279.174 152.142V155.702H282.334C284.874 155.702 286.394 156.982 286.394 159.062V159.102C286.394 161.122 284.914 162.482 282.274 162.482H277.634V152.142H279.174ZM279.174 157.002V161.162H282.254C284.014 161.162 284.834 160.382 284.834 159.082V159.062C284.834 157.842 284.014 156.982 282.274 157.002H279.174ZM288.294 162.482V152.142H289.834V162.482H288.294ZM299.275 162.482V152.142H300.815V160.162L307.095 152.142H308.575V162.482H307.055V154.442L300.715 162.482H299.275ZM25.72 193.682V180.142H27.26V182.222C28.12 181.002 29.3 179.922 31.22 179.922C33.7 179.922 36.16 181.882 36.16 185.282V185.322C36.16 188.682 33.72 190.702 31.22 190.702C29.3 190.702 28.06 189.682 27.26 188.502V193.682H25.72ZM30.94 189.322C32.94 189.322 34.58 187.842 34.58 185.342V185.302C34.58 182.842 32.92 181.302 30.94 181.302C29.02 181.302 27.2 182.942 27.2 185.282V185.322C27.2 187.722 29.02 189.322 30.94 189.322ZM43.5213 190.722C40.7013 190.722 38.3613 188.542 38.3613 185.342V185.302C38.3613 182.322 40.4413 179.922 43.3213 179.922C46.3813 179.922 48.1413 182.362 48.1413 185.382C48.1413 185.602 48.1413 185.702 48.1213 185.882H39.9212C40.1413 188.122 41.7213 189.382 43.5613 189.382C45.0013 189.382 45.9613 188.802 46.8213 187.922L47.7813 188.782C46.7413 189.962 45.5013 190.722 43.5213 190.722ZM39.9212 184.742H46.5813C46.4213 182.882 45.3613 181.222 43.2813 181.222C41.4613 181.222 40.1413 182.742 39.9212 184.742ZM55.4972 190.722C52.4572 190.722 50.1972 188.262 50.1972 185.362V185.322C50.1972 182.382 52.4572 179.922 55.4972 179.922C57.4572 179.922 58.6572 180.722 59.6372 181.762L58.6172 182.842C57.7972 181.982 56.8972 181.282 55.4772 181.282C53.3772 181.282 51.7772 183.042 51.7772 185.282V185.322C51.7772 187.562 53.4172 189.342 55.5772 189.342C56.9172 189.342 57.9172 188.682 58.7372 187.802L59.7172 188.722C58.6772 189.902 57.4372 190.722 55.4972 190.722ZM66.5853 188.762L69.9053 180.142H71.5453L67.2053 190.822C66.3253 192.962 65.3053 193.742 63.7653 193.742C62.9053 193.742 62.2653 193.562 61.5653 193.222L62.0853 192.002C62.5853 192.262 63.0453 192.382 63.7053 192.382C64.6453 192.382 65.2053 191.902 65.8253 190.442L61.1253 180.142H62.8253L66.5853 188.762ZM73.9817 193.682V180.142H75.5217V182.222C76.3817 181.002 77.5617 179.922 79.4817 179.922C81.9617 179.922 84.4217 181.882 84.4217 185.282V185.322C84.4217 188.682 81.9817 190.702 79.4817 190.702C77.5617 190.702 76.3217 189.682 75.5217 188.502V193.682H73.9817ZM79.2017 189.322C81.2017 189.322 82.8417 187.842 82.8417 185.342V185.302C82.8417 182.842 81.1817 181.302 79.2017 181.302C77.2817 181.302 75.4617 182.942 75.4617 185.282V185.322C75.4617 187.722 77.2817 189.322 79.2017 189.322ZM91.923 190.722C88.883 190.722 86.623 188.262 86.623 185.362V185.322C86.623 182.382 88.883 179.922 91.923 179.922C93.883 179.922 95.083 180.722 96.063 181.762L95.043 182.842C94.223 181.982 93.323 181.282 91.903 181.282C89.803 181.282 88.203 183.042 88.203 185.282V185.322C88.203 187.562 89.843 189.342 92.003 189.342C93.343 189.342 94.343 188.682 95.163 187.802L96.143 188.722C95.103 189.902 93.863 190.722 91.923 190.722ZM100.229 180.142V183.702H103.389C105.929 183.702 107.449 184.982 107.449 187.062V187.102C107.449 189.122 105.969 190.482 103.329 190.482H98.6888V180.142H100.229ZM100.229 185.002V189.162H103.309C105.069 189.162 105.889 188.382 105.889 187.082V187.062C105.889 185.842 105.069 184.982 103.329 185.002H100.229ZM109.349 190.482V180.142H110.889V190.482H109.349ZM125.949 180.062L129.989 189.082H131.169V193.222H129.769V190.482H120.529V193.222H119.129V189.082H120.309L124.349 180.062H125.949ZM125.149 181.602L121.889 189.122H128.349L125.149 181.602ZM138.417 180.062L143.117 190.482H141.397L137.697 181.962L133.977 190.482H132.317L136.997 180.062H138.417ZM146.449 190.482H144.609L147.629 186.502C145.969 186.122 144.989 185.022 144.989 183.422V183.402C144.989 181.422 146.569 180.142 149.029 180.142H154.029V190.482H152.509V186.642H149.309L146.449 190.482ZM152.509 181.422H149.049C147.509 181.422 146.529 182.222 146.529 183.402V183.422C146.529 184.622 147.449 185.422 149.049 185.402H152.509V181.422ZM163.493 190.482V180.142H168.713C170.873 180.142 172.213 181.122 172.213 182.802V182.822C172.213 184.082 171.473 184.802 170.353 185.182C171.713 185.562 172.613 186.262 172.613 187.682V187.702C172.613 189.482 171.113 190.502 168.713 190.482H163.493ZM165.013 184.662H168.393C169.893 184.662 170.653 183.982 170.653 182.942V182.922C170.653 181.982 169.913 181.362 168.533 181.382H165.013V184.662ZM165.013 185.862V189.242H168.673C170.213 189.242 171.073 188.602 171.073 187.622V187.602C171.073 186.542 170.193 185.842 168.513 185.862H165.013ZM178.507 190.702C176.587 190.702 174.647 189.622 174.647 187.482V187.442C174.647 185.282 176.447 184.102 179.067 184.102C180.407 184.102 181.307 184.282 182.247 184.542V184.182C182.247 182.322 181.107 181.362 179.167 181.362C177.947 181.362 176.987 181.662 176.027 182.122L175.567 180.862C176.707 180.322 177.807 180.002 179.327 180.002C180.787 180.002 181.907 180.382 182.667 181.142C183.367 181.842 183.727 182.862 183.727 184.162V190.482H182.247V188.922C181.527 189.862 180.347 190.702 178.507 190.702ZM178.807 189.482C180.727 189.482 182.267 188.322 182.267 186.682V185.682C181.487 185.462 180.507 185.242 179.227 185.242C177.287 185.242 176.207 186.082 176.207 187.382V187.422C176.207 188.722 177.427 189.482 178.807 189.482ZM187.009 190.482V180.142H188.549V189.082H193.769V180.142H195.289V189.082H200.509V180.142H202.049V190.482H187.009ZM210.006 190.722C207.186 190.722 204.846 188.542 204.846 185.342V185.302C204.846 182.322 206.926 179.922 209.806 179.922C212.866 179.922 214.626 182.362 214.626 185.382C214.626 185.602 214.626 185.702 214.606 185.882H206.406C206.626 188.122 208.206 189.382 210.046 189.382C211.486 189.382 212.446 188.802 213.306 187.922L214.266 188.782C213.226 189.962 211.986 190.722 210.006 190.722ZM206.406 184.742H213.066C212.906 182.882 211.846 181.222 209.766 181.222C207.946 181.222 206.626 182.742 206.406 184.742ZM217.322 190.482V180.142H224.842V181.542H218.862V190.482H217.322ZM231.163 190.722C228.063 190.722 225.803 188.282 225.803 185.362V185.322C225.803 182.382 228.063 179.922 231.203 179.922C234.323 179.922 236.583 182.362 236.583 185.282V185.322C236.583 188.262 234.283 190.722 231.163 190.722ZM231.203 189.342C233.443 189.342 235.003 187.522 235.003 185.362V185.322C235.003 183.102 233.343 181.282 231.163 181.282C228.923 181.282 227.383 183.102 227.383 185.282V185.322C227.383 187.542 229.023 189.342 231.203 189.342ZM245.368 193.682V180.142H246.908V182.222C247.768 181.002 248.948 179.922 250.868 179.922C253.348 179.922 255.808 181.882 255.808 185.282V185.322C255.808 188.682 253.368 190.702 250.868 190.702C248.948 190.702 247.708 189.682 246.908 188.502V193.682H245.368ZM250.588 189.322C252.588 189.322 254.228 187.842 254.228 185.342V185.302C254.228 182.842 252.568 181.302 250.588 181.302C248.668 181.302 246.848 182.942 246.848 185.282V185.322C246.848 187.722 248.668 189.322 250.588 189.322ZM263.37 190.722C260.27 190.722 258.01 188.282 258.01 185.362V185.322C258.01 182.382 260.27 179.922 263.41 179.922C266.53 179.922 268.79 182.362 268.79 185.282V185.322C268.79 188.262 266.49 190.722 263.37 190.722ZM263.41 189.342C265.65 189.342 267.21 187.522 267.21 185.362V185.322C267.21 183.102 265.55 181.282 263.37 181.282C261.13 181.282 259.59 183.102 259.59 185.282V185.322C259.59 187.542 261.23 189.342 263.41 189.342ZM276.239 190.722C273.199 190.722 270.939 188.262 270.939 185.362V185.322C270.939 182.382 273.199 179.922 276.239 179.922C278.199 179.922 279.399 180.722 280.379 181.762L279.359 182.842C278.539 181.982 277.639 181.282 276.219 181.282C274.119 181.282 272.519 183.042 272.519 185.282V185.322C272.519 187.562 274.159 189.342 276.319 189.342C277.659 189.342 278.659 188.682 279.479 187.802L280.459 188.722C279.419 189.902 278.179 190.722 276.239 190.722ZM285.712 190.482V181.522H281.572V180.142H291.412V181.522H287.252V190.482H285.712ZM296.163 190.702C294.243 190.702 292.303 189.622 292.303 187.482V187.442C292.303 185.282 294.103 184.102 296.723 184.102C298.063 184.102 298.963 184.282 299.903 184.542V184.182C299.903 182.322 298.763 181.362 296.823 181.362C295.603 181.362 294.643 181.662 293.683 182.122L293.223 180.862C294.363 180.322 295.463 180.002 296.983 180.002C298.443 180.002 299.563 180.382 300.323 181.142C301.023 181.842 301.383 182.862 301.383 184.162V190.482H299.903V188.922C299.183 189.862 298.003 190.702 296.163 190.702ZM296.463 189.482C298.383 189.482 299.923 188.322 299.923 186.682V185.682C299.143 185.462 298.163 185.242 296.883 185.242C294.943 185.242 293.863 186.082 293.863 187.382V187.422C293.863 188.722 295.083 189.482 296.463 189.482ZM304.465 190.482V188.382H306.305V190.482H304.465Z" fill="black"/>
<rect x="400.5" y="0.982422" width="383" height="227" rx="15.5" stroke="#DADADA"/>
<path d="M453.792 81.3576H440.25C435.763 81.3576 432.125 77.7199 432.125 73.2326V50.2118C432.125 46.4723 435.156 43.4409 438.896 43.4409H474.104C477.844 43.4409 480.875 46.4723 480.875 50.2118V54.2743" stroke="#3E3838" stroke-width="2" stroke-linecap="round" stroke-linejoin="round"/>
<path d="M465.979 43.4408V38.0241C465.979 35.0325 463.554 32.6074 460.562 32.6074H452.437C449.446 32.6074 447.021 35.0325 447.021 38.0241V43.4408" stroke="#48A7F8" stroke-width="2" stroke-linecap="round" stroke-linejoin="round"/>
<path d="M456.5 59.6906H432.125" stroke="#48A7F8" stroke-width="2" stroke-linecap="round" stroke-linejoin="round"/>
<circle cx="472.75" cy="73.2323" r="10.8333" stroke="#3E3838" stroke-width="1.5" stroke-linecap="round" stroke-linejoin="round"/>
<path d="M469.365 72.9264L472.073 75.6348L476.135 71.5723" stroke="#48A7F8" stroke-width="2" stroke-linecap="round" stroke-linejoin="round"/>
<path d="M425.98 134.482V120.482H435.86V121.922H427.54V126.442H431.94C434.96 126.442 437.04 127.702 437.04 130.322V130.362C437.04 133.162 434.66 134.482 431.72 134.482H425.98ZM427.54 133.042H431.78C433.9 133.042 435.46 132.122 435.46 130.422V130.382C435.46 128.622 433.94 127.842 431.86 127.842H427.54V133.042ZM443.89 132.762L447.21 124.142H448.85L444.51 134.822C443.63 136.962 442.61 137.742 441.07 137.742C440.21 137.742 439.57 137.562 438.87 137.222L439.39 136.002C439.89 136.262 440.35 136.382 441.01 136.382C441.95 136.382 442.51 135.902 443.13 134.442L438.43 124.142H440.13L443.89 132.762ZM455.813 124.062L459.853 133.082H461.033V137.222H459.633V134.482H450.393V137.222H448.993V133.082H450.173L454.213 124.062H455.813ZM455.013 125.602L451.753 133.122H458.213L455.013 125.602ZM463.279 134.482V124.142H464.819V127.702H467.979C470.519 127.702 472.039 128.982 472.039 131.062V131.102C472.039 133.122 470.559 134.482 467.919 134.482H463.279ZM464.819 133.162H467.899C469.659 133.162 470.479 132.382 470.479 131.082V131.062C470.479 129.842 469.659 128.982 467.919 129.002H464.819V133.162ZM476.435 134.482V125.522H472.295V124.142H482.135V125.522H477.975V134.482H476.435ZM488.287 134.722C485.467 134.722 483.127 132.542 483.127 129.342V129.302C483.127 126.322 485.207 123.922 488.087 123.922C491.147 123.922 492.907 126.362 492.907 129.382C492.907 129.602 492.907 129.702 492.887 129.882H484.687C484.907 132.122 486.487 133.382 488.327 133.382C489.767 133.382 490.727 132.802 491.587 131.922L492.547 132.782C491.507 133.962 490.267 134.722 488.287 134.722ZM484.687 128.742H491.347C491.187 126.882 490.127 125.222 488.047 125.222C486.227 125.222 484.907 126.742 484.687 128.742ZM501.599 134.482V124.142H506.819C508.979 124.142 510.319 125.122 510.319 126.802V126.822C510.319 128.082 509.579 128.802 508.459 129.182C509.819 129.562 510.719 130.262 510.719 131.682V131.702C510.719 133.482 509.219 134.502 506.819 134.482H501.599ZM503.119 128.662H506.499C507.999 128.662 508.759 127.982 508.759 126.942V126.922C508.759 125.982 508.019 125.362 506.639 125.382H503.119V128.662ZM503.119 129.862V133.242H506.779C508.319 133.242 509.179 132.602 509.179 131.622V131.602C509.179 130.542 508.299 129.842 506.619 129.862H503.119ZM521.069 124.142V128.582H522.949L526.809 124.142H528.729L524.189 129.202L528.849 134.482H526.929L522.989 129.942H521.069V134.482H519.529V124.142H521.069ZM535.218 132.762L538.538 124.142H540.178L535.838 134.822C534.958 136.962 533.938 137.742 532.398 137.742C531.538 137.742 530.898 137.562 530.198 137.222L530.718 136.002C531.218 136.262 531.678 136.382 532.338 136.382C533.278 136.382 533.838 135.902 534.458 134.442L529.758 124.142H531.458L535.218 132.762ZM542.615 137.682V124.142H544.155V126.222C545.015 125.002 546.195 123.922 548.115 123.922C550.595 123.922 553.055 125.882 553.055 129.282V129.322C553.055 132.682 550.615 134.702 548.115 134.702C546.195 134.702 544.955 133.682 544.155 132.502V137.682H542.615ZM547.835 133.322C549.835 133.322 551.475 131.842 551.475 129.342V129.302C551.475 126.842 549.815 125.302 547.835 125.302C545.915 125.302 544.095 126.942 544.095 129.282V129.322C544.095 131.722 545.915 133.322 547.835 133.322ZM560.556 134.722C557.516 134.722 555.256 132.262 555.256 129.362V129.322C555.256 126.382 557.516 123.922 560.556 123.922C562.516 123.922 563.716 124.722 564.696 125.762L563.676 126.842C562.856 125.982 561.956 125.282 560.536 125.282C558.436 125.282 556.836 127.042 556.836 129.282V129.322C556.836 131.562 558.476 133.342 560.636 133.342C561.976 133.342 562.976 132.682 563.796 131.802L564.776 132.722C563.736 133.902 562.496 134.722 560.556 134.722ZM571.549 134.722C568.729 134.722 566.389 132.542 566.389 129.342V129.302C566.389 126.322 568.469 123.922 571.349 123.922C574.409 123.922 576.169 126.362 576.169 129.382C576.169 129.602 576.169 129.702 576.149 129.882H567.949C568.169 132.122 569.749 133.382 571.589 133.382C573.029 133.382 573.989 132.802 574.849 131.922L575.809 132.782C574.769 133.962 573.529 134.722 571.549 134.722ZM567.949 128.742H574.609C574.449 126.882 573.389 125.222 571.309 125.222C569.489 125.222 568.169 126.742 567.949 128.742ZM584.861 134.482V124.142H594.081V134.482H592.541V125.542H586.401V134.482H584.861ZM602.237 134.722C599.137 134.722 596.877 132.282 596.877 129.362V129.322C596.877 126.382 599.137 123.922 602.277 123.922C605.397 123.922 607.657 126.362 607.657 129.282V129.322C607.657 132.262 605.357 134.722 602.237 134.722ZM602.277 133.342C604.517 133.342 606.077 131.522 606.077 129.362V129.322C606.077 127.102 604.417 125.282 602.237 125.282C599.997 125.282 598.457 127.102 598.457 129.282V129.322C598.457 131.542 600.097 133.342 602.277 133.342ZM615.107 134.722C612.067 134.722 609.807 132.262 609.807 129.362V129.322C609.807 126.382 612.067 123.922 615.107 123.922C617.067 123.922 618.267 124.722 619.247 125.762L618.227 126.842C617.407 125.982 616.507 125.282 615.087 125.282C612.987 125.282 611.387 127.042 611.387 129.282V129.322C611.387 131.562 613.027 133.342 615.187 133.342C616.527 133.342 617.527 132.682 618.347 131.802L619.327 132.722C618.287 133.902 617.047 134.722 615.107 134.722ZM626.894 124.062L631.594 134.482H629.874L626.174 125.962L622.454 134.482H620.794L625.474 124.062H626.894ZM638.013 134.722C635.193 134.722 632.853 132.542 632.853 129.342V129.302C632.853 126.322 634.933 123.922 637.813 123.922C640.873 123.922 642.633 126.362 642.633 129.382C642.633 129.602 642.633 129.702 642.613 129.882H634.413C634.633 132.122 636.213 133.382 638.053 133.382C639.493 133.382 640.453 132.802 641.313 131.922L642.273 132.782C641.233 133.962 639.993 134.722 638.013 134.722ZM634.413 128.742H641.073C640.913 126.882 639.853 125.222 637.773 125.222C635.953 125.222 634.633 126.742 634.413 128.742ZM650.656 124.062L654.696 133.082H655.876V137.222H654.476V134.482H645.236V137.222H643.836V133.082H645.016L649.056 124.062H650.656ZM649.856 125.602L646.596 133.122H653.056L649.856 125.602ZM658.122 134.482V124.142H659.662V128.562H665.842V124.142H667.362V134.482H665.842V129.962H659.662V134.482H658.122ZM670.818 134.482V124.142H672.358V132.162L678.638 124.142H680.118V134.482H678.598V126.442L672.258 134.482H670.818ZM684.552 124.142L687.592 128.182L690.672 124.142H692.392L688.472 129.202L692.552 134.482H690.772L687.572 130.222L684.352 134.482H682.632L686.672 129.222L682.792 124.142H684.552ZM428.72 162.482V153.522H424.58V152.142H434.42V153.522H430.26V162.482H428.72ZM440.572 162.722C437.752 162.722 435.412 160.542 435.412 157.342V157.302C435.412 154.322 437.492 151.922 440.372 151.922C443.432 151.922 445.192 154.362 445.192 157.382C445.192 157.602 445.192 157.702 445.172 157.882H436.972C437.192 160.122 438.772 161.382 440.612 161.382C442.052 161.382 443.012 160.802 443.872 159.922L444.832 160.782C443.792 161.962 442.552 162.722 440.572 162.722ZM436.972 156.742H443.632C443.472 154.882 442.412 153.222 440.332 153.222C438.512 153.222 437.192 154.742 436.972 156.742ZM447.888 162.482V152.142H449.428V156.562H455.608V152.142H457.128V162.482H455.608V157.962H449.428V162.482H447.888ZM466.203 152.062L470.243 161.082H471.423V165.222H470.023V162.482H460.783V165.222H459.383V161.082H460.563L464.603 152.062H466.203ZM465.403 153.602L462.143 161.122H468.603L465.403 153.602ZM477.584 162.722C474.764 162.722 472.424 160.542 472.424 157.342V157.302C472.424 154.322 474.504 151.922 477.384 151.922C480.444 151.922 482.204 154.362 482.204 157.382C482.204 157.602 482.204 157.702 482.184 157.882H473.984C474.204 160.122 475.784 161.382 477.624 161.382C479.064 161.382 480.024 160.802 480.884 159.922L481.844 160.782C480.804 161.962 479.564 162.722 477.584 162.722ZM473.984 156.742H480.644C480.484 154.882 479.424 153.222 477.344 153.222C475.524 153.222 474.204 154.742 473.984 156.742ZM484.9 162.482V152.142H486.44V156.562H492.62V152.142H494.14V162.482H492.62V157.962H486.44V162.482H484.9ZM506.635 165.222V162.482H497.595V152.142H499.135V161.082H505.275V152.142H506.815V161.082H508.035V165.222H506.635ZM510.564 162.482V152.142H512.104V160.162L518.384 152.142H519.864V162.482H518.344V154.442L512.004 162.482H510.564ZM523.318 162.482V152.142H524.858V160.162L531.138 152.142H532.618V162.482H531.098V154.442L524.758 162.482H523.318ZM527.958 150.622C526.278 150.622 525.138 149.722 524.998 148.122H526.118C526.358 148.862 526.938 149.382 527.958 149.382C528.978 149.382 529.558 148.862 529.798 148.122H530.918C530.778 149.722 529.638 150.622 527.958 150.622ZM542.068 162.482V152.142H547.288C549.448 152.142 550.788 153.122 550.788 154.802V154.822C550.788 156.082 550.048 156.802 548.928 157.182C550.288 157.562 551.188 158.262 551.188 159.682V159.702C551.188 161.482 549.688 162.502 547.288 162.482H542.068ZM543.588 156.662H546.968C548.468 156.662 549.228 155.982 549.228 154.942V154.922C549.228 153.982 548.488 153.362 547.108 153.382H543.588V156.662ZM543.588 157.862V161.242H547.248C548.788 161.242 549.648 160.602 549.648 159.622V159.602C549.648 158.542 548.768 157.842 547.088 157.862H543.588ZM564.717 162.722C561.617 162.722 559.357 160.282 559.357 157.362V157.322C559.357 154.382 561.617 151.922 564.757 151.922C567.877 151.922 570.137 154.362 570.137 157.282V157.322C570.137 160.262 567.837 162.722 564.717 162.722ZM564.757 161.342C566.997 161.342 568.557 159.522 568.557 157.362V157.322C568.557 155.102 566.897 153.282 564.717 153.282C562.477 153.282 560.937 155.102 560.937 157.282V157.322C560.937 159.542 562.577 161.342 564.757 161.342ZM577.767 162.722C576.167 162.722 574.987 162.182 574.127 161.322C573.067 160.262 572.487 158.642 572.487 156.462V156.442C572.487 151.022 574.267 148.902 578.107 148.262L581.547 147.682L581.827 149.102L578.327 149.682C575.447 150.162 574.307 151.462 573.987 154.582C574.847 153.302 576.307 152.502 578.147 152.502C581.167 152.502 583.047 154.642 583.047 157.422V157.442C583.047 160.322 580.927 162.722 577.767 162.722ZM577.787 161.362C579.967 161.362 581.467 159.662 581.467 157.482V157.462C581.467 155.282 580.067 153.762 577.927 153.762C575.647 153.762 574.047 155.282 574.047 157.422V157.442C574.047 159.782 575.707 161.362 577.787 161.362ZM590.409 152.062L595.109 162.482H593.389L589.689 153.962L585.969 162.482H584.309L588.989 152.062H590.409ZM600.597 162.702C598.677 162.702 596.737 161.622 596.737 159.482V159.442C596.737 157.282 598.537 156.102 601.157 156.102C602.497 156.102 603.397 156.282 604.337 156.542V156.182C604.337 154.322 603.197 153.362 601.257 153.362C600.037 153.362 599.077 153.662 598.117 154.122L597.657 152.862C598.797 152.322 599.897 152.002 601.417 152.002C602.877 152.002 603.997 152.382 604.757 153.142C605.457 153.842 605.817 154.862 605.817 156.162V162.482H604.337V160.922C603.617 161.862 602.437 162.702 600.597 162.702ZM600.897 161.482C602.817 161.482 604.357 160.322 604.357 158.682V157.682C603.577 157.462 602.597 157.242 601.317 157.242C599.377 157.242 598.297 158.082 598.297 159.382V159.422C598.297 160.722 599.517 161.482 600.897 161.482ZM613.759 162.722C610.719 162.722 608.459 160.262 608.459 157.362V157.322C608.459 154.382 610.719 151.922 613.759 151.922C615.719 151.922 616.919 152.722 617.899 153.762L616.879 154.842C616.059 153.982 615.159 153.282 613.739 153.282C611.639 153.282 610.039 155.042 610.039 157.282V157.322C610.039 159.562 611.679 161.342 613.839 161.342C615.179 161.342 616.179 160.682 616.999 159.802L617.979 160.722C616.939 161.902 615.699 162.722 613.759 162.722ZM623.232 162.482V153.522H619.092V152.142H628.932V153.522H624.772V162.482H623.232ZM631.208 162.482V152.142H632.748V160.162L639.028 152.142H640.508V162.482H638.988V154.442L632.648 162.482H631.208ZM430.38 190.722C427.34 190.722 425.08 188.262 425.08 185.362V185.322C425.08 182.382 427.34 179.922 430.38 179.922C432.34 179.922 433.54 180.722 434.52 181.762L433.5 182.842C432.68 181.982 431.78 181.282 430.36 181.282C428.26 181.282 426.66 183.042 426.66 185.282V185.322C426.66 187.562 428.3 189.342 430.46 189.342C431.8 189.342 432.8 188.682 433.62 187.802L434.6 188.722C433.56 189.902 432.32 190.722 430.38 190.722ZM440.226 190.702C438.306 190.702 436.366 189.622 436.366 187.482V187.442C436.366 185.282 438.166 184.102 440.786 184.102C442.126 184.102 443.026 184.282 443.966 184.542V184.182C443.966 182.322 442.826 181.362 440.886 181.362C439.666 181.362 438.706 181.662 437.746 182.122L437.286 180.862C438.426 180.322 439.526 180.002 441.046 180.002C442.506 180.002 443.626 180.382 444.386 181.142C445.086 181.842 445.446 182.862 445.446 184.162V190.482H443.966V188.922C443.246 189.862 442.066 190.702 440.226 190.702ZM440.526 189.482C442.446 189.482 443.986 188.322 443.986 186.682V185.682C443.206 185.462 442.226 185.242 440.946 185.242C439.006 185.242 437.926 186.082 437.926 187.382V187.422C437.926 188.722 439.146 189.482 440.526 189.482ZM448.728 190.482V180.142H450.348L454.268 185.942L458.168 180.142H459.768V190.482H458.228V182.542L454.268 188.282H454.208L450.248 182.562V190.482H448.728ZM467.94 190.722C464.84 190.722 462.58 188.282 462.58 185.362V185.322C462.58 182.382 464.84 179.922 467.98 179.922C471.1 179.922 473.36 182.362 473.36 185.282V185.322C473.36 188.262 471.06 190.722 467.94 190.722ZM467.98 189.342C470.22 189.342 471.78 187.522 471.78 185.362V185.322C471.78 183.102 470.12 181.282 467.94 181.282C465.7 181.282 464.16 183.102 464.16 185.282V185.322C464.16 187.542 465.8 189.342 467.98 189.342ZM476.15 193.682V180.142H477.69V182.222C478.55 181.002 479.73 179.922 481.65 179.922C484.13 179.922 486.59 181.882 486.59 185.282V185.322C486.59 188.682 484.15 190.702 481.65 190.702C479.73 190.702 478.49 189.682 477.69 188.502V193.682H476.15ZM481.37 189.322C483.37 189.322 485.01 187.842 485.01 185.342V185.302C485.01 182.842 483.35 181.302 481.37 181.302C479.45 181.302 477.63 182.942 477.63 185.282V185.322C477.63 187.722 479.45 189.322 481.37 189.322ZM492.511 190.702C490.591 190.702 488.651 189.622 488.651 187.482V187.442C488.651 185.282 490.451 184.102 493.071 184.102C494.411 184.102 495.311 184.282 496.251 184.542V184.182C496.251 182.322 495.111 181.362 493.171 181.362C491.951 181.362 490.991 181.662 490.031 182.122L489.571 180.862C490.711 180.322 491.811 180.002 493.331 180.002C494.791 180.002 495.911 180.382 496.671 181.142C497.371 181.842 497.731 182.862 497.731 184.162V190.482H496.251V188.922C495.531 189.862 494.351 190.702 492.511 190.702ZM492.811 189.482C494.731 189.482 496.271 188.322 496.271 186.682V185.682C495.491 185.462 494.511 185.242 493.231 185.242C491.291 185.242 490.211 186.082 490.211 187.382V187.422C490.211 188.722 491.431 189.482 492.811 189.482ZM500.093 189.322L500.893 188.182C501.913 188.902 503.233 189.382 504.693 189.382C506.593 189.382 507.713 188.682 507.713 187.582V187.562C507.713 186.462 506.613 185.882 504.833 185.882H502.513V184.642H504.813C506.493 184.642 507.433 183.962 507.433 182.922V182.902C507.433 181.882 506.473 181.222 504.773 181.222C503.493 181.222 502.253 181.642 501.033 182.502L500.233 181.422C501.513 180.482 502.973 179.922 504.813 179.922C507.453 179.922 508.993 181.102 508.993 182.782V182.802C508.993 184.182 507.993 184.882 506.913 185.202C508.193 185.462 509.273 186.282 509.273 187.662V187.682C509.273 189.342 507.653 190.722 504.693 190.722C502.833 190.722 501.273 190.182 500.093 189.322ZM512.107 190.482V180.142H517.327C519.487 180.142 520.827 181.122 520.827 182.802V182.822C520.827 184.082 520.087 184.802 518.967 185.182C520.327 185.562 521.227 186.262 521.227 187.682V187.702C521.227 189.482 519.727 190.502 517.327 190.482H512.107ZM513.627 184.662H517.007C518.507 184.662 519.267 183.982 519.267 182.942V182.922C519.267 181.982 518.527 181.362 517.147 181.382H513.627V184.662ZM513.627 185.862V189.242H517.287C518.827 189.242 519.687 188.602 519.687 187.622V187.602C519.687 186.542 518.807 185.842 517.127 185.862H513.627ZM524.04 190.482V180.142H525.58V188.162L531.86 180.142H533.34V190.482H531.82V182.442L525.48 190.482H524.04ZM539.794 190.482V181.522H535.654V180.142H545.494V181.522H541.334V190.482H539.794ZM547.771 190.482V180.142H549.311V188.162L555.591 180.142H557.071V190.482H555.551V182.442L549.211 190.482H547.771ZM561.645 190.482H559.805L562.825 186.502C561.165 186.122 560.185 185.022 560.185 183.422V183.402C560.185 181.422 561.765 180.142 564.225 180.142H569.225V190.482H567.705V186.642H564.505L561.645 190.482ZM567.705 181.422H564.245C562.705 181.422 561.725 182.222 561.725 183.402V183.422C561.725 184.622 562.645 185.422 564.245 185.402H567.705V181.422ZM578.689 190.482V180.142H580.229V188.162L586.509 180.142H587.989V190.482H586.469V182.442L580.129 190.482H578.689ZM598.979 180.142V184.582H600.859L604.719 180.142H606.639L602.099 185.202L606.759 190.482H604.839L600.899 185.942H598.979V190.482H597.439V180.142H598.979ZM611.769 190.702C609.849 190.702 607.909 189.622 607.909 187.482V187.442C607.909 185.282 609.709 184.102 612.329 184.102C613.669 184.102 614.569 184.282 615.509 184.542V184.182C615.509 182.322 614.369 181.362 612.429 181.362C611.209 181.362 610.249 181.662 609.289 182.122L608.829 180.862C609.969 180.322 611.069 180.002 612.589 180.002C614.049 180.002 615.169 180.382 615.929 181.142C616.629 181.842 616.989 182.862 616.989 184.162V190.482H615.509V188.922C614.789 189.862 613.609 190.702 611.769 190.702ZM612.069 189.482C613.989 189.482 615.529 188.322 615.529 186.682V185.682C614.749 185.462 613.769 185.242 612.489 185.242C610.549 185.242 609.469 186.082 609.469 187.382V187.422C609.469 188.722 610.689 189.482 612.069 189.482ZM620.271 193.682V180.142H621.811V182.222C622.671 181.002 623.851 179.922 625.771 179.922C628.251 179.922 630.711 181.882 630.711 185.282V185.322C630.711 188.682 628.271 190.702 625.771 190.702C623.851 190.702 622.611 189.682 621.811 188.502V193.682H620.271ZM625.491 189.322C627.491 189.322 629.131 187.842 629.131 185.342V185.302C629.131 182.842 627.471 181.302 625.491 181.302C623.571 181.302 621.751 182.942 621.751 185.282V185.322C621.751 187.722 623.571 189.322 625.491 189.322ZM633.552 190.482V180.142H635.092V183.702H638.252C640.792 183.702 642.312 184.982 642.312 187.062V187.102C642.312 189.122 640.832 190.482 638.192 190.482H633.552ZM635.092 189.162H638.172C639.932 189.162 640.752 188.382 640.752 187.082V187.062C640.752 185.842 639.932 184.982 638.192 185.002H635.092V189.162ZM649.361 190.722C646.541 190.722 644.201 188.542 644.201 185.342V185.302C644.201 182.322 646.281 179.922 649.161 179.922C652.221 179.922 653.981 182.362 653.981 185.382C653.981 185.602 653.981 185.702 653.961 185.882H645.761C645.981 188.122 647.561 189.382 649.401 189.382C650.841 189.382 651.801 188.802 652.661 187.922L653.621 188.782C652.581 189.962 651.341 190.722 649.361 190.722ZM645.761 184.742H652.421C652.261 182.882 651.201 181.222 649.121 181.222C647.301 181.222 645.981 182.742 645.761 184.742ZM656.677 193.682V180.142H658.217V182.222C659.077 181.002 660.257 179.922 662.177 179.922C664.657 179.922 667.117 181.882 667.117 185.282V185.322C667.117 188.682 664.677 190.702 662.177 190.702C660.257 190.702 659.017 189.682 658.217 188.502V193.682H656.677ZM661.897 189.322C663.897 189.322 665.537 187.842 665.537 185.342V185.302C665.537 182.842 663.877 181.302 661.897 181.302C659.977 181.302 658.157 182.942 658.157 185.282V185.322C658.157 187.722 659.977 189.322 661.897 189.322ZM671.498 180.142V183.702H674.658C677.198 183.702 678.718 184.982 678.718 187.062V187.102C678.718 189.122 677.238 190.482 674.598 190.482H669.958V180.142H671.498ZM671.498 185.002V189.162H674.578C676.338 189.162 677.158 188.382 677.158 187.082V187.062C677.158 185.842 676.338 184.982 674.598 185.002H671.498ZM680.618 190.482V180.142H682.158V190.482H680.618ZM685.403 190.482V188.382H687.243V190.482H685.403Z" fill="black"/>
<path d="M800 16.4824C800 7.64586 807.163 0.482422 816 0.482422H1168C1176.84 0.482422 1184 7.64587 1184 16.4824V212.482C1184 221.319 1176.84 228.482 1168 228.482H816C807.163 228.482 800 221.319 800 212.482V16.4824Z" fill="#DFEEFF"/>
<path d="M864.625 61.7409C867.228 60.8769 869.895 60.3271 872.75 60.0075" stroke="#48A7F8" stroke-width="2" stroke-linecap="round" stroke-linejoin="round"/>
<path d="M840.25 60.0104C843.105 60.3273 845.772 60.8798 848.375 61.7438" stroke="#48A7F8" stroke-width="2" stroke-linecap="round" stroke-linejoin="round"/>
<path d="M872.75 49.177C869.895 49.4938 867.228 50.0463 864.625 50.9103" stroke="#48A7F8" stroke-width="2" stroke-linecap="round" stroke-linejoin="round"/>
<path d="M848.375 50.9078C845.772 50.0439 843.105 49.4941 840.25 49.1745" stroke="#48A7F8" stroke-width="2" stroke-linecap="round" stroke-linejoin="round"/>
<path fill-rule="evenodd" clip-rule="evenodd" d="M856.5 41.0873C849.475 37.1521 843.197 35.5867 834.879 35.3185C833.368 35.2671 832.125 36.5129 832.125 38.0269V70.1288C832.125 71.594 833.298 72.81 834.763 72.8317C843.137 72.9563 849.442 74.5 856.5 78.6492C863.558 74.5 869.863 72.9563 878.237 72.8317C879.702 72.81 880.875 71.594 880.875 70.126V38.0242C880.875 36.5102 879.632 35.2671 878.121 35.3158C869.803 35.5867 863.525 37.1521 856.5 41.0873Z" stroke="#3E3838" stroke-width="2" stroke-linecap="round" stroke-linejoin="round"/>
<path d="M856.5 41.0845V78.6491" stroke="#48A7F8" stroke-width="2" stroke-linecap="round" stroke-linejoin="round"/>
<path d="M825.98 134.482V120.482H837.2V134.482H835.62V121.942H827.56V134.482H825.98ZM845.616 134.722C842.516 134.722 840.256 132.282 840.256 129.362V129.322C840.256 126.382 842.516 123.922 845.656 123.922C848.776 123.922 851.036 126.362 851.036 129.282V129.322C851.036 132.262 848.736 134.722 845.616 134.722ZM845.656 133.342C847.896 133.342 849.456 131.522 849.456 129.362V129.322C849.456 127.102 847.796 125.282 845.616 125.282C843.376 125.282 841.836 127.102 841.836 129.282V129.322C841.836 131.542 843.476 133.342 845.656 133.342ZM858.378 124.062L863.078 134.482H861.358L857.658 125.962L853.938 134.482H852.278L856.958 124.062H858.378ZM868.91 132.762L872.23 124.142H873.87L869.53 134.822C868.65 136.962 867.63 137.742 866.09 137.742C865.23 137.742 864.59 137.562 863.89 137.222L864.41 136.002C864.91 136.262 865.37 136.382 866.03 136.382C866.97 136.382 867.53 135.902 868.15 134.442L863.45 124.142H865.15L868.91 132.762ZM882.91 134.482V130.842C882.09 131.062 880.97 131.282 879.95 131.282C877.31 131.282 875.75 130.142 875.75 127.422V124.142H877.27V127.302C877.27 129.142 878.19 129.862 880.13 129.862C881.11 129.862 882.01 129.702 882.91 129.442V124.142H884.45V134.482H882.91ZM890.968 134.702C889.048 134.702 887.108 133.622 887.108 131.482V131.442C887.108 129.282 888.908 128.102 891.528 128.102C892.868 128.102 893.768 128.282 894.708 128.542V128.182C894.708 126.322 893.568 125.362 891.628 125.362C890.408 125.362 889.448 125.662 888.488 126.122L888.028 124.862C889.168 124.322 890.268 124.002 891.788 124.002C893.248 124.002 894.368 124.382 895.128 125.142C895.828 125.842 896.188 126.862 896.188 128.162V134.482H894.708V132.922C893.988 133.862 892.808 134.702 890.968 134.702ZM891.268 133.482C893.188 133.482 894.728 132.322 894.728 130.682V129.682C893.948 129.462 892.968 129.242 891.688 129.242C889.748 129.242 888.668 130.082 888.668 131.382V131.422C888.668 132.722 889.888 133.482 891.268 133.482ZM899.47 134.482V124.142H901.01V132.162L907.29 124.142H908.77V134.482H907.25V126.442L900.91 134.482H899.47ZM904.11 122.622C902.43 122.622 901.29 121.722 901.15 120.122H902.27C902.51 120.862 903.09 121.382 904.11 121.382C905.13 121.382 905.71 120.862 905.95 120.122H907.07C906.93 121.722 905.79 122.622 904.11 122.622ZM915.224 134.482V125.522H911.084V124.142H920.924V125.522H916.764V134.482H915.224ZM927.076 134.722C924.256 134.722 921.916 132.542 921.916 129.342V129.302C921.916 126.322 923.996 123.922 926.876 123.922C929.936 123.922 931.696 126.362 931.696 129.382C931.696 129.602 931.696 129.702 931.676 129.882H923.476C923.696 132.122 925.276 133.382 927.116 133.382C928.556 133.382 929.516 132.802 930.376 131.922L931.336 132.782C930.296 133.962 929.056 134.722 927.076 134.722ZM923.476 128.742H930.136C929.976 126.882 928.916 125.222 926.836 125.222C925.016 125.222 923.696 126.742 923.476 128.742ZM946.008 124.062L950.048 133.082H951.228V137.222H949.828V134.482H940.588V137.222H939.188V133.082H940.368L944.408 124.062H946.008ZM945.208 125.602L941.948 133.122H948.408L945.208 125.602ZM957.588 134.722C954.488 134.722 952.228 132.282 952.228 129.362V129.322C952.228 126.382 954.488 123.922 957.628 123.922C960.748 123.922 963.008 126.362 963.008 129.282V129.322C963.008 132.262 960.708 134.722 957.588 134.722ZM957.628 133.342C959.868 133.342 961.428 131.522 961.428 129.362V129.322C961.428 127.102 959.768 125.282 957.588 125.282C955.348 125.282 953.808 127.102 953.808 129.282V129.322C953.808 131.542 955.448 133.342 957.628 133.342ZM970.458 134.722C967.418 134.722 965.158 132.262 965.158 129.362V129.322C965.158 126.382 967.418 123.922 970.458 123.922C972.418 123.922 973.618 124.722 974.598 125.762L973.578 126.842C972.758 125.982 971.858 125.282 970.438 125.282C968.338 125.282 966.738 127.042 966.738 129.282V129.322C966.738 131.562 968.378 133.342 970.538 133.342C971.878 133.342 972.878 132.682 973.698 131.802L974.678 132.722C973.638 133.902 972.398 134.722 970.458 134.722ZM979.931 134.482V125.522H975.791V124.142H985.631V125.522H981.471V134.482H979.931ZM992.132 132.762L995.452 124.142H997.092L992.752 134.822C991.872 136.962 990.852 137.742 989.312 137.742C988.452 137.742 987.812 137.562 987.112 137.222L987.632 136.002C988.132 136.262 988.592 136.382 989.252 136.382C990.192 136.382 990.752 135.902 991.372 134.442L986.672 124.142H988.372L992.132 132.762ZM999.529 134.482V124.142H1008.75V134.482H1007.21V125.542H1001.07V134.482H999.529ZM1019.72 124.142V128.582H1021.6L1025.46 124.142H1027.38L1022.84 129.202L1027.5 134.482H1025.58L1021.64 129.942H1019.72V134.482H1018.18V124.142H1019.72ZM1038.7 134.702C1036.78 134.702 1034.84 133.622 1034.84 131.482V131.442C1034.84 129.282 1036.64 128.102 1039.26 128.102C1040.6 128.102 1041.5 128.282 1042.44 128.542V128.182C1042.44 126.322 1041.3 125.362 1039.36 125.362C1038.14 125.362 1037.18 125.662 1036.22 126.122L1035.76 124.862C1036.9 124.322 1038 124.002 1039.52 124.002C1040.98 124.002 1042.1 124.382 1042.86 125.142C1043.56 125.842 1043.92 126.862 1043.92 128.162V134.482H1042.44V132.922C1041.72 133.862 1040.54 134.702 1038.7 134.702ZM1039 133.482C1040.92 133.482 1042.46 132.322 1042.46 130.682V129.682C1041.68 129.462 1040.7 129.242 1039.42 129.242C1037.48 129.242 1036.4 130.082 1036.4 131.382V131.422C1036.4 132.722 1037.62 133.482 1039 133.482ZM1048.74 124.142V128.582H1050.62L1054.48 124.142H1056.4L1051.86 129.202L1056.52 134.482H1054.6L1050.66 129.942H1048.74V134.482H1047.2V124.142H1048.74ZM1061.53 134.482V125.522H1057.39V124.142H1067.23V125.522H1063.07V134.482H1061.53ZM1073.73 132.762L1077.05 124.142H1078.69L1074.35 134.822C1073.47 136.962 1072.45 137.742 1070.91 137.742C1070.05 137.742 1069.41 137.562 1068.71 137.222L1069.23 136.002C1069.73 136.262 1070.19 136.382 1070.85 136.382C1071.79 136.382 1072.35 135.902 1072.97 134.442L1068.27 124.142H1069.97L1073.73 132.762ZM1083.7 134.702C1081.78 134.702 1079.84 133.622 1079.84 131.482V131.442C1079.84 129.282 1081.64 128.102 1084.26 128.102C1085.6 128.102 1086.5 128.282 1087.44 128.542V128.182C1087.44 126.322 1086.3 125.362 1084.36 125.362C1083.14 125.362 1082.18 125.662 1081.22 126.122L1080.76 124.862C1081.9 124.322 1083 124.002 1084.52 124.002C1085.98 124.002 1087.1 124.382 1087.86 125.142C1088.56 125.842 1088.92 126.862 1088.92 128.162V134.482H1087.44V132.922C1086.72 133.862 1085.54 134.702 1083.7 134.702ZM1084 133.482C1085.92 133.482 1087.46 132.322 1087.46 130.682V129.682C1086.68 129.462 1085.7 129.242 1084.42 129.242C1082.48 129.242 1081.4 130.082 1081.4 131.382V131.422C1081.4 132.722 1082.62 133.482 1084 133.482ZM1097.28 124.062L1101.98 134.482H1100.26L1096.56 125.962L1092.84 134.482H1091.18L1095.86 124.062H1097.28ZM1104.41 134.482V124.142H1105.95V127.702H1109.11C1111.65 127.702 1113.17 128.982 1113.17 131.062V131.102C1113.17 133.122 1111.69 134.482 1109.05 134.482H1104.41ZM1105.95 133.162H1109.03C1110.79 133.162 1111.61 132.382 1111.61 131.082V131.062C1111.61 129.842 1110.79 128.982 1109.05 129.002H1105.95V133.162ZM1115.7 134.482V124.142H1117.24V128.562H1123.42V124.142H1124.94V134.482H1123.42V129.962H1117.24V134.482H1115.7ZM1129.94 124.142V127.702H1133.1C1135.64 127.702 1137.16 128.982 1137.16 131.062V131.102C1137.16 133.122 1135.68 134.482 1133.04 134.482H1128.4V124.142H1129.94ZM1129.94 129.002V133.162H1133.02C1134.78 133.162 1135.6 132.382 1135.6 131.082V131.062C1135.6 129.842 1134.78 128.982 1133.04 129.002H1129.94ZM1139.06 134.482V124.142H1140.6V134.482H1139.06ZM1144.04 134.482V124.142H1145.66L1149.58 129.942L1153.48 124.142H1155.08V134.482H1153.54V126.542L1149.58 132.282H1149.52L1145.56 126.562V134.482H1144.04ZM825.72 162.482V152.142H827.34L831.26 157.942L835.16 152.142H836.76V162.482H835.22V154.542L831.26 160.282H831.2L827.24 154.562V162.482H825.72ZM843.292 162.702C841.372 162.702 839.432 161.622 839.432 159.482V159.442C839.432 157.282 841.232 156.102 843.852 156.102C845.192 156.102 846.092 156.282 847.032 156.542V156.182C847.032 154.322 845.892 153.362 843.952 153.362C842.732 153.362 841.772 153.662 840.812 154.122L840.352 152.862C841.492 152.322 842.592 152.002 844.112 152.002C845.572 152.002 846.692 152.382 847.452 153.142C848.152 153.842 848.512 154.862 848.512 156.162V162.482H847.032V160.922C846.312 161.862 845.132 162.702 843.292 162.702ZM843.592 161.482C845.512 161.482 847.052 160.322 847.052 158.682V157.682C846.272 157.462 845.292 157.242 844.012 157.242C842.072 157.242 840.992 158.082 840.992 159.382V159.422C840.992 160.722 842.212 161.482 843.592 161.482ZM854.404 162.482V153.522H850.264V152.142H860.104V153.522H855.944V162.482H854.404ZM866.256 162.722C863.436 162.722 861.096 160.542 861.096 157.342V157.302C861.096 154.322 863.176 151.922 866.056 151.922C869.116 151.922 870.876 154.362 870.876 157.382C870.876 157.602 870.876 157.702 870.856 157.882H862.656C862.876 160.122 864.456 161.382 866.296 161.382C867.736 161.382 868.696 160.802 869.556 159.922L870.516 160.782C869.476 161.962 868.236 162.722 866.256 162.722ZM862.656 156.742H869.316C869.156 154.882 868.096 153.222 866.016 153.222C864.196 153.222 862.876 154.742 862.656 156.742ZM873.572 165.682V152.142H875.112V154.222C875.972 153.002 877.152 151.922 879.072 151.922C881.552 151.922 884.012 153.882 884.012 157.282V157.322C884.012 160.682 881.572 162.702 879.072 162.702C877.152 162.702 875.912 161.682 875.112 160.502V165.682H873.572ZM878.792 161.322C880.792 161.322 882.432 159.842 882.432 157.342V157.302C882.432 154.842 880.772 153.302 878.792 153.302C876.872 153.302 875.052 154.942 875.052 157.282V157.322C875.052 159.722 876.872 161.322 878.792 161.322ZM886.853 162.482V152.142H888.393V160.162L894.673 152.142H896.153V162.482H894.633V154.442L888.293 162.482H886.853ZM902.687 162.702C900.767 162.702 898.827 161.622 898.827 159.482V159.442C898.827 157.282 900.627 156.102 903.247 156.102C904.587 156.102 905.487 156.282 906.427 156.542V156.182C906.427 154.322 905.287 153.362 903.347 153.362C902.127 153.362 901.167 153.662 900.207 154.122L899.747 152.862C900.887 152.322 901.987 152.002 903.507 152.002C904.967 152.002 906.087 152.382 906.847 153.142C907.547 153.842 907.907 154.862 907.907 156.162V162.482H906.427V160.922C905.707 161.862 904.527 162.702 902.687 162.702ZM902.987 161.482C904.907 161.482 906.447 160.322 906.447 158.682V157.682C905.667 157.462 904.687 157.242 903.407 157.242C901.467 157.242 900.387 158.082 900.387 159.382V159.422C900.387 160.722 901.607 161.482 902.987 161.482ZM916.269 152.062L920.969 162.482H919.249L915.549 153.962L911.829 162.482H910.169L914.849 152.062H916.269ZM926.456 162.702C924.536 162.702 922.596 161.622 922.596 159.482V159.442C922.596 157.282 924.396 156.102 927.016 156.102C928.356 156.102 929.256 156.282 930.196 156.542V156.182C930.196 154.322 929.056 153.362 927.116 153.362C925.896 153.362 924.936 153.662 923.976 154.122L923.516 152.862C924.656 152.322 925.756 152.002 927.276 152.002C928.736 152.002 929.856 152.382 930.616 153.142C931.316 153.842 931.676 154.862 931.676 156.162V162.482H930.196V160.922C929.476 161.862 928.296 162.702 926.456 162.702ZM926.756 161.482C928.676 161.482 930.216 160.322 930.216 158.682V157.682C929.436 157.462 928.456 157.242 927.176 157.242C925.236 157.242 924.156 158.082 924.156 159.382V159.422C924.156 160.722 925.376 161.482 926.756 161.482ZM934.958 162.482V152.142H936.578L940.498 157.942L944.398 152.142H945.998V162.482H944.458V154.542L940.498 160.282H940.438L936.478 154.562V162.482H934.958ZM955.447 162.482V152.142H956.987V160.162L963.267 152.142H964.747V162.482H963.227V154.442L956.887 162.482H955.447ZM974.197 162.482V152.142H975.817L979.737 157.942L983.637 152.142H985.237V162.482H983.697V154.542L979.737 160.282H979.677L975.717 154.562V162.482H974.197ZM993.209 162.722C990.389 162.722 988.049 160.542 988.049 157.342V157.302C988.049 154.322 990.129 151.922 993.009 151.922C996.069 151.922 997.829 154.362 997.829 157.382C997.829 157.602 997.829 157.702 997.809 157.882H989.609C989.829 160.122 991.409 161.382 993.249 161.382C994.689 161.382 995.649 160.802 996.509 159.922L997.469 160.782C996.429 161.962 995.189 162.722 993.209 162.722ZM989.609 156.742H996.269C996.109 154.882 995.049 153.222 992.969 153.222C991.149 153.222 989.829 154.742 989.609 156.742ZM1000.52 165.682V152.142H1002.06V154.222C1002.92 153.002 1004.1 151.922 1006.02 151.922C1008.5 151.922 1010.96 153.882 1010.96 157.282V157.322C1010.96 160.682 1008.52 162.702 1006.02 162.702C1004.1 162.702 1002.86 161.682 1002.06 160.502V165.682H1000.52ZM1005.74 161.322C1007.74 161.322 1009.38 159.842 1009.38 157.342V157.302C1009.38 154.842 1007.72 153.302 1005.74 153.302C1003.82 153.302 1002 154.942 1002 157.282V157.322C1002 159.722 1003.82 161.322 1005.74 161.322ZM1018.53 162.722C1015.43 162.722 1013.17 160.282 1013.17 157.362V157.322C1013.17 154.382 1015.43 151.922 1018.57 151.922C1021.69 151.922 1023.95 154.362 1023.95 157.282V157.322C1023.95 160.262 1021.65 162.722 1018.53 162.722ZM1018.57 161.342C1020.81 161.342 1022.37 159.522 1022.37 157.362V157.322C1022.37 155.102 1020.71 153.282 1018.53 153.282C1016.29 153.282 1014.75 155.102 1014.75 157.282V157.322C1014.75 159.542 1016.39 161.342 1018.57 161.342ZM1026.74 162.482V152.142H1035.96V162.482H1034.42V153.542H1028.28V162.482H1026.74ZM1039.39 165.682V152.142H1040.93V154.222C1041.79 153.002 1042.97 151.922 1044.89 151.922C1047.37 151.922 1049.83 153.882 1049.83 157.282V157.322C1049.83 160.682 1047.39 162.702 1044.89 162.702C1042.97 162.702 1041.73 161.682 1040.93 160.502V165.682H1039.39ZM1044.61 161.322C1046.61 161.322 1048.25 159.842 1048.25 157.342V157.302C1048.25 154.842 1046.59 153.302 1044.61 153.302C1042.69 153.302 1040.87 154.942 1040.87 157.282V157.322C1040.87 159.722 1042.69 161.322 1044.61 161.322ZM1052.67 162.482V152.142H1054.21V160.162L1060.49 152.142H1061.97V162.482H1060.45V154.442L1054.11 162.482H1052.67ZM1066.55 162.482H1064.71L1067.73 158.502C1066.07 158.122 1065.09 157.022 1065.09 155.422V155.402C1065.09 153.422 1066.67 152.142 1069.13 152.142H1074.13V162.482H1072.61V158.642H1069.41L1066.55 162.482ZM1072.61 153.422H1069.15C1067.61 153.422 1066.63 154.222 1066.63 155.402V155.422C1066.63 156.622 1067.55 157.422 1069.15 157.402H1072.61V153.422ZM1080.6 162.482V153.522H1076.46V152.142H1086.3V153.522H1082.14V162.482H1080.6ZM1088.57 162.482V152.142H1090.11V160.162L1096.39 152.142H1097.87V162.482H1096.35V154.442L1090.01 162.482H1088.57ZM1102.45 162.482H1100.61L1103.63 158.502C1101.97 158.122 1100.99 157.022 1100.99 155.422V155.402C1100.99 153.422 1102.57 152.142 1105.03 152.142H1110.03V162.482H1108.51V158.642H1105.31L1102.45 162.482ZM1108.51 153.422H1105.05C1103.51 153.422 1102.53 154.222 1102.53 155.402V155.422C1102.53 156.622 1103.45 157.422 1105.05 157.402H1108.51V153.422ZM1113.49 162.482V152.142H1115.11L1119.03 157.942L1122.93 152.142H1124.53V162.482H1122.99V154.542L1119.03 160.282H1118.97L1115.01 154.562V162.482H1113.49ZM1127.79 162.482V160.382H1129.63V162.482H1127.79Z" fill="black"/>
</g>
<defs>
<clipPath id="clip0_250_2588">
<rect y="0.482422" width="1184" height="228" rx="16" fill="white"/>
</clipPath>
</defs>
</svg>
