<svg width="1184" height="121" viewBox="0 0 1184 121" fill="none" xmlns="http://www.w3.org/2000/svg">
<path d="M98.0079 44.553C98.0079 18.1652 78.6596 1.74292 47.4913 1.74292H0V120.839H24.4844V87.2227H47.4913C49.1095 87.2227 50.7277 87.2227 52.2756 87.0824L76.0564 120.839H103.918L75.9157 81.3276C89.9872 74.3095 97.9376 61.1858 97.9376 44.553H98.0079ZM24.4844 65.1861V24.1305H47.0692C64.6585 24.1305 73.5939 31.0082 73.5939 44.553C73.5939 58.0979 64.6585 65.1861 47.0692 65.1861H24.4844Z" fill="#645D5D"/>
<path d="M425.45 1.74292H374.441V120.839H425.45C463.232 120.839 489.546 96.3462 489.546 61.3261C489.546 26.3061 463.162 1.81312 425.45 1.81312V1.74292ZM398.926 24.1305H424.465C449.091 24.1305 465.062 38.728 465.062 61.3261C465.062 83.9243 449.161 98.5218 424.465 98.5218H398.926V24.2007V24.1305Z" fill="#645D5D"/>
<path d="M612.252 1.74292L569.193 75.1517L525.501 1.74292H505.73V120.769H529.582V52.1325L562.79 107.365H575.032L608.241 51.6412L608.382 120.769H632.233L632.092 1.74292H612.252Z" fill="#645D5D"/>
<path d="M708.288 0.482422C680.989 0.482422 656.505 3.14928 656.505 35.0814V120.842H680.637V90.3836H735.868V120.842H760.352V35.0814C760.352 0.482425 733.898 0.482422 708.288 0.482422ZM708.288 23.1507C730.31 23.1507 735.868 24.2034 735.868 33.6076V67.996H680.637V33.6076C680.637 25.1158 685.774 23.1507 708.218 23.1507H708.288Z" fill="#645D5D"/>
<path d="M831.483 1.74292H783.992V120.839H808.476V87.3631H831.483C862.652 87.3631 882 70.9409 882 44.553C882 18.1652 862.652 1.74292 831.483 1.74292ZM808.476 64.9755V24.0603H831.061C848.65 24.0603 857.586 30.938 857.586 44.4828C857.586 58.0277 848.65 64.9053 831.061 64.9053H808.476V64.9755Z" fill="#645D5D"/>
<path d="M298.315 0.482422C271.017 0.482422 246.532 3.14928 246.532 35.0814V120.842H270.665V90.3836H325.895V120.842H350.38V35.0814C350.38 0.482425 323.925 0.482422 298.315 0.482422ZM298.315 23.1507C320.337 23.1507 325.895 24.2034 325.895 33.6076V67.996H270.665V33.6076C270.665 25.1158 275.801 23.1507 298.245 23.1507H298.315Z" fill="#645D5D"/>
<path d="M181.662 1.604H156.614C130.512 1.604 109.334 22.7985 109.334 48.7653V73.7495C109.334 99.7865 130.582 120.911 156.614 120.911H181.662C207.764 120.911 228.942 99.7163 228.942 73.7495V48.7653C228.942 22.7283 207.694 1.604 181.662 1.604ZM133.819 48.7653C133.819 36.2732 144.02 26.0268 156.614 26.0268H181.662C194.185 26.0268 204.458 36.203 204.458 48.7653V73.7495C204.458 86.2417 194.256 96.488 181.662 96.488H156.614C144.091 96.488 133.819 86.3118 133.819 73.7495V48.7653Z" fill="#645D5D"/>
<path d="M998.796 100.079C995.954 100.079 993.742 97.7969 993.742 95.0389V95.0109C993.742 92.2669 995.968 89.9429 998.824 89.9429C1001.67 89.9429 1003.88 92.2249 1003.88 94.9829V95.0109C1003.88 97.7549 1001.65 100.079 998.796 100.079ZM998.796 99.6449C1001.43 99.6449 1003.42 97.5309 1003.42 95.0109V94.9829C1003.42 92.4489 1001.44 90.3769 998.824 90.3769C996.192 90.3769 994.204 92.4909 994.204 95.0109V95.0389C994.204 97.5729 996.178 99.6449 998.796 99.6449ZM998.866 97.6289C997.368 97.6289 996.262 96.4249 996.262 94.9549V94.9269C996.262 93.4709 997.382 92.2529 998.894 92.2529C999.846 92.2529 1000.39 92.6029 1000.91 93.0929L1000.39 93.6529C999.986 93.2609 999.496 92.9529 998.88 92.9529C997.83 92.9529 997.046 93.8489 997.046 94.9129V94.9409C997.046 96.0189 997.844 96.9149 998.894 96.9149C999.552 96.9149 999.972 96.6489 1000.43 96.2149L1000.94 96.7049C1000.39 97.2649 999.818 97.6289 998.866 97.6289ZM1005.29 99.9109V99.0569L1008.85 95.9209C1010.35 94.5769 1010.89 93.8209 1010.89 92.8409C1010.89 91.6929 1009.98 90.9649 1008.92 90.9649C1007.8 90.9649 1007.07 91.5389 1006.29 92.6449L1005.48 92.0569C1006.39 90.7409 1007.27 89.9709 1009 89.9709C1010.77 89.9709 1012.04 91.1469 1012.04 92.7429V92.7709C1012.04 94.1989 1011.29 95.0809 1009.56 96.5789L1006.95 98.9029H1012.14V99.9109H1005.29ZM1018 100.079C1015.47 100.079 1013.87 97.7829 1013.87 95.0389V95.0109C1013.87 92.2669 1015.51 89.9429 1018.03 89.9429C1020.55 89.9429 1022.14 92.2389 1022.14 94.9829V95.0109C1022.14 97.7549 1020.52 100.079 1018 100.079ZM1018.03 99.0709C1019.88 99.0709 1021 97.1809 1021 95.0389V95.0109C1021 92.8829 1019.83 90.9509 1018 90.9509C1016.17 90.9509 1015.02 92.8269 1015.02 94.9829V95.0109C1015.02 97.1389 1016.18 99.0709 1018.03 99.0709ZM1023.55 99.9109V99.0569L1027.1 95.9209C1028.6 94.5769 1029.15 93.8209 1029.15 92.8409C1029.15 91.6929 1028.24 90.9649 1027.17 90.9649C1026.05 90.9649 1025.32 91.5389 1024.54 92.6449L1023.73 92.0569C1024.64 90.7409 1025.52 89.9709 1027.26 89.9709C1029.02 89.9709 1030.29 91.1469 1030.29 92.7429V92.7709C1030.29 94.1989 1029.54 95.0809 1027.82 96.5789L1025.2 98.9029H1030.39V99.9109H1023.55ZM1036.93 99.9109V97.5869H1031.77L1031.49 96.7889L1037.03 90.0409H1038V96.6629H1039.52V97.5869H1038V99.9109H1036.93ZM1032.82 96.6629H1036.93V91.6089L1032.82 96.6629ZM1045.02 99.9109L1049.49 90.0409H1050.52L1054.99 99.9109H1053.8L1052.65 97.3209H1047.32L1046.15 99.9109H1045.02ZM1047.75 96.3269H1052.22L1049.99 91.3289L1047.75 96.3269ZM1056.84 99.9109V89.6909H1057.92V99.9109H1056.84ZM1060.51 99.9109V89.6909H1061.59V99.9109H1060.51ZM1068.47 99.9109V90.1109H1072.69C1073.91 90.1109 1074.86 90.4749 1075.47 91.0909C1075.96 91.5809 1076.23 92.2389 1076.23 93.0229V93.0509C1076.23 94.6749 1075.11 95.6409 1073.57 95.9069L1076.58 99.9109H1075.22L1072.38 96.1029H1069.58V99.9109H1068.47ZM1069.58 95.1089H1072.59C1074.05 95.1089 1075.11 94.3529 1075.11 93.0929V93.0649C1075.11 91.8469 1074.19 91.1329 1072.6 91.1329H1069.58V95.1089ZM1078.44 91.0909V89.9009H1079.67V91.0909H1078.44ZM1078.51 99.9109V92.6729H1079.59V99.9109H1078.51ZM1085.29 102.179C1084.07 102.179 1082.97 101.843 1082 101.171L1082.49 100.331C1083.33 100.933 1084.23 101.255 1085.28 101.255C1086.89 101.255 1087.91 100.373 1087.91 98.6789V97.8249C1087.28 98.6649 1086.4 99.3509 1085.07 99.3509C1083.33 99.3509 1081.67 98.0349 1081.67 95.9629V95.9349C1081.67 93.8209 1083.33 92.5189 1085.07 92.5189C1086.43 92.5189 1087.29 93.1909 1087.9 93.9749V92.6729H1088.97V98.6509C1088.97 99.7709 1088.65 100.611 1088.05 101.213C1087.39 101.871 1086.45 102.179 1085.29 102.179ZM1085.28 98.3989C1086.65 98.3989 1087.94 97.4049 1087.94 95.9489V95.9209C1087.94 94.4369 1086.65 93.4709 1085.28 93.4709C1083.89 93.4709 1082.77 94.4229 1082.77 95.9069V95.9349C1082.77 97.3909 1083.93 98.3989 1085.28 98.3989ZM1091.38 99.9109V89.6909H1092.46V93.9329C1092.95 93.1489 1093.69 92.5189 1094.94 92.5189C1096.68 92.5189 1097.71 93.6949 1097.71 95.4169V99.9109H1096.63V95.6829C1096.63 94.3389 1095.92 93.4989 1094.63 93.4989C1093.39 93.4989 1092.46 94.4089 1092.46 95.7669V99.9109H1091.38ZM1102.43 100.037C1101.26 100.037 1100.39 99.4629 1100.39 97.9929V93.6249H1099.38V92.6729H1100.39V90.4889H1101.47V92.6729H1103.76V93.6249H1101.47V97.8529C1101.47 98.7489 1101.96 99.0569 1102.68 99.0569C1103.06 99.0569 1103.36 98.9869 1103.73 98.8049V99.7289C1103.36 99.9389 1102.95 100.037 1102.43 100.037ZM1108.06 100.051C1107.01 100.051 1105.89 99.6449 1105.07 98.9869L1105.61 98.2169C1106.4 98.8189 1107.27 99.1409 1108.12 99.1409C1109 99.1409 1109.62 98.7069 1109.62 97.9929V97.9649C1109.62 97.2509 1108.76 96.9569 1107.81 96.6909C1106.69 96.3549 1105.42 95.9909 1105.42 94.6469V94.6189C1105.42 93.3729 1106.45 92.5469 1107.88 92.5469C1108.78 92.5469 1109.74 92.8549 1110.49 93.3449L1110 94.1569C1109.32 93.7229 1108.57 93.4569 1107.85 93.4569C1107 93.4569 1106.45 93.9049 1106.45 94.5069V94.5349C1106.45 95.2209 1107.35 95.4869 1108.32 95.7809C1109.44 96.1169 1110.64 96.5509 1110.64 97.8529V97.8809C1110.64 99.2529 1109.51 100.051 1108.06 100.051ZM1117.02 99.9109V90.1109H1121.24C1122.45 90.1109 1123.41 90.4749 1124.02 91.0909C1124.51 91.5809 1124.78 92.2389 1124.78 93.0229V93.0509C1124.78 94.6749 1123.66 95.6409 1122.12 95.9069L1125.13 99.9109H1123.77L1120.93 96.1029H1118.13V99.9109H1117.02ZM1118.13 95.1089H1121.14C1122.59 95.1089 1123.66 94.3529 1123.66 93.0929V93.0649C1123.66 91.8469 1122.73 91.1329 1121.15 91.1329H1118.13V95.1089ZM1129.99 100.079C1128.01 100.079 1126.37 98.5529 1126.37 96.3129V96.2849C1126.37 94.1989 1127.83 92.5189 1129.85 92.5189C1131.99 92.5189 1133.22 94.2269 1133.22 96.3409C1133.22 96.4949 1133.22 96.5649 1133.21 96.6909H1127.47C1127.62 98.2589 1128.73 99.1409 1130.01 99.1409C1131.02 99.1409 1131.69 98.7349 1132.3 98.1189L1132.97 98.7209C1132.24 99.5469 1131.37 100.079 1129.99 100.079ZM1127.47 95.8929H1132.13C1132.02 94.5909 1131.27 93.4289 1129.82 93.4289C1128.54 93.4289 1127.62 94.4929 1127.47 95.8929ZM1137.5 100.051C1136.45 100.051 1135.33 99.6449 1134.5 98.9869L1135.05 98.2169C1135.83 98.8189 1136.7 99.1409 1137.56 99.1409C1138.44 99.1409 1139.05 98.7069 1139.05 97.9929V97.9649C1139.05 97.2509 1138.2 96.9569 1137.25 96.6909C1136.13 96.3549 1134.85 95.9909 1134.85 94.6469V94.6189C1134.85 93.3729 1135.89 92.5469 1137.32 92.5469C1138.21 92.5469 1139.18 92.8549 1139.92 93.3449L1139.43 94.1569C1138.76 93.7229 1138 93.4569 1137.29 93.4569C1136.44 93.4569 1135.89 93.9049 1135.89 94.5069V94.5349C1135.89 95.2209 1136.79 95.4869 1137.75 95.7809C1138.87 96.1169 1140.08 96.5509 1140.08 97.8529V97.8809C1140.08 99.2529 1138.94 100.051 1137.5 100.051ZM1145.24 100.079C1143.27 100.079 1141.63 98.5529 1141.63 96.3129V96.2849C1141.63 94.1989 1143.09 92.5189 1145.1 92.5189C1147.25 92.5189 1148.48 94.2269 1148.48 96.3409C1148.48 96.4949 1148.48 96.5649 1148.46 96.6909H1142.72C1142.88 98.2589 1143.98 99.1409 1145.27 99.1409C1146.28 99.1409 1146.95 98.7349 1147.55 98.1189L1148.23 98.7209C1147.5 99.5469 1146.63 100.079 1145.24 100.079ZM1142.72 95.8929H1147.39C1147.27 94.5909 1146.53 93.4289 1145.08 93.4289C1143.8 93.4289 1142.88 94.4929 1142.72 95.8929ZM1150.36 99.9109V92.6729H1151.44V94.5629C1151.97 93.3589 1153.02 92.5049 1154.4 92.5469V93.7089H1154.31C1152.73 93.7089 1151.44 94.8429 1151.44 97.0269V99.9109H1150.36ZM1158.46 99.9669L1155.32 92.6729H1156.51L1158.95 98.6789L1161.4 92.6729H1162.56L1159.41 99.9669H1158.46ZM1166.99 100.079C1165.02 100.079 1163.38 98.5529 1163.38 96.3129V96.2849C1163.38 94.1989 1164.84 92.5189 1166.85 92.5189C1169 92.5189 1170.23 94.2269 1170.23 96.3409C1170.23 96.4949 1170.23 96.5649 1170.21 96.6909H1164.47C1164.63 98.2589 1165.73 99.1409 1167.02 99.1409C1168.03 99.1409 1168.7 98.7349 1169.3 98.1189L1169.98 98.7209C1169.25 99.5469 1168.38 100.079 1166.99 100.079ZM1164.47 95.8929H1169.14C1169.02 94.5909 1168.28 93.4289 1166.83 93.4289C1165.55 93.4289 1164.63 94.4929 1164.47 95.8929ZM1175.15 100.065C1173.42 100.065 1171.7 98.6929 1171.7 96.3129V96.2849C1171.7 93.9329 1173.42 92.5189 1175.15 92.5189C1176.5 92.5189 1177.37 93.2329 1177.93 94.0589V89.6909H1179V99.9109H1177.93V98.4549C1177.32 99.3229 1176.5 100.065 1175.15 100.065ZM1175.35 99.0989C1176.69 99.0989 1177.97 97.9649 1177.97 96.2989V96.2709C1177.97 94.6049 1176.69 93.4849 1175.35 93.4849C1173.95 93.4849 1172.8 94.5209 1172.8 96.2709V96.2989C1172.8 98.0209 1173.96 99.0989 1175.35 99.0989ZM1181.27 99.9109V98.4409H1182.56V99.9109H1181.27Z" fill="#514A4A"/>
</svg>
