<svg width="150" height="45" viewBox="0 0 150 45" fill="none" xmlns="http://www.w3.org/2000/svg">
<path d="M0 8.88889C0 3.97969 3.97969 0 8.88889 0H141.111C146.02 0 150 3.97969 150 8.88889V35.5556C150 40.4648 146.02 44.4444 141.111 44.4444H8.88888C3.97969 44.4444 0 40.4648 0 35.5556V8.88889Z" fill="#3E3838"/>
<path d="M75.7111 23.9256C73.1 23.9256 70.9667 25.8946 70.9667 28.6006C70.9667 31.3066 73.1 33.2756 75.7111 33.2756C78.3223 33.2756 80.4556 31.2956 80.4556 28.6006C80.4556 25.9056 78.3223 23.9256 75.7111 23.9256ZM75.7111 31.4386C74.2778 31.4386 73.0445 30.2726 73.0445 28.6006C73.0445 26.9286 74.2778 25.7626 75.7111 25.7626C77.1445 25.7626 78.3778 26.9176 78.3778 28.6006C78.3778 30.2836 77.1445 31.4386 75.7111 31.4386ZM65.3667 23.9256C62.7556 23.9256 60.6223 25.8946 60.6223 28.6006C60.6223 31.3066 62.7556 33.2756 65.3667 33.2756C67.9778 33.2756 70.1111 31.2956 70.1111 28.6006C70.1111 25.9056 67.9778 23.9256 65.3667 23.9256ZM65.3667 31.4386C63.9334 31.4386 62.7 30.2726 62.7 28.6006C62.7 26.9286 63.9334 25.7626 65.3667 25.7626C66.8 25.7626 68.0334 26.9176 68.0334 28.6006C68.0334 30.2836 66.8 31.4386 65.3667 31.4386ZM53.0556 25.3556V27.3356H57.8556C57.7111 28.4576 57.3334 29.2716 56.7667 29.8326C56.0667 30.5256 54.9778 31.2846 53.0667 31.2846C50.1111 31.2846 47.8 28.9306 47.8 26.0046C47.8 23.0786 50.1111 20.7246 53.0667 20.7246C54.6556 20.7246 55.8223 21.3406 56.6778 22.1436L58.0889 20.7466C56.8889 19.6136 55.3 18.7446 53.0556 18.7446C49.0111 18.7446 45.6111 22.0006 45.6111 26.0156C45.6111 30.0306 49.0111 33.2866 53.0556 33.2866C55.2445 33.2866 56.8889 32.5826 58.1778 31.2516C59.5 29.9426 59.9111 28.0946 59.9111 26.6096C59.9111 26.1476 59.8778 25.7186 59.8 25.3666H53.0556V25.3556ZM103.4 26.8956C103.011 25.8506 101.811 23.9146 99.3556 23.9146C96.9 23.9146 94.9 25.8066 94.9 28.5896C94.9 31.2076 96.9 33.2646 99.5889 33.2646C101.756 33.2646 103.011 31.9556 103.522 31.1966L101.911 30.1296C101.378 30.9106 100.644 31.4276 99.5889 31.4276C98.5334 31.4276 97.7778 30.9436 97.3 30.0086L103.622 27.4236L103.411 26.8956H103.4ZM96.9556 28.4576C96.9 26.6536 98.3667 25.7296 99.4223 25.7296C100.244 25.7296 100.944 26.1366 101.178 26.7196L96.9556 28.4576ZM91.8223 32.9896H93.9V19.2396H91.8223V32.9896ZM88.4223 24.9596H88.3556C87.8889 24.4096 87 23.9146 85.8667 23.9146C83.5 23.9146 81.3334 25.9716 81.3334 28.6116C81.3334 31.2516 83.5 33.2756 85.8667 33.2756C87 33.2756 87.8889 32.7806 88.3556 32.2086H88.4223V32.8796C88.4223 34.6726 87.4556 35.6296 85.9 35.6296C84.6334 35.6296 83.8445 34.7276 83.5223 33.9686L81.7111 34.7166C82.2334 35.9596 83.6111 37.4776 85.9 37.4776C88.3334 37.4776 90.3889 36.0586 90.3889 32.6046V24.2006H88.4223V24.9596ZM86.0445 31.4276C84.6111 31.4276 83.4111 30.2396 83.4111 28.6116C83.4111 26.9836 84.6111 25.7626 86.0445 25.7626C87.4778 25.7626 88.5667 26.9726 88.5667 28.6116C88.5667 30.2506 87.4556 31.4276 86.0445 31.4276ZM113.133 19.2396H108.167V32.9896H110.244V27.7756H113.144C115.444 27.7756 117.7 26.1256 117.7 23.5076C117.7 20.8896 115.444 19.2396 113.144 19.2396H113.133ZM113.189 25.8726H110.244V21.1536H113.189C114.744 21.1536 115.622 22.4296 115.622 23.5076C115.622 24.5856 114.744 25.8616 113.189 25.8616V25.8726ZM126 23.8926C124.5 23.8926 122.944 24.5526 122.3 25.9936L124.144 26.7526C124.533 25.9936 125.267 25.7406 126.033 25.7406C127.1 25.7406 128.2 26.3786 128.211 27.5116V27.6546C127.833 27.4456 127.033 27.1266 126.044 27.1266C124.056 27.1266 122.044 28.2046 122.044 30.2176C122.044 32.0546 123.667 33.2426 125.489 33.2426C126.878 33.2426 127.656 32.6266 128.133 31.9006H128.2V32.9676H130.2V27.6986C130.2 25.2566 128.356 23.8926 125.978 23.8926H126ZM125.744 31.4276C125.067 31.4276 124.122 31.0866 124.122 30.2616C124.122 29.2056 125.3 28.7986 126.322 28.7986C127.233 28.7986 127.667 28.9966 128.211 29.2606C128.056 30.5366 126.944 31.4386 125.744 31.4386V31.4276ZM137.5 24.1896L135.122 30.1516H135.056L132.589 24.1896H130.356L134.056 32.5276L131.944 37.1586H134.111L139.811 24.1896H137.511H137.5ZM118.822 32.9896H120.9V19.2396H118.822V32.9896Z" fill="white"/>
<path d="M23.0222 21.3626L11.1888 33.7926C11.5555 35.1456 12.8 36.1356 14.2777 36.1356C14.8666 36.1356 15.4222 35.9816 15.9 35.6956L15.9333 35.6736L29.2444 28.0726L23.0111 21.3516L23.0222 21.3626Z" fill="#EA4335"/>
<path d="M34.9889 19.2514H34.9778L29.2333 15.9404L22.7556 21.6494L29.2556 28.0844L34.9778 24.8174C35.9778 24.2784 36.6556 23.2334 36.6556 22.0344C36.6556 20.8354 35.9889 19.7904 34.9889 19.2624V19.2514Z" fill="#FBBC04"/>
<path d="M11.1889 10.209C11.1222 10.473 11.0778 10.737 11.0778 11.023V32.99C11.0778 33.276 11.1111 33.54 11.1889 33.804L23.4222 21.693L11.1889 10.209Z" fill="#4285F4"/>
<path d="M23.1111 22.0015L29.2333 15.9405L15.9333 8.30647C15.4555 8.02047 14.8888 7.85547 14.2777 7.85547C12.8 7.85547 11.5555 8.85647 11.1888 10.1985L23.1111 21.9905V22.0015Z" fill="#34A853"/>
<path d="M46.789 15.6965H45.9668V13.4855H46.6224C47.2001 12.9905 47.4779 12.1545 47.4668 10.9555V7.68848H51.9224V13.4745H52.6668V15.6855H51.8446V14.2885H46.789V15.6855V15.6965ZM48.3224 10.9555C48.3335 12.0005 48.1224 12.8365 47.689 13.4855H51.0557V8.50248H48.3224V10.9555Z" fill="white" stroke="white" stroke-width="0.222222" stroke-miterlimit="10"/>
<path d="M59.3446 13.4407C58.689 14.1117 57.8779 14.4417 56.9001 14.4417C55.9223 14.4417 55.1112 14.1117 54.4557 13.4407C53.8001 12.7697 53.4779 11.9557 53.4779 10.9987C53.4779 10.0417 53.8001 9.21666 54.4557 8.55666C55.1112 7.88566 55.9223 7.55566 56.9001 7.55566C57.8779 7.55566 58.6779 7.88566 59.3446 8.55666C60.0001 9.22766 60.3335 10.0417 60.3335 10.9987C60.3335 11.9557 60.0112 12.7807 59.3557 13.4407H59.3446ZM55.089 12.8907C55.5779 13.3857 56.189 13.6277 56.9001 13.6277C57.6112 13.6277 58.2223 13.3857 58.7112 12.8907C59.2001 12.3957 59.4557 11.7687 59.4557 10.9987C59.4557 10.2287 59.2112 9.60166 58.7112 9.10666C58.2223 8.61166 57.6112 8.36966 56.9001 8.36966C56.189 8.36966 55.5779 8.61166 55.089 9.10666C54.6001 9.60166 54.3446 10.2287 54.3446 10.9987C54.3446 11.7687 54.589 12.3957 55.089 12.8907Z" fill="white" stroke="white" stroke-width="0.222222" stroke-miterlimit="10"/>
<path d="M64.6446 14.4422C63.6668 14.4422 62.8446 14.1122 62.1779 13.4522C61.5113 12.7922 61.1779 11.9782 61.1779 10.9882C61.1779 9.99818 61.5113 9.18418 62.1779 8.52418C62.8446 7.86418 63.6668 7.53418 64.6446 7.53418C65.6224 7.53418 66.4668 7.89718 67.089 8.61218L66.489 9.18418C66.0335 8.62318 65.4224 8.34818 64.6335 8.34818C63.9113 8.34818 63.289 8.59018 62.789 9.07418C62.289 9.55818 62.0446 10.1962 62.0446 10.9772C62.0446 11.7582 62.289 12.3962 62.789 12.8802C63.289 13.3642 63.9001 13.6062 64.6335 13.6062C65.4335 13.6062 66.1224 13.2872 66.6779 12.6492L67.2779 13.2432C66.9779 13.6062 66.589 13.8922 66.1335 14.1012C65.6779 14.3102 65.1779 14.4202 64.6335 14.4202L64.6446 14.4422Z" fill="white" stroke="white" stroke-width="0.222222" stroke-miterlimit="10"/>
<path d="M70.7557 14.2992H69.9001V8.51322H68.0334V7.69922H72.6112V8.51322H70.7446V14.2992H70.7557Z" fill="white" stroke="white" stroke-width="0.222222" stroke-miterlimit="10"/>
<path d="M78.5001 7.69922L75.9779 13.2652C75.6335 14.0462 75.1113 14.4422 74.4224 14.4422C74.2224 14.4422 74.0001 14.3982 73.7557 14.2992L73.9779 13.5182C74.1224 13.5952 74.2668 13.6392 74.4224 13.6392C74.6224 13.6392 74.7779 13.6062 74.8779 13.5292C74.9779 13.4522 75.089 13.3092 75.1779 13.1112L75.4224 12.5832L73.1779 7.71022H74.189L75.8335 11.4942H75.8668L77.4779 7.71022H78.489L78.5001 7.69922Z" fill="white" stroke="white" stroke-width="0.222222" stroke-miterlimit="10"/>
<path d="M79.4668 14.2992V7.69922H84.2891V14.2992H83.4335V8.51322H80.3224V14.2992H79.4668Z" fill="white" stroke="white" stroke-width="0.222222" stroke-miterlimit="10"/>
<path d="M85.8112 14.2992V7.69922H86.6668V10.5262H90.0001V7.69922H90.8557V14.2992H90.0001V11.3182H86.6668V14.2992H85.8112Z" fill="white" stroke="white" stroke-width="0.222222" stroke-miterlimit="10"/>
<path d="M97.8446 13.4407C97.189 14.1117 96.3779 14.4417 95.4002 14.4417C94.4224 14.4417 93.6113 14.1117 92.9557 13.4407C92.3002 12.7697 91.9779 11.9557 91.9779 10.9987C91.9779 10.0417 92.3002 9.21666 92.9557 8.55666C93.6113 7.88566 94.4224 7.55566 95.4002 7.55566C96.3779 7.55566 97.1779 7.88566 97.8446 8.55666C98.5002 9.22766 98.8335 10.0417 98.8335 10.9987C98.8335 11.9557 98.5113 12.7807 97.8557 13.4407H97.8446ZM93.5891 12.8907C94.0779 13.3857 94.689 13.6277 95.4002 13.6277C96.1113 13.6277 96.7224 13.3857 97.2113 12.8907C97.7002 12.3957 97.9557 11.7687 97.9557 10.9987C97.9557 10.2287 97.7113 9.60166 97.2113 9.10666C96.7224 8.61166 96.1113 8.36966 95.4002 8.36966C94.689 8.36966 94.0779 8.61166 93.5891 9.10666C93.1002 9.60166 92.8446 10.2287 92.8446 10.9987C92.8446 11.7687 93.0891 12.3957 93.5891 12.8907Z" fill="white" stroke="white" stroke-width="0.222222" stroke-miterlimit="10"/>
<path d="M102.322 14.2992V7.69922H104.733C105.256 7.69922 105.711 7.87522 106.089 8.20522C106.467 8.54622 106.667 8.97522 106.667 9.49222C106.667 9.81122 106.589 10.0862 106.422 10.3172C106.256 10.5592 106.045 10.7352 105.767 10.8562V10.8892C106.1 10.9992 106.367 11.1862 106.578 11.4612C106.789 11.7362 106.9 12.0442 106.9 12.4072C106.9 12.9462 106.7 13.3972 106.3 13.7492C105.9 14.1012 105.422 14.2882 104.878 14.2882H102.333L102.322 14.2992ZM103.178 10.5262H104.733C105.056 10.5262 105.311 10.4162 105.511 10.2072C105.711 9.99822 105.8 9.76722 105.8 9.51422C105.8 9.26122 105.711 9.03022 105.511 8.82122C105.322 8.61222 105.078 8.50222 104.767 8.50222H103.178V10.5262ZM103.178 13.4852H104.9C105.233 13.4852 105.5 13.3752 105.7 13.1442C105.9 12.9132 106.011 12.6712 106.011 12.3962C106.011 12.1212 105.911 11.8792 105.689 11.6592C105.478 11.4392 105.2 11.3182 104.856 11.3182H103.167V13.4852H103.178Z" fill="white" stroke="white" stroke-width="0.222222" stroke-miterlimit="10"/>
</svg>
