<svg width="25" height="25" viewBox="0 0 25 25" fill="none" xmlns="http://www.w3.org/2000/svg">
<path fill-rule="evenodd" clip-rule="evenodd" d="M22.3599 12.3574C22.3599 17.8675 17.8931 22.3343 12.3831 22.3343C6.87303 22.3343 2.40625 17.8675 2.40625 12.3574C2.40625 6.84739 6.87303 2.38062 12.3831 2.38062C17.8931 2.38062 22.3599 6.84739 22.3599 12.3574ZM12.7406 9.74594C11.7702 10.1496 9.83078 10.985 6.92234 12.2521C6.45005 12.4399 6.20264 12.6237 6.18012 12.8033C6.14206 13.1069 6.52228 13.2265 7.04004 13.3893C7.11047 13.4115 7.18345 13.4344 7.25826 13.4587C7.76766 13.6243 8.45289 13.818 8.80911 13.8257C9.13224 13.8327 9.49289 13.6995 9.89106 13.4261C12.6085 11.5917 14.0113 10.6645 14.0993 10.6446C14.1615 10.6305 14.2476 10.6127 14.3059 10.6646C14.3642 10.7164 14.3585 10.8146 14.3523 10.841C14.3147 11.0015 12.8221 12.3891 12.0498 13.1072C11.809 13.331 11.6382 13.4898 11.6033 13.5261C11.5251 13.6073 11.4454 13.6842 11.3687 13.758C10.8955 14.2142 10.5406 14.5563 11.3884 15.115C11.7958 15.3835 12.1218 15.6055 12.447 15.827C12.8022 16.0689 13.1565 16.3101 13.6149 16.6106C13.7317 16.6872 13.8432 16.7667 13.9518 16.8441C14.3652 17.1388 14.7366 17.4036 15.1954 17.3613C15.462 17.3368 15.7373 17.0861 15.8772 16.3385C16.2077 14.5716 16.8574 10.7432 17.0075 9.16566C17.0207 9.02745 17.0041 8.85056 16.9908 8.77291C16.9775 8.69526 16.9498 8.58462 16.8488 8.50272C16.7293 8.40573 16.5448 8.38528 16.4622 8.38673C16.087 8.39334 15.5113 8.59353 12.7406 9.74594Z" fill="#3E3838"/>
</svg>
