<svg width="25" height="25" viewBox="0 0 25 25" fill="none" xmlns="http://www.w3.org/2000/svg">
<path d="M12.8684 4.98464C15.2708 4.98464 15.5553 4.99517 16.5001 5.03732C17.3782 5.07596 17.8524 5.22347 18.1685 5.3464C18.5864 5.50797 18.8885 5.70465 19.2011 6.01725C19.5172 6.33335 19.7104 6.6319 19.8719 7.04986C19.9949 7.36596 20.1424 7.84363 20.181 8.71819C20.2232 9.6665 20.2337 9.951 20.2337 12.3499C20.2337 14.7523 20.2232 15.0368 20.181 15.9816C20.1424 16.8596 19.9949 17.3338 19.8719 17.6499C19.7104 18.0679 19.5137 18.3699 19.2011 18.6825C18.885 18.9986 18.5864 19.1918 18.1685 19.3534C17.8524 19.4763 17.3747 19.6238 16.5001 19.6624C15.5518 19.7046 15.2673 19.7151 12.8684 19.7151C10.466 19.7151 10.1816 19.7046 9.23675 19.6624C8.35868 19.6238 7.88452 19.4763 7.56842 19.3534C7.15046 19.1918 6.8484 18.9951 6.53581 18.6825C6.2197 18.3664 6.02653 18.0679 5.86496 17.6499C5.74203 17.3338 5.59452 16.8561 5.55588 15.9816C5.51374 15.0333 5.5032 14.7488 5.5032 12.3499C5.5032 9.94748 5.51374 9.66299 5.55588 8.71819C5.59452 7.84012 5.74203 7.36596 5.86496 7.04986C6.02653 6.6319 6.22321 6.32984 6.53581 6.01725C6.85191 5.70114 7.15046 5.50797 7.56842 5.3464C7.88452 5.22347 8.36219 5.07596 9.23675 5.03732C10.1816 4.99517 10.466 4.98464 12.8684 4.98464ZM12.8684 3.36548C10.4274 3.36548 10.1218 3.37602 9.16299 3.41816C8.20765 3.46031 7.55086 3.61485 6.98187 3.83612C6.38829 4.06793 5.88604 4.3735 5.38729 4.87576C4.88504 5.3745 4.57947 5.87676 4.34766 6.46682C4.12639 7.03932 3.97185 7.6926 3.9297 8.64794C3.88755 9.61031 3.87701 9.91587 3.87701 12.3569C3.87701 14.7979 3.88755 15.1035 3.9297 16.0624C3.97185 17.0177 4.12639 17.6745 4.34766 18.2435C4.57947 18.8371 4.88504 19.3393 5.38729 19.8381C5.88604 20.3368 6.38829 20.6459 6.97835 20.8742C7.55086 21.0954 8.20414 21.25 9.15948 21.2921C10.1183 21.3343 10.4239 21.3448 12.8649 21.3448C15.306 21.3448 15.6115 21.3343 16.5704 21.2921C17.5257 21.25 18.1825 21.0954 18.7515 20.8742C19.3416 20.6459 19.8438 20.3368 20.3426 19.8381C20.8413 19.3393 21.1504 18.8371 21.3787 18.247C21.6 17.6745 21.7545 17.0212 21.7966 16.0659C21.8388 15.107 21.8493 14.8015 21.8493 12.3604C21.8493 9.91939 21.8388 9.61382 21.7966 8.65497C21.7545 7.69963 21.6 7.04283 21.3787 6.47384C21.1574 5.87676 20.8518 5.3745 20.3496 4.87576C19.8508 4.37701 19.3486 4.06793 18.7585 3.83964C18.186 3.61836 17.5327 3.46382 16.5774 3.42167C15.615 3.37602 15.3095 3.36548 12.8684 3.36548Z" fill="#3E3838"/>
<path fill-rule="evenodd" clip-rule="evenodd" d="M12.8684 4.98464C15.2708 4.98464 15.5553 4.99517 16.5001 5.03732C17.3782 5.07596 17.8524 5.22347 18.1685 5.3464C18.5864 5.50797 18.8885 5.70465 19.2011 6.01725C19.5172 6.33335 19.7104 6.6319 19.8719 7.04986C19.9949 7.36596 20.1424 7.84363 20.181 8.71819C20.2232 9.6665 20.2337 9.951 20.2337 12.3499C20.2337 14.7523 20.2232 15.0368 20.181 15.9816C20.1424 16.8596 19.9949 17.3338 19.8719 17.6499C19.7104 18.0679 19.5137 18.3699 19.2011 18.6825C18.885 18.9986 18.5864 19.1918 18.1685 19.3534C17.8524 19.4763 17.3747 19.6238 16.5001 19.6624C15.5518 19.7046 15.2673 19.7151 12.8684 19.7151C10.466 19.7151 10.1816 19.7046 9.23675 19.6624C8.35868 19.6238 7.88452 19.4763 7.56842 19.3534C7.15046 19.1918 6.8484 18.9951 6.53581 18.6825C6.2197 18.3664 6.02653 18.0679 5.86496 17.6499C5.74203 17.3338 5.59452 16.8561 5.55588 15.9816C5.51374 15.0333 5.5032 14.7488 5.5032 12.3499C5.5032 9.94748 5.51374 9.66299 5.55588 8.71819C5.59452 7.84012 5.74203 7.36596 5.86496 7.04986C6.02653 6.6319 6.22321 6.32984 6.53581 6.01725C6.85191 5.70114 7.15046 5.50797 7.56842 5.3464C7.88452 5.22347 8.36219 5.07596 9.23675 5.03732C10.1816 4.99517 10.466 4.98464 12.8684 4.98464ZM8.2498 12.3569C8.2498 9.80699 10.3185 7.73826 12.8684 7.73826C15.4184 7.73826 17.4871 9.80699 17.4871 12.3569C17.4871 14.9068 15.4184 16.9755 12.8684 16.9755C10.3185 16.9755 8.2498 14.9068 8.2498 12.3569ZM17.6697 8.63386C18.2633 8.63386 18.748 8.15268 18.748 7.55559C18.748 6.96202 18.2633 6.47732 17.6697 6.47732C17.0761 6.47732 16.5915 6.9585 16.5915 7.55559C16.5915 8.14917 17.0726 8.63386 17.6697 8.63386Z" fill="#3E3838"/>
<path d="M12.8684 15.3529C11.2142 15.3529 9.87247 14.0112 9.87247 12.3569C9.87247 10.7026 11.2142 9.36093 12.8684 9.36093C14.5227 9.36093 15.8644 10.7026 15.8644 12.3569C15.8644 14.0112 14.5227 15.3529 12.8684 15.3529Z" fill="#3E3838"/>
</svg>
