<svg width="25" height="25" viewBox="0 0 25 25" fill="none" xmlns="http://www.w3.org/2000/svg">
<path d="M22.3342 12.3575C22.3342 6.84745 17.8674 2.38067 12.3574 2.38067C6.84734 2.38067 2.38055 6.84745 2.38055 12.3575C2.38055 17.0364 5.60167 20.9624 9.94721 22.0405V15.4062H7.88991V12.3575H9.94721V11.0438C9.94721 7.64799 11.484 6.07405 14.8178 6.07405C15.4499 6.07405 16.5405 6.19796 16.9867 6.32191V9.08565C16.7512 9.06087 16.3422 9.04846 15.8341 9.04846C14.1981 9.04846 13.566 9.66813 13.566 11.2793V12.3575H16.8248L16.265 15.4062H13.566V22.2612C18.506 21.6646 22.3342 17.4584 22.3342 12.3575Z" fill="#3E3838"/>
</svg>
