<svg width="77" height="77" viewBox="0 0 77 77" fill="none" xmlns="http://www.w3.org/2000/svg">
<circle cx="38.5" cy="38.5" r="38.5" fill="#BFEDFF"/>
<path fill-rule="evenodd" clip-rule="evenodd" d="M24.6666 31.3335H51.3333C53.175 31.3335 54.6666 32.8252 54.6666 34.6668V51.3335C54.6666 53.1752 53.175 54.6668 51.3333 54.6668H24.6666C22.825 54.6668 21.3333 53.1752 21.3333 51.3335V34.6668C21.3333 32.8252 22.825 31.3335 24.6666 31.3335Z" stroke="#3E3838" stroke-width="1.5" stroke-linecap="round" stroke-linejoin="round"/>
<path d="M40.9463 40.0539C42.5735 41.6811 42.5735 44.3193 40.9463 45.9464C39.3192 47.5736 36.681 47.5736 35.0538 45.9464C33.4266 44.3192 33.4266 41.6811 35.0538 40.0539C36.681 38.4267 39.3192 38.4267 40.9463 40.0539" stroke="#3E3838" stroke-width="1.5" stroke-linecap="round" stroke-linejoin="round"/>
<path d="M48 47.1668V38.8335" stroke="#3E3838" stroke-width="1.5" stroke-linecap="round" stroke-linejoin="round"/>
<path d="M28 47.1668V38.8335" stroke="#3E3838" stroke-width="1.5" stroke-linecap="round" stroke-linejoin="round"/>
<path d="M51.3334 26.3333H24.6667" stroke="#323232" stroke-width="1.5" stroke-linecap="round" stroke-linejoin="round"/>
<path d="M49.6666 21.3333H26.3333" stroke="#323232" stroke-width="1.5" stroke-linecap="round" stroke-linejoin="round"/>
</svg>
