<svg width="77" height="77" viewBox="0 0 77 77" fill="none" xmlns="http://www.w3.org/2000/svg">
<circle cx="38.5" cy="38.5" r="38.5" fill="#BFEDFF"/>
<path d="M38.782 23.0381C41.0548 25.311 41.0548 28.996 38.782 31.2689C36.5091 33.5417 32.8241 33.5417 30.5513 31.2689C28.2784 28.996 28.2784 25.311 30.5513 23.0381C32.8241 20.7653 36.5091 20.7653 38.782 23.0381" stroke="#323232" stroke-width="1.5" stroke-linecap="round" stroke-linejoin="round"/>
<path d="M41.9383 39.327C39.7733 38.462 37.2333 37.9854 34.6666 37.9854C27.92 37.9854 21.3333 41.2637 21.3333 46.3054V47.972C21.3333 48.892 22.08 49.6387 23 49.6387H38.6883" stroke="#3E3838" stroke-width="1.5" stroke-linecap="round" stroke-linejoin="round"/>
<path d="M46.3333 54.6667C41.7317 54.6667 38 50.9367 38 46.3333C38 41.8267 41.8333 37.995 46.34 38C50.94 38.0033 54.6667 41.7333 54.6667 46.3333C54.6667 50.935 50.9367 54.6667 46.3333 54.6667" stroke="#3E3838" stroke-width="1.5" stroke-linecap="round" stroke-linejoin="round"/>
<path d="M49.28 45.2769L46.3333 48.2235L43.3867 45.2769" stroke="#3E3838" stroke-width="1.5" stroke-linecap="round" stroke-linejoin="round"/>
</svg>
