<svg width="25" height="25" viewBox="0 0 25 25" fill="none" xmlns="http://www.w3.org/2000/svg">
<path fill-rule="evenodd" clip-rule="evenodd" d="M20.6556 22.3343H5.13614C3.91168 22.3343 2.91907 21.3416 2.91907 20.1172V4.59769C2.91907 3.37323 3.91168 2.38062 5.13614 2.38062H20.6556C21.8801 2.38062 22.8727 3.37323 22.8727 4.59769V20.1172C22.8727 21.3416 21.8801 22.3343 20.6556 22.3343ZM17.0098 19.3412H19.8797V13.4456C19.8797 10.9511 18.4656 9.74503 16.4905 9.74503C14.5145 9.74503 13.6829 11.2838 13.6829 11.2838V10.0295H10.9172V19.3412H13.6829V14.4531C13.6829 13.1434 14.2858 12.364 15.4398 12.364C16.5005 12.364 17.0098 13.113 17.0098 14.4531V19.3412ZM5.91211 7.09194C5.91211 8.04083 6.67551 8.81022 7.61759 8.81022C8.55967 8.81022 9.32261 8.04083 9.32261 7.09194C9.32261 6.14305 8.55967 5.37366 7.61759 5.37366C6.67551 5.37366 5.91211 6.14305 5.91211 7.09194ZM9.07345 19.3412H6.18946V10.0295H9.07345V19.3412Z" fill="#3E3838"/>
</svg>
