<svg width="77" height="77" viewBox="0 0 77 77" fill="none" xmlns="http://www.w3.org/2000/svg">
<circle cx="38.5" cy="38.5" r="38.5" fill="#BFEDFF"/>
<path d="M32.1667 44.6666C32.1667 44.6666 34.355 42.48 38 42.48C41.6467 42.48 43.8334 44.6666 43.8334 44.6666" stroke="#3E3838" stroke-width="1.5" stroke-linecap="round" stroke-linejoin="round"/>
<path d="M48.6067 27.3934C54.4646 33.2513 54.4646 42.7487 48.6067 48.6066C42.7488 54.4644 33.2514 54.4644 27.3935 48.6066C21.5357 42.7487 21.5357 33.2512 27.3935 27.3934C33.2514 21.5355 42.7489 21.5355 48.6067 27.3934" stroke="#3E3838" stroke-width="1.5" stroke-linecap="round" stroke-linejoin="round"/>
<path d="M46.3333 33.4002C45.675 34.2085 44.775 34.6669 43.8333 34.6669C42.8916 34.6669 42.0166 34.2085 41.3333 33.4002" stroke="#3E3838" stroke-width="1.5" stroke-linecap="round" stroke-linejoin="round"/>
<path d="M34.6667 33.4002C34.0084 34.2085 33.1084 34.6669 32.1667 34.6669C31.225 34.6669 30.35 34.2085 29.6667 33.4002" stroke="#3E3838" stroke-width="1.5" stroke-linecap="round" stroke-linejoin="round"/>
</svg>
