<svg width="966" height="379" viewBox="0 0 966 379" fill="none" xmlns="http://www.w3.org/2000/svg">
<circle cx="22" cy="236" r="7" fill="white"/>
<circle cx="957" cy="121" r="9" fill="white"/>
<circle cx="587" cy="6" r="6" fill="white"/>
<g clip-path="url(#clip0_280_2266)">
<path d="M210.749 231.504C198.445 237.948 186.146 244.41 173.846 250.867C171.039 252.339 168.232 253.807 165.44 255.299C165.221 255.417 165.098 255.721 164.926 255.937C165.139 256.084 165.352 256.235 165.569 256.381C165.62 256.416 165.692 256.408 165.756 256.421C170.006 257.447 174.259 258.483 178.517 259.483C179.016 259.599 179.209 259.841 179.332 260.311C179.844 262.326 180.391 264.332 180.93 266.34C181.328 267.824 181.723 269.31 182.135 270.792C182.319 271.46 182.657 271.53 183.122 271.022C183.266 270.864 183.403 270.695 183.546 270.533C185.411 268.367 187.277 266.201 189.172 264C189.448 264.103 189.669 264.187 189.89 264.271C194.887 266.231 199.888 268.19 204.884 270.146C205.733 270.48 205.871 270.395 206.01 269.479C206.567 265.825 207.125 262.171 207.686 258.517C209.029 249.753 210.373 240.993 211.701 232.228C211.745 231.944 211.619 231.635 211.575 231.334C211.3 231.391 210.99 231.38 210.75 231.508L210.749 231.504ZM178.712 258.606C175.03 257.693 171.337 256.816 167.651 255.928C167.369 255.859 167.089 255.78 166.681 255.675C180.376 248.482 193.946 241.356 207.521 234.228C207.544 234.265 207.567 234.302 207.59 234.339C204.137 237.33 200.684 240.321 197.227 243.313C191.452 248.315 185.676 253.313 179.913 258.327C179.527 258.66 179.202 258.724 178.711 258.602L178.712 258.606ZM182.539 268.303C182.499 268.312 182.458 268.317 182.413 268.323C181.785 265.983 181.266 263.607 180.492 261.321C179.997 259.859 180.366 259.067 181.496 258.107C189.023 251.688 196.479 245.182 203.955 238.705C202.691 240.216 201.451 241.746 200.127 243.201C194.757 249.092 189.344 254.942 183.966 260.821C183.726 261.081 183.55 261.477 183.495 261.83C183.155 263.983 182.854 266.141 182.543 268.301L182.539 268.303ZM183.444 269.236C183.406 269.217 183.375 269.201 183.337 269.182C183.671 266.846 184.009 264.509 184.353 262.101C185.67 262.615 186.915 263.103 188.272 263.631C186.621 265.547 185.033 267.392 183.444 269.236ZM205.119 269.245C198.327 266.584 191.606 263.948 184.779 261.276C193.381 251.919 201.927 242.622 210.474 233.325C210.522 233.352 210.569 233.373 210.617 233.399C208.79 245.323 206.957 257.248 205.12 269.249L205.119 269.245Z" fill="#48A7F8" stroke="#48A7F8" stroke-miterlimit="10"/>
</g>
<path d="M741.681 344.195C741.897 343.785 742.007 343.328 742 342.865C741.993 342.402 741.87 341.948 741.642 341.545C741.414 341.142 741.088 340.802 740.695 340.558C740.302 340.313 739.853 340.172 739.391 340.146L737.743 340.049L738.873 338.842C739.306 338.381 739.568 337.786 739.615 337.156C739.662 336.526 739.492 335.898 739.133 335.378C738.774 334.858 738.248 334.477 737.642 334.297C737.036 334.118 736.387 334.152 735.803 334.393L734.272 335.023L734.767 333.443V333.437C734.955 332.834 734.932 332.185 734.7 331.598C734.468 331.011 734.043 330.52 733.494 330.209C732.945 329.897 732.306 329.782 731.683 329.884C731.06 329.985 730.49 330.297 730.069 330.767L728.963 331.999L728.723 330.357C728.63 329.732 728.326 329.159 727.862 328.732C727.398 328.304 726.801 328.048 726.172 328.006C725.542 327.964 724.917 328.139 724.4 328.501C723.884 328.864 723.507 329.392 723.332 329.998L722.871 331.584L721.946 330.215C721.593 329.691 721.071 329.303 720.467 329.117C719.863 328.931 719.214 328.957 718.627 329.191C718.04 329.426 717.551 329.854 717.242 330.405C716.932 330.956 716.821 331.597 716.927 332.22L717.2 333.851L715.773 333.016C715.227 332.697 714.589 332.574 713.964 332.668C713.34 332.762 712.766 333.067 712.339 333.533C711.912 333.999 711.657 334.596 711.617 335.227C711.577 335.858 711.755 336.483 712.12 336.998L713.078 338.351L711.422 338.22C710.793 338.17 710.166 338.338 709.645 338.694C709.124 339.05 708.741 339.574 708.559 340.178C708.377 340.783 708.407 341.431 708.644 342.016C708.881 342.601 709.311 343.087 709.863 343.393L711.311 344.197L709.766 344.795C709.177 345.023 708.684 345.446 708.369 345.993C708.054 346.54 707.936 347.178 708.033 347.802C708.131 348.426 708.44 348.997 708.907 349.421C709.375 349.845 709.973 350.097 710.604 350.134L712.257 350.23L711.125 351.439C710.694 351.899 710.433 352.493 710.386 353.122C710.339 353.751 710.508 354.377 710.866 354.896C711.224 355.416 711.748 355.797 712.352 355.978C712.956 356.158 713.604 356.126 714.188 355.888L715.727 355.254L715.233 356.834C715.044 357.436 715.067 358.085 715.298 358.673C715.529 359.26 715.954 359.751 716.503 360.063C717.052 360.376 717.691 360.491 718.314 360.39C718.937 360.289 719.507 359.978 719.929 359.508L721.035 358.276L721.274 359.919C721.366 360.544 721.669 361.118 722.132 361.547C722.596 361.976 723.192 362.233 723.822 362.276C723.883 362.28 723.945 362.282 724.006 362.282C724.606 362.283 725.189 362.089 725.669 361.729C726.148 361.37 726.498 360.864 726.666 360.288L727.127 358.698L728.054 360.067L728.058 360.074C728.413 360.596 728.935 360.98 729.539 361.164C730.142 361.348 730.79 361.32 731.376 361.085C731.961 360.85 732.449 360.422 732.757 359.872C733.066 359.322 733.177 358.682 733.072 358.06L732.798 356.429L734.228 357.263C734.774 357.582 735.412 357.704 736.037 357.61C736.661 357.515 737.235 357.209 737.662 356.743C738.088 356.277 738.343 355.679 738.382 355.049C738.421 354.418 738.244 353.793 737.878 353.277L736.924 351.927L738.571 352.058C739.201 352.11 739.829 351.944 740.351 351.588C740.874 351.232 741.258 350.708 741.441 350.103C741.625 349.499 741.595 348.849 741.358 348.264C741.12 347.678 740.689 347.191 740.137 346.885L738.689 346.082L740.233 345.484C740.856 345.244 741.37 344.786 741.681 344.195ZM729.458 345.453C729.433 345.818 729.482 346.185 729.601 346.531C729.309 346.755 729.065 347.034 728.883 347.354C728.702 347.673 728.586 348.026 728.543 348.39C728.183 348.465 727.842 348.611 727.539 348.82C727.237 349.028 726.98 349.296 726.783 349.606C726.426 349.517 726.056 349.501 725.693 349.558C725.33 349.614 724.982 349.744 724.67 349.937C724.387 349.703 724.06 349.527 723.708 349.422C723.356 349.316 722.987 349.282 722.622 349.321C722.469 348.987 722.252 348.687 721.981 348.439C721.711 348.191 721.393 347.999 721.048 347.876C721.055 347.509 720.988 347.144 720.852 346.803C720.716 346.462 720.513 346.152 720.254 345.891C720.42 345.563 720.519 345.205 720.544 344.839C720.569 344.472 720.52 344.104 720.401 343.757C720.693 343.533 720.937 343.252 721.118 342.932C721.299 342.612 721.415 342.259 721.457 341.894C721.817 341.819 722.158 341.673 722.46 341.464C722.762 341.255 723.019 340.988 723.217 340.678C723.573 340.767 723.944 340.784 724.307 340.727C724.67 340.67 725.018 340.54 725.33 340.346C725.613 340.581 725.94 340.757 726.292 340.862C726.643 340.968 727.013 341.002 727.378 340.962C727.53 341.296 727.748 341.597 728.018 341.845C728.289 342.093 728.606 342.285 728.952 342.408C728.945 342.775 729.012 343.14 729.148 343.481C729.284 343.822 729.488 344.132 729.746 344.393C729.58 344.723 729.482 345.084 729.458 345.453Z" fill="#FFD14C"/>
<path d="M440.794 19.479C440.933 19.2139 441.004 18.918 441 18.6184C440.995 18.3188 440.916 18.0251 440.768 17.7642C440.621 17.5034 440.41 17.2838 440.156 17.1257C439.901 16.9675 439.611 16.8757 439.312 16.8589L438.245 16.7965L438.977 16.0152C439.257 15.7171 439.426 15.3322 439.457 14.9244C439.487 14.5167 439.377 14.1107 439.145 13.7742C438.913 13.4377 438.572 13.1908 438.18 13.0748C437.788 12.9588 437.368 12.9806 436.99 13.1365L435.999 13.5444L436.32 12.5218V12.5178C436.442 12.1279 436.426 11.708 436.276 11.328C436.127 10.9481 435.851 10.6308 435.496 10.4291C435.141 10.2273 434.727 10.1531 434.324 10.2189C433.921 10.2846 433.552 10.4864 433.28 10.7906L432.564 11.5877L432.409 10.5248C432.349 10.121 432.152 9.74998 431.852 9.47333C431.551 9.19667 431.166 9.03105 430.758 9.00395C430.351 8.97685 429.946 9.0899 429.612 9.32434C429.278 9.55877 429.034 9.90049 428.92 10.2928L428.622 11.3189L428.024 10.4332C427.795 10.094 427.458 9.84323 427.067 9.72273C426.676 9.60223 426.256 9.61923 425.876 9.7709C425.496 9.92257 425.18 10.1998 424.98 10.5563C424.78 10.9128 424.708 11.3272 424.776 11.7303L424.953 12.7862L424.029 12.2454C423.676 12.0389 423.264 11.9596 422.859 12.0205C422.455 12.0814 422.084 12.2789 421.808 12.5802C421.531 12.8815 421.366 13.2683 421.341 13.6763C421.315 14.0843 421.43 14.4888 421.666 14.8225L422.286 15.6977L421.214 15.6126C420.807 15.5807 420.401 15.6891 420.064 15.9196C419.727 16.1502 419.479 16.4891 419.361 16.8801C419.244 17.2711 419.263 17.6907 419.417 18.0691C419.57 18.4475 419.849 18.762 420.205 18.9604L421.143 19.4803L420.143 19.8674C419.762 20.015 419.443 20.2885 419.239 20.6425C419.035 20.9964 418.958 21.4095 419.022 21.813C419.085 22.2166 419.284 22.5863 419.587 22.8608C419.89 23.1353 420.277 23.298 420.685 23.3218L421.755 23.3843L421.022 24.1664C420.743 24.4643 420.575 24.8485 420.544 25.2554C420.514 25.6623 420.623 26.0673 420.854 26.4034C421.086 26.7395 421.425 26.9864 421.816 27.1031C422.207 27.2198 422.626 27.1994 423.004 27.0451L424 26.635L423.68 27.6572C423.558 28.047 423.573 28.4669 423.722 28.847C423.872 29.2271 424.147 29.5446 424.502 29.7468C424.857 29.9489 425.27 30.0235 425.674 29.9581C426.077 29.8928 426.445 29.6914 426.718 29.3875L427.434 28.5903L427.589 29.6533C427.648 30.0576 427.844 30.4294 428.144 30.7069C428.444 30.9844 428.83 31.1508 429.238 31.1785C429.277 31.1812 429.317 31.1825 429.357 31.1825C429.745 31.183 430.122 31.0574 430.433 30.8247C430.743 30.592 430.969 30.2649 431.078 29.8924L431.376 28.8632L431.976 29.7489L431.979 29.7538C432.208 30.0914 432.546 30.3403 432.937 30.4593C433.327 30.5784 433.747 30.5603 434.126 30.4082C434.504 30.2561 434.82 29.979 435.019 29.623C435.219 29.2669 435.291 28.8534 435.223 28.4508L435.046 27.395L435.971 27.9349C436.324 28.1412 436.737 28.2203 437.141 28.1591C437.546 28.098 437.917 27.9001 438.193 27.5986C438.469 27.2971 438.633 26.9101 438.659 26.5021C438.684 26.094 438.569 25.6895 438.333 25.356L437.716 24.4822L438.781 24.5672C439.189 24.6003 439.595 24.4929 439.933 24.2627C440.271 24.0325 440.52 23.6936 440.639 23.3022C440.757 22.9109 440.738 22.4907 440.584 22.1118C440.431 21.7329 440.152 21.4179 439.794 21.2195L438.858 20.7004L439.857 20.3134C440.26 20.1576 440.593 19.8612 440.794 19.479ZM432.885 20.293C432.869 20.5295 432.9 20.7668 432.977 20.991C432.788 21.1353 432.63 21.3162 432.513 21.5229C432.395 21.7295 432.32 21.9577 432.293 22.1938C432.06 22.242 431.839 22.3364 431.643 22.4715C431.447 22.6066 431.281 22.7797 431.153 22.9804C430.923 22.9229 430.683 22.9122 430.448 22.949C430.213 22.9858 429.988 23.0694 429.786 23.1947C429.603 23.043 429.392 22.9295 429.164 22.8611C428.937 22.7926 428.697 22.7705 428.461 22.7961C428.363 22.5801 428.222 22.386 428.047 22.2253C427.872 22.0646 427.666 21.9407 427.443 21.8608C427.447 21.6233 427.404 21.3872 427.316 21.1666C427.228 20.946 427.096 20.7453 426.929 20.5764C427.037 20.3643 427.1 20.1328 427.117 19.8956C427.133 19.6584 427.101 19.4204 427.024 19.1955C427.213 19.0506 427.371 18.8693 427.488 18.6622C427.606 18.4551 427.68 18.2265 427.707 17.99C427.94 17.9417 428.161 17.8472 428.356 17.7121C428.552 17.577 428.718 17.404 428.846 17.2035C429.077 17.2611 429.317 17.2719 429.552 17.235C429.787 17.1981 430.012 17.1143 430.214 16.9887C430.396 17.1406 430.608 17.2542 430.836 17.3227C431.063 17.3912 431.302 17.4131 431.539 17.3873C431.637 17.6035 431.778 17.7978 431.953 17.9584C432.128 18.1191 432.334 18.243 432.557 18.3226C432.553 18.5602 432.596 18.7963 432.684 19.0169C432.772 19.2375 432.904 19.4382 433.071 19.607C432.963 19.8207 432.9 20.0541 432.885 20.293Z" fill="white"/>
<g clip-path="url(#clip1_280_2266)">
<path d="M825.517 147.353C840.262 151.964 855.006 156.596 869.75 161.222C873.113 162.276 876.477 163.325 879.829 164.404C880.092 164.491 880.287 164.798 880.518 165C880.314 165.203 880.111 165.412 879.902 165.614C879.854 165.663 879.773 165.669 879.706 165.695C875.258 167.662 870.809 169.639 866.347 171.579C865.824 171.805 865.66 172.108 865.62 172.647C865.459 174.953 865.258 177.257 865.067 179.562C864.925 181.266 864.789 182.971 864.632 184.674C864.563 185.442 864.206 185.585 863.596 185.122C863.408 184.978 863.225 184.819 863.036 184.671C860.564 182.67 858.092 180.67 855.582 178.637C855.3 178.805 855.075 178.941 854.85 179.076C849.77 182.213 844.685 185.35 839.605 188.482C838.742 189.016 838.574 188.95 838.24 187.976C836.905 184.087 835.57 180.199 834.23 176.31C831.021 166.985 827.812 157.664 824.619 148.335C824.514 148.033 824.591 147.669 824.579 147.331C824.892 147.338 825.229 147.265 825.517 147.358L825.517 147.353ZM865.96 170.658C869.809 168.928 873.676 167.235 877.534 165.532C877.829 165.4 878.12 165.258 878.545 165.062C862.13 159.907 845.863 154.801 829.591 149.695C829.573 149.74 829.555 149.785 829.538 149.83C833.91 152.418 838.283 155.006 842.66 157.594C849.974 161.923 857.287 166.247 864.59 170.59C865.079 170.879 865.447 170.884 865.96 170.653L865.96 170.658ZM863.696 182.03C863.741 182.032 863.786 182.03 863.837 182.028C864.06 179.341 864.157 176.638 864.55 173.982C864.802 172.284 864.241 171.491 862.814 170.664C853.301 165.132 843.85 159.492 834.382 153.886C836.065 155.289 837.726 156.717 839.464 158.047C846.511 163.429 853.596 168.757 860.649 174.124C860.964 174.362 861.234 174.76 861.364 175.136C862.164 177.425 862.922 179.727 863.691 182.029L863.696 182.03ZM862.89 183.231C862.927 183.203 862.959 183.179 862.996 183.15C862.167 180.66 861.334 178.17 860.479 175.602C859.14 176.426 857.874 177.208 856.493 178.055C858.68 179.824 860.785 181.528 862.89 183.231ZM839.169 187.543C846.074 183.282 852.907 179.063 859.849 174.784C848.578 166.25 837.379 157.771 826.18 149.292C826.132 149.33 826.085 149.363 826.038 149.402C830.404 162.089 834.776 174.777 839.168 187.548L839.169 187.543Z" fill="#FFC462" stroke="#FFC462" stroke-miterlimit="10"/>
</g>
<path d="M25.7385 105.062C21.3951 102.345 19.2154 100.23 16.4185 96.0154L14.4203 93L12.4215 96.0117C9.62277 100.229 7.44615 102.343 3.10215 105.062L0 107.001L3.10215 108.942C7.44554 111.659 9.62523 113.773 12.4215 117.988L14.4203 121L16.4185 117.988C19.2172 113.771 21.3951 111.657 25.7385 108.942L28.84 107.002L25.7385 105.062ZM17.1366 109.64C16.1605 110.592 15.2528 111.612 14.4203 112.692C13.5876 111.613 12.6797 110.593 11.7034 109.641C10.7187 108.69 9.6685 107.808 8.56062 107.004C9.66821 106.199 10.7183 105.317 11.7034 104.366C12.6795 103.414 13.5874 102.394 14.4203 101.314C15.253 102.394 16.1607 103.414 17.1366 104.366C18.1217 105.317 19.1718 106.199 20.2794 107.004C19.1716 107.808 18.1214 108.688 17.1366 109.639V109.64Z" fill="#1AAAE2"/>
<path d="M277.204 364.631C273.288 362.182 271.323 360.275 268.802 356.476L267 353.757L265.198 356.472C262.675 360.274 260.713 362.181 256.797 364.631L254 366.38L256.797 368.129C260.712 370.579 262.677 372.485 265.198 376.284L267 379L268.802 376.285C271.325 372.483 273.288 370.577 277.204 368.13L280 366.38L277.204 364.631ZM269.449 368.759C268.569 369.617 267.751 370.537 267 371.51C266.25 370.537 265.431 369.618 264.551 368.76C263.663 367.902 262.716 367.107 261.718 366.382C262.716 365.656 263.663 364.862 264.551 364.004C265.431 363.146 266.249 362.226 267 361.253C267.751 362.226 268.569 363.146 269.449 364.004C270.337 364.862 271.284 365.656 272.282 366.382C271.284 367.107 270.337 367.901 269.449 368.758V368.759Z" fill="white"/>
<defs>
<clipPath id="clip0_280_2266">
<rect width="51.6774" height="37.0226" fill="white" transform="translate(161.5 243.077) rotate(-13.5148)"/>
</clipPath>
<clipPath id="clip1_280_2266">
<rect width="57.4821" height="41.1812" fill="white" transform="matrix(-0.998404 -0.05647 -0.05647 0.998404 881.716 150.246)"/>
</clipPath>
</defs>
</svg>
