<svg width="126" height="38" viewBox="0 0 126 38" fill="none" xmlns="http://www.w3.org/2000/svg">
<g id="Logo">
<g id="Logo Text">
<path id="Vector" d="M25.8762 7.04702C27.5067 7.04702 28.8285 5.72855 28.8285 4.10213C28.8285 2.4757 27.5067 1.15723 25.8762 1.15723C24.2456 1.15723 22.9238 2.4757 22.9238 4.10213C22.9238 5.72855 24.2456 7.04702 25.8762 7.04702Z" fill="#1671D9"/>
<path id="Vector_2" d="M31.7938 12.9562C33.4243 12.9562 34.7461 11.6377 34.7461 10.0113C34.7461 8.38488 33.4243 7.06641 31.7938 7.06641C30.1632 7.06641 28.8414 8.38488 28.8414 10.0113C28.8414 11.6377 30.1632 12.9562 31.7938 12.9562Z" fill="#1671D9"/>
<path id="Vector_3" d="M24.9373 16.4845C26.5678 16.4845 27.8896 15.166 27.8896 13.5396C27.8896 11.9132 26.5678 10.5947 24.9373 10.5947C23.3068 10.5947 21.985 11.9132 21.985 13.5396C21.985 15.166 23.3068 16.4845 24.9373 16.4845Z" fill="#1671D9"/>
<path id="Vector_4" d="M18.2028 21.5851C19.8333 21.5851 21.1551 20.2666 21.1551 18.6402C21.1551 17.0138 19.8333 15.6953 18.2028 15.6953C16.5723 15.6953 15.2505 17.0138 15.2505 18.6402C15.2505 20.2666 16.5723 21.5851 18.2028 21.5851Z" fill="#1671D9"/>
<path id="Vector_5" d="M17.9518 11.8906C19.0175 11.8906 19.8815 11.0288 19.8815 9.96579C19.8815 8.90276 19.0175 8.04102 17.9518 8.04102C16.8861 8.04102 16.0222 8.90276 16.0222 9.96579C16.0222 11.0288 16.8861 11.8906 17.9518 11.8906Z" fill="#1671D9"/>
<path id="Vector_6" d="M10.7931 15.5488C11.8589 15.5488 12.7228 14.687 12.7228 13.624C12.7228 12.561 11.8589 11.6992 10.7931 11.6992C9.72745 11.6992 8.86353 12.561 8.86353 13.624C8.86353 14.687 9.72745 15.5488 10.7931 15.5488Z" fill="#1671D9"/>
<path id="Vector_7" d="M1.92962 20.5663C2.99533 20.5663 3.85925 19.7046 3.85925 18.6416C3.85925 17.5785 2.99533 16.7168 1.92962 16.7168C0.863922 16.7168 0 17.5785 0 18.6416C0 19.7046 0.863922 20.5663 1.92962 20.5663Z" fill="#1671D9"/>
<path id="Vector_8" d="M3.71795 11.8906C4.78366 11.8906 5.64758 11.0288 5.64758 9.96579C5.64758 8.90276 4.78366 8.04102 3.71795 8.04102C2.65225 8.04102 1.78833 8.90276 1.78833 9.96579C1.78833 11.0288 2.65225 11.8906 3.71795 11.8906Z" fill="#1671D9"/>
<path id="Vector_9" d="M10.1111 5.69327C10.8713 5.69327 11.4875 5.07856 11.4875 4.32027C11.4875 3.56198 10.8713 2.94727 10.1111 2.94727C9.35088 2.94727 8.73462 3.56198 8.73462 4.32027C8.73462 5.07856 9.35088 5.69327 10.1111 5.69327Z" fill="#1671D9"/>
<path id="Vector_10" d="M17.6498 3.56339C18.41 3.56339 19.0262 2.94867 19.0262 2.19039C19.0262 1.4321 18.41 0.817383 17.6498 0.817383C16.8896 0.817383 16.2733 1.4321 16.2733 2.19039C16.2733 2.94867 16.8896 3.56339 17.6498 3.56339Z" fill="#1671D9"/>
<path id="Vector_11" d="M18.0355 29.4904C19.666 29.4904 20.9878 28.1719 20.9878 26.5455C20.9878 24.9191 19.666 23.6006 18.0355 23.6006C16.4049 23.6006 15.0831 24.9191 15.0831 26.5455C15.0831 28.1719 16.4049 29.4904 18.0355 29.4904Z" fill="#1671D9"/>
<path id="Vector_12" d="M25.1044 24.9865C26.735 24.9865 28.0567 23.668 28.0567 22.0416C28.0567 20.4152 26.735 19.0967 25.1044 19.0967C23.4739 19.0967 22.1521 20.4152 22.1521 22.0416C22.1521 23.668 23.4739 24.9865 25.1044 24.9865Z" fill="#1671D9"/>
<path id="Vector_13" d="M10.9604 25.0695C12.5909 25.0695 13.9127 23.751 13.9127 22.1246C13.9127 20.4982 12.5909 19.1797 10.9604 19.1797C9.32986 19.1797 8.00806 20.4982 8.00806 22.1246C8.00806 23.751 9.32986 25.0695 10.9604 25.0695Z" fill="#1671D9"/>
<path id="Vector_14" d="M33.4982 20.6935C35.1287 20.6935 36.4505 19.375 36.4505 17.7486C36.4505 16.1222 35.1287 14.8037 33.4982 14.8037C31.8677 14.8037 30.5459 16.1222 30.5459 17.7486C30.5459 19.375 31.8677 20.6935 33.4982 20.6935Z" fill="#1671D9"/>
<path id="Vector_15" d="M31.6266 28.6818C33.2572 28.6818 34.579 27.3633 34.579 25.7369C34.579 24.1105 33.2572 22.792 31.6266 22.792C29.9961 22.792 28.6743 24.1105 28.6743 25.7369C28.6743 27.3633 29.9961 28.6818 31.6266 28.6818Z" fill="#1671D9"/>
<path id="Vector_16" d="M4.10345 28.6818C5.73397 28.6818 7.05577 27.3633 7.05577 25.7369C7.05577 24.1105 5.73397 22.792 4.10345 22.792C2.47292 22.792 1.15112 24.1105 1.15112 25.7369C1.15112 27.3633 2.47292 28.6818 4.10345 28.6818Z" fill="#1671D9"/>
<path id="Vector_17" d="M25.8312 34.8859C27.4618 34.8859 28.7836 33.5674 28.7836 31.941C28.7836 30.3146 27.4618 28.9961 25.8312 28.9961C24.2007 28.9961 22.8789 30.3146 22.8789 31.941C22.8789 33.5674 24.2007 34.8859 25.8312 34.8859Z" fill="#1671D9"/>
<path id="Vector_18" d="M10.0662 34.8859C11.6967 34.8859 13.0185 33.5674 13.0185 31.941C13.0185 30.3146 11.6967 28.9961 10.0662 28.9961C8.43569 28.9961 7.11389 30.3146 7.11389 31.941C7.11389 33.5674 8.43569 34.8859 10.0662 34.8859Z" fill="#1671D9"/>
<path id="Vector_19" d="M17.9904 37.1828C19.6209 37.1828 20.9427 35.8643 20.9427 34.2379C20.9427 32.6114 19.6209 31.293 17.9904 31.293C16.3599 31.293 15.0381 32.6114 15.0381 34.2379C15.0381 35.8643 16.3599 37.1828 17.9904 37.1828Z" fill="#1671D9"/>
</g>
<g id="Logo Icon">
<path id="Vector_20" d="M53.6501 17.525C53.6501 15.1127 51.8813 13.6113 49.0318 13.6113H44.6902V24.4991H46.9286V21.4259H49.0318C49.1798 21.4259 49.3277 21.4259 49.4692 21.4131L51.6433 24.4991H54.1904L51.6304 20.887C52.9168 20.2454 53.6436 19.0456 53.6436 17.525H53.6501ZM46.9286 19.4113V15.658H48.9932C50.6013 15.658 51.4181 16.2868 51.4181 17.525C51.4181 18.7633 50.6013 19.4113 48.9932 19.4113H46.9286Z" fill="#101928"/>
<path id="Vector_21" d="M83.5849 13.6113H78.9216V24.4991H83.5849C87.0389 24.4991 89.4445 22.26 89.4445 19.0584C89.4445 15.8569 87.0325 13.6177 83.5849 13.6177V13.6113ZM81.16 15.658H83.4948C85.7461 15.658 87.2062 16.9925 87.2062 19.0584C87.2062 21.1244 85.7525 22.4589 83.4948 22.4589H81.16V15.6644V15.658Z" fill="#101928"/>
<path id="Vector_22" d="M100.662 13.6113L96.7258 20.3224L92.7315 13.6113H90.9241V24.4927H93.1045V18.2179L96.1405 23.2673H97.2597L100.296 18.173L100.308 24.4927H102.489L102.476 13.6113H100.662Z" fill="#101928"/>
<path id="Vector_23" d="M109.442 13.4961C106.946 13.4961 104.708 13.7399 104.708 16.6591V24.4994H106.914V21.7149H111.963V24.4994H114.202V16.6591C114.202 13.4961 111.783 13.4961 109.442 13.4961ZM109.442 15.5684C111.455 15.5684 111.963 15.6647 111.963 16.5244V19.6682H106.914V16.5244C106.914 15.7481 107.384 15.5684 109.435 15.5684H109.442Z" fill="#101928"/>
<path id="Vector_24" d="M120.704 13.6113H116.363V24.4991H118.601V21.4387H120.704C123.554 21.4387 125.323 19.9374 125.323 17.525C125.323 15.1127 123.554 13.6113 120.704 13.6113ZM118.601 19.3921V15.6516H120.666C122.274 15.6516 123.091 16.2803 123.091 17.5186C123.091 18.7569 122.274 19.3856 120.666 19.3856H118.601V19.3921Z" fill="#101928"/>
<path id="Vector_25" d="M71.9622 13.4961C69.4665 13.4961 67.2281 13.7399 67.2281 16.6591V24.4994H69.4343V21.7149H74.4835V24.4994H76.7219V16.6591C76.7219 13.4961 74.3034 13.4961 71.9622 13.4961ZM71.9622 15.5684C73.9754 15.5684 74.4835 15.6647 74.4835 16.5244V19.6682H69.4343V16.5244C69.4343 15.7481 69.9039 15.5684 71.9557 15.5684H71.9622Z" fill="#101928"/>
<path id="Vector_26" d="M61.2977 13.5986H59.0079C56.6216 13.5986 54.6855 15.5362 54.6855 17.9101V20.1942C54.6855 22.5745 56.628 24.5057 59.0079 24.5057H61.2977C63.684 24.5057 65.6201 22.5681 65.6201 20.1942V17.9101C65.6201 15.5298 63.6776 13.5986 61.2977 13.5986ZM56.9239 17.9101C56.9239 16.7681 57.8566 15.8314 59.0079 15.8314H61.2977C62.4426 15.8314 63.3817 16.7617 63.3817 17.9101V20.1942C63.3817 21.3362 62.4491 22.2729 61.2977 22.2729H59.0079C57.863 22.2729 56.9239 21.3426 56.9239 20.1942V17.9101Z" fill="#101928"/>
</g>
</g>
</svg>
